M48
;DRILL file {Pcbnew (2013-mar-30)-stable} date Mon 10 Jun 2013 18:39:42 BST
;FORMAT={-:-/ absolute / metric / decimal}
FMAT,2
METRIC,TZ
T1C0.635
T2C0.813
T3C1.016
%
G90
G05
M71
T1
X88.95Y-73.21
X89.25Y-63.87
X89.32Y-67.88
X89.86Y-76.7
X90.74Y-125.96
X90.76Y-91.22
X90.8Y-142.21
X90.83Y-108.32
X93.38Y-80.63
X94.48Y-80.63
X95.58Y-80.63
X96.68Y-80.63
X97.34Y-60.16
X97.56Y-75.17
X97.58Y-65.28
X97.6Y-70.12
X100.94Y-73.67
X100.97Y-63.88
X100.97Y-68.68
X101.07Y-72.23
X101.19Y-66.91
X101.22Y-62.68
X101.26Y-76.69
X101.95Y-98.41
X101.96Y-115.42
X101.96Y-132.37
X102.63Y-75.96
X102.95Y-85.03
X102.95Y-94.8
X102.95Y-102.
X102.95Y-111.8
X102.95Y-119.
X102.95Y-128.8
X102.95Y-136.
X109.25Y-67.1
X113.2Y-98.39
X113.2Y-132.42
X113.21Y-115.41
X113.95Y-70.25
X116.3Y-62.95
X116.6Y-59.7
X119.95Y-85.01
X119.95Y-94.8
X119.95Y-102.
X119.95Y-111.8
X119.95Y-119.
X119.95Y-128.8
X119.95Y-136.
X120.08Y-71.13
X122.252Y-61.142
X125.15Y-62.6
X126.2Y-71.55
X126.58Y-69.77
X129.7Y-70.25
X129.85Y-77.8
X130.19Y-98.38
X130.2Y-62.6
X130.2Y-115.41
X130.22Y-132.42
X131.Y-77.8
X131.13Y-69.9
X131.85Y-57.85
X131.87Y-69.08
X132.1Y-77.85
X132.5Y-68.15
X132.69Y-65.62
X133.29Y-77.86
X133.78Y-74.25
X134.2Y-64.55
X134.61Y-71.37
X134.65Y-77.57
X134.71Y-62.01
X135.28Y-65.62
X135.77Y-74.05
X135.96Y-69.81
X136.94Y-68.12
X136.95Y-85.
X136.95Y-94.8
X136.95Y-102.
X136.95Y-111.8
X136.95Y-119.
X136.95Y-128.8
X136.95Y-136.
X138.11Y-71.81
X138.15Y-69.05
X138.18Y-70.57
X138.2Y-67.89
X139.1Y-57.63
X142.61Y-66.4
X142.74Y-76.52
X145.198Y-65.376
X146.88Y-64.61
X147.2Y-115.41
X147.21Y-132.42
X147.23Y-98.4
X149.57Y-64.6
X152.29Y-64.61
X153.95Y-84.99
X153.95Y-94.79
X153.95Y-102.
X153.95Y-111.79
X153.95Y-119.
X153.95Y-128.8
X153.95Y-136.
X154.8Y-64.61
T2
X99.17Y-57.81
X101.71Y-57.81
X146.29Y-57.78
X148.83Y-57.78
T3
X105.86Y-58.28
X105.86Y-60.82
X108.4Y-58.28
X108.4Y-60.82
X110.94Y-58.28
X110.94Y-60.82
X113.5Y-58.25
T0
M30
