G04 (created by PCBNEW (2013-mar-30)-stable) date Wed 12 Jun 2013 19:44:47 BST*
%MOIN*%
G04 Gerber Fmt 3.4, Leading zero omitted, Abs format*
%FSLAX34Y34*%
G01*
G70*
G90*
G04 APERTURE LIST*
%ADD10C,0*%
%ADD11C,0.145984*%
%ADD12R,0.08X0.08*%
%ADD13C,0.08*%
%ADD14C,0.075*%
%ADD15R,0.031811X0.118425*%
%ADD16R,0.023937X0.21685*%
%ADD17R,0.0475591X0.023937*%
%ADD18R,0.0593701X0.21685*%
%ADD19R,0.145984X0.039685*%
%ADD20R,0.039685X0.142047*%
%ADD21R,0.413701X0.027874*%
%ADD22R,0.027874X0.413701*%
%ADD23R,0.0593701X0.413701*%
%ADD24R,0.0593701X0.118425*%
%ADD25R,0.649921X0.0908661*%
%ADD26R,0.118425X0.634173*%
G04 APERTURE END LIST*
G54D10*
G54D11*
X62814Y-59606D03*
X34468Y-59606D03*
X62814Y-23385D03*
G54D12*
X44685Y-22933D03*
X41677Y-23944D03*
G54D13*
X41677Y-22944D03*
X42677Y-23944D03*
X42677Y-22944D03*
X43677Y-23944D03*
X43677Y-22944D03*
G54D14*
X57594Y-22748D03*
X58594Y-22748D03*
X40043Y-22759D03*
X39043Y-22759D03*
G54D11*
X34468Y-23385D03*
G54D15*
X37942Y-33907D03*
X37952Y-36860D03*
G54D16*
X37736Y-35383D03*
G54D17*
X37854Y-36387D03*
X37854Y-34379D03*
X39350Y-34389D03*
X39350Y-36397D03*
G54D16*
X39468Y-35393D03*
G54D15*
X39251Y-36870D03*
G54D18*
X38602Y-33897D03*
G54D19*
X38602Y-35974D03*
G54D20*
X38070Y-35423D03*
G54D21*
X38602Y-37322D03*
G54D15*
X39261Y-33917D03*
G54D22*
X36673Y-35393D03*
X40531Y-35393D03*
G54D23*
X37303Y-34921D03*
G54D24*
X38602Y-36397D03*
G54D23*
X39901Y-34921D03*
G54D25*
X38602Y-38110D03*
X38602Y-32677D03*
G54D20*
X39133Y-35403D03*
G54D26*
X35748Y-35393D03*
X41456Y-35393D03*
G54D19*
X38602Y-34812D03*
G54D15*
X37942Y-40600D03*
X37952Y-43553D03*
G54D16*
X37736Y-42076D03*
G54D17*
X37854Y-43080D03*
X37854Y-41072D03*
X39350Y-41082D03*
X39350Y-43090D03*
G54D16*
X39468Y-42086D03*
G54D15*
X39251Y-43562D03*
G54D18*
X38602Y-40590D03*
G54D19*
X38602Y-42667D03*
G54D20*
X38070Y-42116D03*
G54D21*
X38602Y-44015D03*
G54D15*
X39261Y-40610D03*
G54D22*
X36673Y-42086D03*
X40531Y-42086D03*
G54D23*
X37303Y-41614D03*
G54D24*
X38602Y-43090D03*
G54D23*
X39901Y-41614D03*
G54D25*
X38602Y-44803D03*
X38602Y-39370D03*
G54D20*
X39133Y-42096D03*
G54D26*
X35748Y-42086D03*
X41456Y-42086D03*
G54D19*
X38602Y-41505D03*
G54D15*
X37942Y-47293D03*
X37952Y-50246D03*
G54D16*
X37736Y-48769D03*
G54D17*
X37854Y-49773D03*
X37854Y-47765D03*
X39350Y-47775D03*
X39350Y-49783D03*
G54D16*
X39468Y-48779D03*
G54D15*
X39251Y-50255D03*
G54D18*
X38602Y-47283D03*
G54D19*
X38602Y-49360D03*
G54D20*
X38070Y-48809D03*
G54D21*
X38602Y-50708D03*
G54D15*
X39261Y-47303D03*
G54D22*
X36673Y-48779D03*
X40531Y-48779D03*
G54D23*
X37303Y-48307D03*
G54D24*
X38602Y-49783D03*
G54D23*
X39901Y-48307D03*
G54D25*
X38602Y-51496D03*
X38602Y-46062D03*
G54D20*
X39133Y-48789D03*
G54D26*
X35748Y-48779D03*
X41456Y-48779D03*
G54D19*
X38602Y-48198D03*
G54D15*
X37942Y-53986D03*
X37952Y-56938D03*
G54D16*
X37736Y-55462D03*
G54D17*
X37854Y-56466D03*
X37854Y-54458D03*
X39350Y-54468D03*
X39350Y-56476D03*
G54D16*
X39468Y-55472D03*
G54D15*
X39251Y-56948D03*
G54D18*
X38602Y-53976D03*
G54D19*
X38602Y-56053D03*
G54D20*
X38070Y-55501D03*
G54D21*
X38602Y-57401D03*
G54D15*
X39261Y-53996D03*
G54D22*
X36673Y-55472D03*
X40531Y-55472D03*
G54D23*
X37303Y-55000D03*
G54D24*
X38602Y-56476D03*
G54D23*
X39901Y-55000D03*
G54D25*
X38602Y-58188D03*
X38602Y-52755D03*
G54D20*
X39133Y-55482D03*
G54D26*
X35748Y-55472D03*
X41456Y-55472D03*
G54D19*
X38602Y-54891D03*
G54D15*
X44635Y-53986D03*
X44645Y-56938D03*
G54D16*
X44429Y-55462D03*
G54D17*
X44547Y-56466D03*
X44547Y-54458D03*
X46043Y-54468D03*
X46043Y-56476D03*
G54D16*
X46161Y-55472D03*
G54D15*
X45944Y-56948D03*
G54D18*
X45295Y-53976D03*
G54D19*
X45295Y-56053D03*
G54D20*
X44763Y-55501D03*
G54D21*
X45295Y-57401D03*
G54D15*
X45954Y-53996D03*
G54D22*
X43366Y-55472D03*
X47224Y-55472D03*
G54D23*
X43996Y-55000D03*
G54D24*
X45295Y-56476D03*
G54D23*
X46594Y-55000D03*
G54D25*
X45295Y-58188D03*
X45295Y-52755D03*
G54D20*
X45826Y-55482D03*
G54D26*
X42440Y-55472D03*
X48149Y-55472D03*
G54D19*
X45295Y-54891D03*
G54D15*
X44635Y-47293D03*
X44645Y-50246D03*
G54D16*
X44429Y-48769D03*
G54D17*
X44547Y-49773D03*
X44547Y-47765D03*
X46043Y-47775D03*
X46043Y-49783D03*
G54D16*
X46161Y-48779D03*
G54D15*
X45944Y-50255D03*
G54D18*
X45295Y-47283D03*
G54D19*
X45295Y-49360D03*
G54D20*
X44763Y-48809D03*
G54D21*
X45295Y-50708D03*
G54D15*
X45954Y-47303D03*
G54D22*
X43366Y-48779D03*
X47224Y-48779D03*
G54D23*
X43996Y-48307D03*
G54D24*
X45295Y-49783D03*
G54D23*
X46594Y-48307D03*
G54D25*
X45295Y-51496D03*
X45295Y-46062D03*
G54D20*
X45826Y-48789D03*
G54D26*
X42440Y-48779D03*
X48149Y-48779D03*
G54D19*
X45295Y-48198D03*
G54D15*
X44635Y-40600D03*
X44645Y-43553D03*
G54D16*
X44429Y-42076D03*
G54D17*
X44547Y-43080D03*
X44547Y-41072D03*
X46043Y-41082D03*
X46043Y-43090D03*
G54D16*
X46161Y-42086D03*
G54D15*
X45944Y-43562D03*
G54D18*
X45295Y-40590D03*
G54D19*
X45295Y-42667D03*
G54D20*
X44763Y-42116D03*
G54D21*
X45295Y-44015D03*
G54D15*
X45954Y-40610D03*
G54D22*
X43366Y-42086D03*
X47224Y-42086D03*
G54D23*
X43996Y-41614D03*
G54D24*
X45295Y-43090D03*
G54D23*
X46594Y-41614D03*
G54D25*
X45295Y-44803D03*
X45295Y-39370D03*
G54D20*
X45826Y-42096D03*
G54D26*
X42440Y-42086D03*
X48149Y-42086D03*
G54D19*
X45295Y-41505D03*
G54D15*
X44635Y-33907D03*
X44645Y-36860D03*
G54D16*
X44429Y-35383D03*
G54D17*
X44547Y-36387D03*
X44547Y-34379D03*
X46043Y-34389D03*
X46043Y-36397D03*
G54D16*
X46161Y-35393D03*
G54D15*
X45944Y-36870D03*
G54D18*
X45295Y-33897D03*
G54D19*
X45295Y-35974D03*
G54D20*
X44763Y-35423D03*
G54D21*
X45295Y-37322D03*
G54D15*
X45954Y-33917D03*
G54D22*
X43366Y-35393D03*
X47224Y-35393D03*
G54D23*
X43996Y-34921D03*
G54D24*
X45295Y-36397D03*
G54D23*
X46594Y-34921D03*
G54D25*
X45295Y-38110D03*
X45295Y-32677D03*
G54D20*
X45826Y-35403D03*
G54D26*
X42440Y-35393D03*
X48149Y-35393D03*
G54D19*
X45295Y-34812D03*
G54D15*
X58021Y-40600D03*
X58031Y-43553D03*
G54D16*
X57814Y-42076D03*
G54D17*
X57933Y-43080D03*
X57933Y-41072D03*
X59429Y-41082D03*
X59429Y-43090D03*
G54D16*
X59547Y-42086D03*
G54D15*
X59330Y-43562D03*
G54D18*
X58681Y-40590D03*
G54D19*
X58681Y-42667D03*
G54D20*
X58149Y-42116D03*
G54D21*
X58681Y-44015D03*
G54D15*
X59340Y-40610D03*
G54D22*
X56751Y-42086D03*
X60610Y-42086D03*
G54D23*
X57381Y-41614D03*
G54D24*
X58681Y-43090D03*
G54D23*
X59980Y-41614D03*
G54D25*
X58681Y-44803D03*
X58681Y-39370D03*
G54D20*
X59212Y-42096D03*
G54D26*
X55826Y-42086D03*
X61535Y-42086D03*
G54D19*
X58681Y-41505D03*
G54D15*
X58021Y-47293D03*
X58031Y-50246D03*
G54D16*
X57814Y-48769D03*
G54D17*
X57933Y-49773D03*
X57933Y-47765D03*
X59429Y-47775D03*
X59429Y-49783D03*
G54D16*
X59547Y-48779D03*
G54D15*
X59330Y-50255D03*
G54D18*
X58681Y-47283D03*
G54D19*
X58681Y-49360D03*
G54D20*
X58149Y-48809D03*
G54D21*
X58681Y-50708D03*
G54D15*
X59340Y-47303D03*
G54D22*
X56751Y-48779D03*
X60610Y-48779D03*
G54D23*
X57381Y-48307D03*
G54D24*
X58681Y-49783D03*
G54D23*
X59980Y-48307D03*
G54D25*
X58681Y-51496D03*
X58681Y-46062D03*
G54D20*
X59212Y-48789D03*
G54D26*
X55826Y-48779D03*
X61535Y-48779D03*
G54D19*
X58681Y-48198D03*
G54D15*
X58021Y-53986D03*
X58031Y-56938D03*
G54D16*
X57814Y-55462D03*
G54D17*
X57933Y-56466D03*
X57933Y-54458D03*
X59429Y-54468D03*
X59429Y-56476D03*
G54D16*
X59547Y-55472D03*
G54D15*
X59330Y-56948D03*
G54D18*
X58681Y-53976D03*
G54D19*
X58681Y-56053D03*
G54D20*
X58149Y-55501D03*
G54D21*
X58681Y-57401D03*
G54D15*
X59340Y-53996D03*
G54D22*
X56751Y-55472D03*
X60610Y-55472D03*
G54D23*
X57381Y-55000D03*
G54D24*
X58681Y-56476D03*
G54D23*
X59980Y-55000D03*
G54D25*
X58681Y-58188D03*
X58681Y-52755D03*
G54D20*
X59212Y-55482D03*
G54D26*
X55826Y-55472D03*
X61535Y-55472D03*
G54D19*
X58681Y-54891D03*
G54D15*
X58021Y-33907D03*
X58031Y-36860D03*
G54D16*
X57814Y-35383D03*
G54D17*
X57933Y-36387D03*
X57933Y-34379D03*
X59429Y-34389D03*
X59429Y-36397D03*
G54D16*
X59547Y-35393D03*
G54D15*
X59330Y-36870D03*
G54D18*
X58681Y-33897D03*
G54D19*
X58681Y-35974D03*
G54D20*
X58149Y-35423D03*
G54D21*
X58681Y-37322D03*
G54D15*
X59340Y-33917D03*
G54D22*
X56751Y-35393D03*
X60610Y-35393D03*
G54D23*
X57381Y-34921D03*
G54D24*
X58681Y-36397D03*
G54D23*
X59980Y-34921D03*
G54D25*
X58681Y-38110D03*
X58681Y-32677D03*
G54D20*
X59212Y-35403D03*
G54D26*
X55826Y-35393D03*
X61535Y-35393D03*
G54D19*
X58681Y-34812D03*
G54D15*
X51328Y-33907D03*
X51338Y-36860D03*
G54D16*
X51122Y-35383D03*
G54D17*
X51240Y-36387D03*
X51240Y-34379D03*
X52736Y-34389D03*
X52736Y-36397D03*
G54D16*
X52854Y-35393D03*
G54D15*
X52637Y-36870D03*
G54D18*
X51988Y-33897D03*
G54D19*
X51988Y-35974D03*
G54D20*
X51456Y-35423D03*
G54D21*
X51988Y-37322D03*
G54D15*
X52647Y-33917D03*
G54D22*
X50059Y-35393D03*
X53917Y-35393D03*
G54D23*
X50688Y-34921D03*
G54D24*
X51988Y-36397D03*
G54D23*
X53287Y-34921D03*
G54D25*
X51988Y-38110D03*
X51988Y-32677D03*
G54D20*
X52519Y-35403D03*
G54D26*
X49133Y-35393D03*
X54842Y-35393D03*
G54D19*
X51988Y-34812D03*
G54D15*
X51328Y-47293D03*
X51338Y-50246D03*
G54D16*
X51122Y-48769D03*
G54D17*
X51240Y-49773D03*
X51240Y-47765D03*
X52736Y-47775D03*
X52736Y-49783D03*
G54D16*
X52854Y-48779D03*
G54D15*
X52637Y-50255D03*
G54D18*
X51988Y-47283D03*
G54D19*
X51988Y-49360D03*
G54D20*
X51456Y-48809D03*
G54D21*
X51988Y-50708D03*
G54D15*
X52647Y-47303D03*
G54D22*
X50059Y-48779D03*
X53917Y-48779D03*
G54D23*
X50688Y-48307D03*
G54D24*
X51988Y-49783D03*
G54D23*
X53287Y-48307D03*
G54D25*
X51988Y-51496D03*
X51988Y-46062D03*
G54D20*
X52519Y-48789D03*
G54D26*
X49133Y-48779D03*
X54842Y-48779D03*
G54D19*
X51988Y-48198D03*
G54D15*
X51328Y-53986D03*
X51338Y-56938D03*
G54D16*
X51122Y-55462D03*
G54D17*
X51240Y-56466D03*
X51240Y-54458D03*
X52736Y-54468D03*
X52736Y-56476D03*
G54D16*
X52854Y-55472D03*
G54D15*
X52637Y-56948D03*
G54D18*
X51988Y-53976D03*
G54D19*
X51988Y-56053D03*
G54D20*
X51456Y-55501D03*
G54D21*
X51988Y-57401D03*
G54D15*
X52647Y-53996D03*
G54D22*
X50059Y-55472D03*
X53917Y-55472D03*
G54D23*
X50688Y-55000D03*
G54D24*
X51988Y-56476D03*
G54D23*
X53287Y-55000D03*
G54D25*
X51988Y-58188D03*
X51988Y-52755D03*
G54D20*
X52519Y-55482D03*
G54D26*
X49133Y-55472D03*
X54842Y-55472D03*
G54D19*
X51988Y-54891D03*
G54D15*
X51328Y-40600D03*
X51338Y-43553D03*
G54D16*
X51122Y-42076D03*
G54D17*
X51240Y-43080D03*
X51240Y-41072D03*
X52736Y-41082D03*
X52736Y-43090D03*
G54D16*
X52854Y-42086D03*
G54D15*
X52637Y-43562D03*
G54D18*
X51988Y-40590D03*
G54D19*
X51988Y-42667D03*
G54D20*
X51456Y-42116D03*
G54D21*
X51988Y-44015D03*
G54D15*
X52647Y-40610D03*
G54D22*
X50059Y-42086D03*
X53917Y-42086D03*
G54D23*
X50688Y-41614D03*
G54D24*
X51988Y-43090D03*
G54D23*
X53287Y-41614D03*
G54D25*
X51988Y-44803D03*
X51988Y-39370D03*
G54D20*
X52519Y-42096D03*
G54D26*
X49133Y-42086D03*
X54842Y-42086D03*
G54D19*
X51988Y-41505D03*
M02*
