G04 (created by PCBNEW (2013-mar-30)-stable) date Mon 10 Jun 2013 18:39:46 BST*
%MOIN*%
G04 Gerber Fmt 3.4, Leading zero omitted, Abs format*
%FSLAX34Y34*%
G01*
G70*
G90*
G04 APERTURE LIST*
%ADD10C,0*%
%ADD11C,4.72441e-06*%
%ADD12C,0.005*%
%ADD13C,0.0669*%
G04 APERTURE END LIST*
G54D10*
G54D11*
X64389Y-59607D02*
X64389Y-23386D01*
X62815Y-21811D02*
X34468Y-21811D01*
X32893Y-23386D02*
X32893Y-59607D01*
X34468Y-61181D02*
X62815Y-61181D01*
G54D12*
X32893Y-62338D02*
X64389Y-62338D01*
X64389Y-62838D02*
X64389Y-60839D01*
X32893Y-62838D02*
X32893Y-60839D01*
X31736Y-21811D02*
X31736Y-61181D01*
X31236Y-61181D02*
X33236Y-61181D01*
X31236Y-21811D02*
X33236Y-21811D01*
X63547Y-59339D02*
X65546Y-57339D01*
X65546Y-57339D02*
X65546Y-55839D01*
X62815Y-23386D02*
X62815Y-21091D01*
X62815Y-21091D02*
X62815Y-20841D01*
X62815Y-21091D02*
X64389Y-21091D01*
X64389Y-22341D02*
X64389Y-20841D01*
X64334Y-60126D02*
X67121Y-57339D01*
X67121Y-57339D02*
X67121Y-55839D01*
G54D13*
X62815Y-60847D02*
X34468Y-60847D01*
X33228Y-59607D02*
X33228Y-23386D01*
X64055Y-23386D02*
X64055Y-59607D01*
X34468Y-22146D02*
X62815Y-22146D01*
G54D11*
X48641Y-61181D02*
X48641Y-21811D01*
X32893Y-41496D02*
X64389Y-41496D01*
X47854Y-23878D02*
X49429Y-23878D01*
X47854Y-59115D02*
X49429Y-59115D01*
X49035Y-59607D02*
X52578Y-63149D01*
X52578Y-63149D02*
X52578Y-65511D01*
X48248Y-23386D02*
X45098Y-20237D01*
X45098Y-20237D02*
X45098Y-17481D01*
X32893Y-58426D02*
X34468Y-58426D01*
X34468Y-58426D02*
X34636Y-58438D01*
X34636Y-58438D02*
X34801Y-58473D01*
X34801Y-58473D02*
X34959Y-58532D01*
X34959Y-58532D02*
X35107Y-58613D01*
X35107Y-58613D02*
X35242Y-58714D01*
X35242Y-58714D02*
X35361Y-58833D01*
X35361Y-58833D02*
X35462Y-58968D01*
X35462Y-58968D02*
X35543Y-59116D01*
X35543Y-59116D02*
X35601Y-59274D01*
X35601Y-59274D02*
X35637Y-59439D01*
X35637Y-59439D02*
X35649Y-59607D01*
X35649Y-59607D02*
X35649Y-61181D01*
X35649Y-61181D02*
X34468Y-61181D01*
X34468Y-61181D02*
X34263Y-61168D01*
X34263Y-61168D02*
X34061Y-61128D01*
X34061Y-61128D02*
X33866Y-61062D01*
X33866Y-61062D02*
X33681Y-60971D01*
X33681Y-60971D02*
X33510Y-60856D01*
X33510Y-60856D02*
X33355Y-60720D01*
X33355Y-60720D02*
X33219Y-60565D01*
X33219Y-60565D02*
X33104Y-60394D01*
X33104Y-60394D02*
X33013Y-60209D01*
X33013Y-60209D02*
X32947Y-60014D01*
X32947Y-60014D02*
X32907Y-59812D01*
X32907Y-59812D02*
X32893Y-59607D01*
X32893Y-59607D02*
X32893Y-58426D01*
X32893Y-58426D02*
X34468Y-58426D01*
X34468Y-58426D02*
X34636Y-58438D01*
X34636Y-58438D02*
X34801Y-58473D01*
X34801Y-58473D02*
X34959Y-58532D01*
X34959Y-58532D02*
X35107Y-58613D01*
X35107Y-58613D02*
X35242Y-58714D01*
X35242Y-58714D02*
X35361Y-58833D01*
X35361Y-58833D02*
X35462Y-58968D01*
X35462Y-58968D02*
X35543Y-59116D01*
X35543Y-59116D02*
X35601Y-59274D01*
X35601Y-59274D02*
X35637Y-59439D01*
X35637Y-59439D02*
X35649Y-59607D01*
X35649Y-59607D02*
X35649Y-61181D01*
X35649Y-61181D02*
X34468Y-61181D01*
X34468Y-61181D02*
X34263Y-61168D01*
X34263Y-61168D02*
X34061Y-61128D01*
X34061Y-61128D02*
X33866Y-61062D01*
X33866Y-61062D02*
X33681Y-60971D01*
X33681Y-60971D02*
X33510Y-60856D01*
X33510Y-60856D02*
X33355Y-60720D01*
X33355Y-60720D02*
X33219Y-60565D01*
X33219Y-60565D02*
X33104Y-60394D01*
X33104Y-60394D02*
X33013Y-60209D01*
X33013Y-60209D02*
X32947Y-60014D01*
X32947Y-60014D02*
X32907Y-59812D01*
X32907Y-59812D02*
X32893Y-59607D01*
X32893Y-59607D02*
X32893Y-58426D01*
X32893Y-58426D02*
X34468Y-58426D01*
X34468Y-58426D02*
X34636Y-58438D01*
X34636Y-58438D02*
X34801Y-58473D01*
X34801Y-58473D02*
X34959Y-58532D01*
X34959Y-58532D02*
X35107Y-58613D01*
X35107Y-58613D02*
X35242Y-58714D01*
X35242Y-58714D02*
X35361Y-58833D01*
X35361Y-58833D02*
X35462Y-58968D01*
X35462Y-58968D02*
X35543Y-59116D01*
X35543Y-59116D02*
X35601Y-59274D01*
X35601Y-59274D02*
X35637Y-59439D01*
X35637Y-59439D02*
X35649Y-59607D01*
X35649Y-59607D02*
X35649Y-61181D01*
X35649Y-61181D02*
X34468Y-61181D01*
X34468Y-61181D02*
X34263Y-61168D01*
X34263Y-61168D02*
X34061Y-61128D01*
X34061Y-61128D02*
X33866Y-61062D01*
X33866Y-61062D02*
X33681Y-60971D01*
X33681Y-60971D02*
X33510Y-60856D01*
X33510Y-60856D02*
X33355Y-60720D01*
X33355Y-60720D02*
X33219Y-60565D01*
X33219Y-60565D02*
X33104Y-60394D01*
X33104Y-60394D02*
X33013Y-60209D01*
X33013Y-60209D02*
X32947Y-60014D01*
X32947Y-60014D02*
X32907Y-59812D01*
X32907Y-59812D02*
X32893Y-59607D01*
X32893Y-59607D02*
X32893Y-58426D01*
X35649Y-21811D02*
X35649Y-23386D01*
X35649Y-23386D02*
X35637Y-23554D01*
X35637Y-23554D02*
X35601Y-23719D01*
X35601Y-23719D02*
X35543Y-23877D01*
X35543Y-23877D02*
X35462Y-24025D01*
X35462Y-24025D02*
X35361Y-24160D01*
X35361Y-24160D02*
X35242Y-24279D01*
X35242Y-24279D02*
X35107Y-24380D01*
X35107Y-24380D02*
X34959Y-24461D01*
X34959Y-24461D02*
X34801Y-24519D01*
X34801Y-24519D02*
X34636Y-24555D01*
X34636Y-24555D02*
X34468Y-24567D01*
X34468Y-24567D02*
X32893Y-24567D01*
X32893Y-24567D02*
X32893Y-23386D01*
X32893Y-23386D02*
X32907Y-23181D01*
X32907Y-23181D02*
X32947Y-22979D01*
X32947Y-22979D02*
X33013Y-22784D01*
X33013Y-22784D02*
X33104Y-22599D01*
X33104Y-22599D02*
X33219Y-22428D01*
X33219Y-22428D02*
X33355Y-22273D01*
X33355Y-22273D02*
X33510Y-22137D01*
X33510Y-22137D02*
X33681Y-22022D01*
X33681Y-22022D02*
X33866Y-21931D01*
X33866Y-21931D02*
X34061Y-21865D01*
X34061Y-21865D02*
X34263Y-21825D01*
X34263Y-21825D02*
X34468Y-21811D01*
X34468Y-21811D02*
X35649Y-21811D01*
X35649Y-21811D02*
X35649Y-23386D01*
X35649Y-23386D02*
X35637Y-23554D01*
X35637Y-23554D02*
X35601Y-23719D01*
X35601Y-23719D02*
X35543Y-23877D01*
X35543Y-23877D02*
X35462Y-24025D01*
X35462Y-24025D02*
X35361Y-24160D01*
X35361Y-24160D02*
X35242Y-24279D01*
X35242Y-24279D02*
X35107Y-24380D01*
X35107Y-24380D02*
X34959Y-24461D01*
X34959Y-24461D02*
X34801Y-24519D01*
X34801Y-24519D02*
X34636Y-24555D01*
X34636Y-24555D02*
X34468Y-24567D01*
X34468Y-24567D02*
X32893Y-24567D01*
X32893Y-24567D02*
X32893Y-23386D01*
X32893Y-23386D02*
X32907Y-23181D01*
X32907Y-23181D02*
X32947Y-22979D01*
X32947Y-22979D02*
X33013Y-22784D01*
X33013Y-22784D02*
X33104Y-22599D01*
X33104Y-22599D02*
X33219Y-22428D01*
X33219Y-22428D02*
X33355Y-22273D01*
X33355Y-22273D02*
X33510Y-22137D01*
X33510Y-22137D02*
X33681Y-22022D01*
X33681Y-22022D02*
X33866Y-21931D01*
X33866Y-21931D02*
X34061Y-21865D01*
X34061Y-21865D02*
X34263Y-21825D01*
X34263Y-21825D02*
X34468Y-21811D01*
X34468Y-21811D02*
X35649Y-21811D01*
X35649Y-21811D02*
X35649Y-23386D01*
X35649Y-23386D02*
X35637Y-23554D01*
X35637Y-23554D02*
X35601Y-23719D01*
X35601Y-23719D02*
X35543Y-23877D01*
X35543Y-23877D02*
X35462Y-24025D01*
X35462Y-24025D02*
X35361Y-24160D01*
X35361Y-24160D02*
X35242Y-24279D01*
X35242Y-24279D02*
X35107Y-24380D01*
X35107Y-24380D02*
X34959Y-24461D01*
X34959Y-24461D02*
X34801Y-24519D01*
X34801Y-24519D02*
X34636Y-24555D01*
X34636Y-24555D02*
X34468Y-24567D01*
X34468Y-24567D02*
X32893Y-24567D01*
X32893Y-24567D02*
X32893Y-23386D01*
X32893Y-23386D02*
X32907Y-23181D01*
X32907Y-23181D02*
X32947Y-22979D01*
X32947Y-22979D02*
X33013Y-22784D01*
X33013Y-22784D02*
X33104Y-22599D01*
X33104Y-22599D02*
X33219Y-22428D01*
X33219Y-22428D02*
X33355Y-22273D01*
X33355Y-22273D02*
X33510Y-22137D01*
X33510Y-22137D02*
X33681Y-22022D01*
X33681Y-22022D02*
X33866Y-21931D01*
X33866Y-21931D02*
X34061Y-21865D01*
X34061Y-21865D02*
X34263Y-21825D01*
X34263Y-21825D02*
X34468Y-21811D01*
X34468Y-21811D02*
X35649Y-21811D01*
X61634Y-61181D02*
X61634Y-59607D01*
X61634Y-59607D02*
X61646Y-59439D01*
X61646Y-59439D02*
X61681Y-59274D01*
X61681Y-59274D02*
X61740Y-59116D01*
X61740Y-59116D02*
X61821Y-58968D01*
X61821Y-58968D02*
X61922Y-58833D01*
X61922Y-58833D02*
X62041Y-58714D01*
X62041Y-58714D02*
X62176Y-58613D01*
X62176Y-58613D02*
X62324Y-58532D01*
X62324Y-58532D02*
X62482Y-58473D01*
X62482Y-58473D02*
X62647Y-58438D01*
X62647Y-58438D02*
X62815Y-58426D01*
X62815Y-58426D02*
X64389Y-58426D01*
X64389Y-58426D02*
X64389Y-59607D01*
X64389Y-59607D02*
X64376Y-59812D01*
X64376Y-59812D02*
X64336Y-60014D01*
X64336Y-60014D02*
X64270Y-60209D01*
X64270Y-60209D02*
X64179Y-60394D01*
X64179Y-60394D02*
X64064Y-60565D01*
X64064Y-60565D02*
X63928Y-60720D01*
X63928Y-60720D02*
X63773Y-60856D01*
X63773Y-60856D02*
X63602Y-60971D01*
X63602Y-60971D02*
X63417Y-61062D01*
X63417Y-61062D02*
X63222Y-61128D01*
X63222Y-61128D02*
X63020Y-61168D01*
X63020Y-61168D02*
X62815Y-61181D01*
X62815Y-61181D02*
X61634Y-61181D01*
X61634Y-61181D02*
X61634Y-59607D01*
X61634Y-59607D02*
X61646Y-59439D01*
X61646Y-59439D02*
X61681Y-59274D01*
X61681Y-59274D02*
X61740Y-59116D01*
X61740Y-59116D02*
X61821Y-58968D01*
X61821Y-58968D02*
X61922Y-58833D01*
X61922Y-58833D02*
X62041Y-58714D01*
X62041Y-58714D02*
X62176Y-58613D01*
X62176Y-58613D02*
X62324Y-58532D01*
X62324Y-58532D02*
X62482Y-58473D01*
X62482Y-58473D02*
X62647Y-58438D01*
X62647Y-58438D02*
X62815Y-58426D01*
X62815Y-58426D02*
X64389Y-58426D01*
X64389Y-58426D02*
X64389Y-59607D01*
X64389Y-59607D02*
X64376Y-59812D01*
X64376Y-59812D02*
X64336Y-60014D01*
X64336Y-60014D02*
X64270Y-60209D01*
X64270Y-60209D02*
X64179Y-60394D01*
X64179Y-60394D02*
X64064Y-60565D01*
X64064Y-60565D02*
X63928Y-60720D01*
X63928Y-60720D02*
X63773Y-60856D01*
X63773Y-60856D02*
X63602Y-60971D01*
X63602Y-60971D02*
X63417Y-61062D01*
X63417Y-61062D02*
X63222Y-61128D01*
X63222Y-61128D02*
X63020Y-61168D01*
X63020Y-61168D02*
X62815Y-61181D01*
X62815Y-61181D02*
X61634Y-61181D01*
X61634Y-61181D02*
X61634Y-59607D01*
X61634Y-59607D02*
X61646Y-59439D01*
X61646Y-59439D02*
X61681Y-59274D01*
X61681Y-59274D02*
X61740Y-59116D01*
X61740Y-59116D02*
X61821Y-58968D01*
X61821Y-58968D02*
X61922Y-58833D01*
X61922Y-58833D02*
X62041Y-58714D01*
X62041Y-58714D02*
X62176Y-58613D01*
X62176Y-58613D02*
X62324Y-58532D01*
X62324Y-58532D02*
X62482Y-58473D01*
X62482Y-58473D02*
X62647Y-58438D01*
X62647Y-58438D02*
X62815Y-58426D01*
X62815Y-58426D02*
X64389Y-58426D01*
X64389Y-58426D02*
X64389Y-59607D01*
X64389Y-59607D02*
X64376Y-59812D01*
X64376Y-59812D02*
X64336Y-60014D01*
X64336Y-60014D02*
X64270Y-60209D01*
X64270Y-60209D02*
X64179Y-60394D01*
X64179Y-60394D02*
X64064Y-60565D01*
X64064Y-60565D02*
X63928Y-60720D01*
X63928Y-60720D02*
X63773Y-60856D01*
X63773Y-60856D02*
X63602Y-60971D01*
X63602Y-60971D02*
X63417Y-61062D01*
X63417Y-61062D02*
X63222Y-61128D01*
X63222Y-61128D02*
X63020Y-61168D01*
X63020Y-61168D02*
X62815Y-61181D01*
X62815Y-61181D02*
X61634Y-61181D01*
X64389Y-24567D02*
X62815Y-24567D01*
X62815Y-24567D02*
X62647Y-24555D01*
X62647Y-24555D02*
X62482Y-24519D01*
X62482Y-24519D02*
X62324Y-24461D01*
X62324Y-24461D02*
X62176Y-24380D01*
X62176Y-24380D02*
X62041Y-24279D01*
X62041Y-24279D02*
X61922Y-24160D01*
X61922Y-24160D02*
X61821Y-24025D01*
X61821Y-24025D02*
X61740Y-23877D01*
X61740Y-23877D02*
X61681Y-23719D01*
X61681Y-23719D02*
X61646Y-23554D01*
X61646Y-23554D02*
X61634Y-23386D01*
X61634Y-23386D02*
X61634Y-21811D01*
X61634Y-21811D02*
X62815Y-21811D01*
X62815Y-21811D02*
X63020Y-21825D01*
X63020Y-21825D02*
X63222Y-21865D01*
X63222Y-21865D02*
X63417Y-21931D01*
X63417Y-21931D02*
X63602Y-22022D01*
X63602Y-22022D02*
X63773Y-22137D01*
X63773Y-22137D02*
X63928Y-22273D01*
X63928Y-22273D02*
X64064Y-22428D01*
X64064Y-22428D02*
X64179Y-22599D01*
X64179Y-22599D02*
X64270Y-22784D01*
X64270Y-22784D02*
X64336Y-22979D01*
X64336Y-22979D02*
X64376Y-23181D01*
X64376Y-23181D02*
X64389Y-23386D01*
X64389Y-23386D02*
X64389Y-24567D01*
X64389Y-24567D02*
X62815Y-24567D01*
X62815Y-24567D02*
X62647Y-24555D01*
X62647Y-24555D02*
X62482Y-24519D01*
X62482Y-24519D02*
X62324Y-24461D01*
X62324Y-24461D02*
X62176Y-24380D01*
X62176Y-24380D02*
X62041Y-24279D01*
X62041Y-24279D02*
X61922Y-24160D01*
X61922Y-24160D02*
X61821Y-24025D01*
X61821Y-24025D02*
X61740Y-23877D01*
X61740Y-23877D02*
X61681Y-23719D01*
X61681Y-23719D02*
X61646Y-23554D01*
X61646Y-23554D02*
X61634Y-23386D01*
X61634Y-23386D02*
X61634Y-21811D01*
X61634Y-21811D02*
X62815Y-21811D01*
X62815Y-21811D02*
X63020Y-21825D01*
X63020Y-21825D02*
X63222Y-21865D01*
X63222Y-21865D02*
X63417Y-21931D01*
X63417Y-21931D02*
X63602Y-22022D01*
X63602Y-22022D02*
X63773Y-22137D01*
X63773Y-22137D02*
X63928Y-22273D01*
X63928Y-22273D02*
X64064Y-22428D01*
X64064Y-22428D02*
X64179Y-22599D01*
X64179Y-22599D02*
X64270Y-22784D01*
X64270Y-22784D02*
X64336Y-22979D01*
X64336Y-22979D02*
X64376Y-23181D01*
X64376Y-23181D02*
X64389Y-23386D01*
X64389Y-23386D02*
X64389Y-24567D01*
X64389Y-24567D02*
X62815Y-24567D01*
X62815Y-24567D02*
X62647Y-24555D01*
X62647Y-24555D02*
X62482Y-24519D01*
X62482Y-24519D02*
X62324Y-24461D01*
X62324Y-24461D02*
X62176Y-24380D01*
X62176Y-24380D02*
X62041Y-24279D01*
X62041Y-24279D02*
X61922Y-24160D01*
X61922Y-24160D02*
X61821Y-24025D01*
X61821Y-24025D02*
X61740Y-23877D01*
X61740Y-23877D02*
X61681Y-23719D01*
X61681Y-23719D02*
X61646Y-23554D01*
X61646Y-23554D02*
X61634Y-23386D01*
X61634Y-23386D02*
X61634Y-21811D01*
X61634Y-21811D02*
X62815Y-21811D01*
X62815Y-21811D02*
X63020Y-21825D01*
X63020Y-21825D02*
X63222Y-21865D01*
X63222Y-21865D02*
X63417Y-21931D01*
X63417Y-21931D02*
X63602Y-22022D01*
X63602Y-22022D02*
X63773Y-22137D01*
X63773Y-22137D02*
X63928Y-22273D01*
X63928Y-22273D02*
X64064Y-22428D01*
X64064Y-22428D02*
X64179Y-22599D01*
X64179Y-22599D02*
X64270Y-22784D01*
X64270Y-22784D02*
X64336Y-22979D01*
X64336Y-22979D02*
X64376Y-23181D01*
X64376Y-23181D02*
X64389Y-23386D01*
X64389Y-23386D02*
X64389Y-24567D01*
G54D12*
X63259Y-59607D02*
G75*
G03X63259Y-59607I-444J0D01*
G74*
G01*
X62815Y-60237D02*
X62815Y-58977D01*
X63445Y-59607D02*
X62185Y-59607D01*
X63259Y-23386D02*
G75*
G03X63259Y-23386I-444J0D01*
G74*
G01*
X62815Y-24016D02*
X62815Y-22756D01*
X63445Y-23386D02*
X62185Y-23386D01*
X34912Y-23386D02*
G75*
G03X34912Y-23386I-444J0D01*
G74*
G01*
X34468Y-24016D02*
X34468Y-22756D01*
X35098Y-23386D02*
X33838Y-23386D01*
X34912Y-59607D02*
G75*
G03X34912Y-59607I-444J0D01*
G74*
G01*
X34468Y-60237D02*
X34468Y-58977D01*
X35098Y-59607D02*
X33838Y-59607D01*
G54D11*
X62815Y-61181D02*
G75*
G03X64389Y-59607I0J1574D01*
G74*
G01*
X32894Y-59607D02*
G75*
G03X34468Y-61181I1574J0D01*
G74*
G01*
X34468Y-21811D02*
G75*
G03X32893Y-23386I0J-1575D01*
G74*
G01*
X64390Y-23386D02*
G75*
G03X62815Y-21811I-1575J0D01*
G74*
G01*
G54D13*
X33228Y-59607D02*
G75*
G03X34468Y-60847I1240J0D01*
G74*
G01*
X34468Y-22146D02*
G75*
G03X33228Y-23386I0J-1240D01*
G74*
G01*
X64055Y-23386D02*
G75*
G03X62815Y-22146I-1240J0D01*
G74*
G01*
X62815Y-60847D02*
G75*
G03X64055Y-59607I0J1240D01*
G74*
G01*
X34468Y-22146D02*
G75*
G03X33228Y-23386I0J-1240D01*
G74*
G01*
X64055Y-23386D02*
G75*
G03X62815Y-22146I-1240J0D01*
G74*
G01*
M02*
