G04 (created by PCBNEW (2013-mar-30)-stable) date Wed 12 Jun 2013 18:28:03 BST*
%MOIN*%
G04 Gerber Fmt 3.4, Leading zero omitted, Abs format*
%FSLAX34Y34*%
G01*
G70*
G90*
G04 APERTURE LIST*
%ADD10C,0*%
%ADD11C,0.00393701*%
%ADD12C,0.0039*%
%ADD13C,0.00590551*%
%ADD14C,0.006*%
%ADD15C,0.005*%
%ADD16C,0.008*%
%ADD17C,0.012*%
%ADD18C,0.0035*%
%ADD19C,0.003*%
%ADD20C,0.145984*%
%ADD21R,0.0947X0.0947*%
%ADD22R,0.0948X0.0947*%
%ADD23R,0.0907X0.0947*%
%ADD24R,0.1025X0.0829*%
%ADD25R,0.0357X0.073*%
%ADD26R,0.0790551X0.0829921*%
%ADD27R,0.08X0.08*%
%ADD28R,0.1144X0.0987*%
%ADD29C,0.08*%
%ADD30R,0.0594X0.0476*%
%ADD31C,0.075*%
%ADD32R,0.075X0.055*%
%ADD33R,0.055X0.075*%
G04 APERTURE END LIST*
G54D10*
G54D11*
X34468Y-21811D02*
G75*
G03X32893Y-23385I0J-1574D01*
G74*
G01*
X64389Y-23385D02*
G75*
G03X62814Y-21811I-1574J0D01*
G74*
G01*
X32893Y-59606D02*
G75*
G03X34468Y-61181I1574J0D01*
G74*
G01*
X62795Y-61181D02*
G75*
G03X64389Y-59625I19J1574D01*
G74*
G01*
X34468Y-21811D02*
X62815Y-21811D01*
X62815Y-61181D02*
X34468Y-61181D01*
X32894Y-59607D02*
X32894Y-23386D01*
X64390Y-23386D02*
X64390Y-59607D01*
G54D12*
X50216Y-21436D02*
X50216Y-21358D01*
X47066Y-21436D02*
X47066Y-21358D01*
X50216Y-23562D02*
X47066Y-23562D01*
X47066Y-23562D02*
X47066Y-21436D01*
X47066Y-21358D02*
X50216Y-21358D01*
X50216Y-21436D02*
X50216Y-23562D01*
G54D13*
X37549Y-55915D02*
X37549Y-54970D01*
X39015Y-55019D02*
X38188Y-55019D01*
X38188Y-55019D02*
X38188Y-55925D01*
X38188Y-55925D02*
X39015Y-55925D01*
X39015Y-55925D02*
X39015Y-55019D01*
X57627Y-55915D02*
X57627Y-54970D01*
X59094Y-55019D02*
X58267Y-55019D01*
X58267Y-55019D02*
X58267Y-55925D01*
X58267Y-55925D02*
X59094Y-55925D01*
X59094Y-55925D02*
X59094Y-55019D01*
X37549Y-49222D02*
X37549Y-48277D01*
X39015Y-48326D02*
X38188Y-48326D01*
X38188Y-48326D02*
X38188Y-49232D01*
X38188Y-49232D02*
X39015Y-49232D01*
X39015Y-49232D02*
X39015Y-48326D01*
X57627Y-49222D02*
X57627Y-48277D01*
X59094Y-48326D02*
X58267Y-48326D01*
X58267Y-48326D02*
X58267Y-49232D01*
X58267Y-49232D02*
X59094Y-49232D01*
X59094Y-49232D02*
X59094Y-48326D01*
X37549Y-42529D02*
X37549Y-41584D01*
X39015Y-41633D02*
X38188Y-41633D01*
X38188Y-41633D02*
X38188Y-42539D01*
X38188Y-42539D02*
X39015Y-42539D01*
X39015Y-42539D02*
X39015Y-41633D01*
X57627Y-42529D02*
X57627Y-41584D01*
X59094Y-41633D02*
X58267Y-41633D01*
X58267Y-41633D02*
X58267Y-42539D01*
X58267Y-42539D02*
X59094Y-42539D01*
X59094Y-42539D02*
X59094Y-41633D01*
X37549Y-35836D02*
X37549Y-34891D01*
X39015Y-34940D02*
X38188Y-34940D01*
X38188Y-34940D02*
X38188Y-35846D01*
X38188Y-35846D02*
X39015Y-35846D01*
X39015Y-35846D02*
X39015Y-34940D01*
X57627Y-35836D02*
X57627Y-34891D01*
X59094Y-34940D02*
X58267Y-34940D01*
X58267Y-34940D02*
X58267Y-35846D01*
X58267Y-35846D02*
X59094Y-35846D01*
X59094Y-35846D02*
X59094Y-34940D01*
X44369Y-26860D02*
X44369Y-25915D01*
X45836Y-25964D02*
X45009Y-25964D01*
X45009Y-25964D02*
X45009Y-26870D01*
X45009Y-26870D02*
X45836Y-26870D01*
X45836Y-26870D02*
X45836Y-25964D01*
G54D14*
X45185Y-23433D02*
X44185Y-23433D01*
X44185Y-22433D02*
X45185Y-22433D01*
X44185Y-23433D02*
X44185Y-22433D01*
X45185Y-22433D02*
X45185Y-23433D01*
G54D15*
X49374Y-30899D02*
X49374Y-29155D01*
X49524Y-29043D02*
X50544Y-29043D01*
X50632Y-29131D02*
X50632Y-30886D01*
X50508Y-31011D02*
X49524Y-31011D01*
X50514Y-29476D02*
X50514Y-30578D01*
X50239Y-30814D02*
X49689Y-30814D01*
X49492Y-30578D02*
X49492Y-29516D01*
X49728Y-29240D02*
X50278Y-29240D01*
X49374Y-30899D02*
G75*
G03X49525Y-31011I130J19D01*
G74*
G01*
X49525Y-29043D02*
G75*
G03X49374Y-29155I-19J-130D01*
G74*
G01*
X50632Y-29131D02*
G75*
G03X50544Y-29043I-88J0D01*
G74*
G01*
X50508Y-31010D02*
G75*
G03X50632Y-30886I0J124D01*
G74*
G01*
X50239Y-30814D02*
G75*
G03X50514Y-30578I19J256D01*
G74*
G01*
X49491Y-30578D02*
G75*
G03X49689Y-30814I217J-18D01*
G74*
G01*
X49728Y-29240D02*
G75*
G03X49492Y-29516I20J-255D01*
G74*
G01*
X50514Y-29476D02*
G75*
G03X50278Y-29240I-236J0D01*
G74*
G01*
G54D16*
X44177Y-24444D02*
X41177Y-24444D01*
X41177Y-22444D02*
X44177Y-22444D01*
X44177Y-22444D02*
X44177Y-24444D01*
X41177Y-24444D02*
X41177Y-22444D01*
G54D15*
X37622Y-30770D02*
X37422Y-31070D01*
X37622Y-30070D02*
X37622Y-31095D01*
X37622Y-31095D02*
X37022Y-31095D01*
X37022Y-31095D02*
X37022Y-30070D01*
X37022Y-30070D02*
X37622Y-30070D01*
X37622Y-28802D02*
X37422Y-29102D01*
X37622Y-28102D02*
X37622Y-29127D01*
X37622Y-29127D02*
X37022Y-29127D01*
X37022Y-29127D02*
X37022Y-28102D01*
X37022Y-28102D02*
X37622Y-28102D01*
X37622Y-24865D02*
X37422Y-25165D01*
X37622Y-24165D02*
X37622Y-25190D01*
X37622Y-25190D02*
X37022Y-25190D01*
X37022Y-25190D02*
X37022Y-24165D01*
X37022Y-24165D02*
X37622Y-24165D01*
X37622Y-26833D02*
X37422Y-27133D01*
X37622Y-26133D02*
X37622Y-27158D01*
X37622Y-27158D02*
X37022Y-27158D01*
X37022Y-27158D02*
X37022Y-26133D01*
X37022Y-26133D02*
X37622Y-26133D01*
G54D17*
X55817Y-27389D02*
X53031Y-30175D01*
X53031Y-30175D02*
X50245Y-27389D01*
X52897Y-24738D02*
X50245Y-27389D01*
X53165Y-24738D02*
X55817Y-27389D01*
X52897Y-24738D02*
X53165Y-24738D01*
G54D16*
X53281Y-25268D02*
G75*
G03X53281Y-25268I-250J0D01*
G74*
G01*
G54D13*
X50935Y-55915D02*
X50935Y-54970D01*
X52401Y-55019D02*
X51574Y-55019D01*
X51574Y-55019D02*
X51574Y-55925D01*
X51574Y-55925D02*
X52401Y-55925D01*
X52401Y-55925D02*
X52401Y-55019D01*
X50935Y-49222D02*
X50935Y-48277D01*
X52401Y-48326D02*
X51574Y-48326D01*
X51574Y-48326D02*
X51574Y-49232D01*
X51574Y-49232D02*
X52401Y-49232D01*
X52401Y-49232D02*
X52401Y-48326D01*
X50935Y-42529D02*
X50935Y-41584D01*
X52401Y-41633D02*
X51574Y-41633D01*
X51574Y-41633D02*
X51574Y-42539D01*
X51574Y-42539D02*
X52401Y-42539D01*
X52401Y-42539D02*
X52401Y-41633D01*
X50935Y-35836D02*
X50935Y-34891D01*
X52401Y-34940D02*
X51574Y-34940D01*
X51574Y-34940D02*
X51574Y-35846D01*
X51574Y-35846D02*
X52401Y-35846D01*
X52401Y-35846D02*
X52401Y-34940D01*
X44242Y-35836D02*
X44242Y-34891D01*
X45708Y-34940D02*
X44881Y-34940D01*
X44881Y-34940D02*
X44881Y-35846D01*
X44881Y-35846D02*
X45708Y-35846D01*
X45708Y-35846D02*
X45708Y-34940D01*
X44242Y-42529D02*
X44242Y-41584D01*
X45708Y-41633D02*
X44881Y-41633D01*
X44881Y-41633D02*
X44881Y-42539D01*
X44881Y-42539D02*
X45708Y-42539D01*
X45708Y-42539D02*
X45708Y-41633D01*
X44242Y-49222D02*
X44242Y-48277D01*
X45708Y-48326D02*
X44881Y-48326D01*
X44881Y-48326D02*
X44881Y-49232D01*
X44881Y-49232D02*
X45708Y-49232D01*
X45708Y-49232D02*
X45708Y-48326D01*
X44242Y-55915D02*
X44242Y-54970D01*
X45708Y-55019D02*
X44881Y-55019D01*
X44881Y-55019D02*
X44881Y-55925D01*
X44881Y-55925D02*
X45708Y-55925D01*
X45708Y-55925D02*
X45708Y-55019D01*
G54D15*
X58594Y-23148D02*
X57594Y-23148D01*
X58594Y-22348D02*
X57594Y-22348D01*
X58594Y-23148D02*
G75*
G03X58994Y-22748I0J400D01*
G74*
G01*
X58994Y-22748D02*
G75*
G03X58594Y-22348I-400J0D01*
G74*
G01*
X57194Y-22748D02*
G75*
G03X57594Y-23148I400J0D01*
G74*
G01*
X57594Y-22348D02*
G75*
G03X57194Y-22748I0J-400D01*
G74*
G01*
X39043Y-22359D02*
X40043Y-22359D01*
X39043Y-23159D02*
X40043Y-23159D01*
X39043Y-22359D02*
G75*
G03X38643Y-22759I0J-400D01*
G74*
G01*
X38643Y-22759D02*
G75*
G03X39043Y-23159I400J0D01*
G74*
G01*
X40443Y-22759D02*
G75*
G03X40043Y-22359I-400J0D01*
G74*
G01*
X40043Y-23159D02*
G75*
G03X40443Y-22759I0J400D01*
G74*
G01*
X48364Y-28238D02*
X48364Y-28638D01*
X48364Y-28638D02*
X47764Y-28638D01*
X47764Y-28638D02*
X47764Y-28238D01*
X47764Y-27838D02*
X47764Y-27438D01*
X47764Y-27438D02*
X48364Y-27438D01*
X48364Y-27438D02*
X48364Y-27838D01*
X52209Y-23959D02*
X52209Y-24359D01*
X52209Y-24359D02*
X51609Y-24359D01*
X51609Y-24359D02*
X51609Y-23959D01*
X51609Y-23559D02*
X51609Y-23159D01*
X51609Y-23159D02*
X52209Y-23159D01*
X52209Y-23159D02*
X52209Y-23559D01*
X53507Y-23217D02*
X53507Y-22817D01*
X53507Y-22817D02*
X54107Y-22817D01*
X54107Y-22817D02*
X54107Y-23217D01*
X54107Y-23617D02*
X54107Y-24017D01*
X54107Y-24017D02*
X53507Y-24017D01*
X53507Y-24017D02*
X53507Y-23617D01*
X60644Y-28992D02*
X60644Y-28592D01*
X60644Y-28592D02*
X61244Y-28592D01*
X61244Y-28592D02*
X61244Y-28992D01*
X61244Y-29392D02*
X61244Y-29792D01*
X61244Y-29792D02*
X60644Y-29792D01*
X60644Y-29792D02*
X60644Y-29392D01*
X37621Y-29286D02*
X38021Y-29286D01*
X38021Y-29286D02*
X38021Y-29886D01*
X38021Y-29886D02*
X37621Y-29886D01*
X37221Y-29886D02*
X36821Y-29886D01*
X36821Y-29886D02*
X36821Y-29286D01*
X36821Y-29286D02*
X37221Y-29286D01*
X49732Y-25650D02*
X50015Y-25367D01*
X50015Y-25367D02*
X50439Y-25791D01*
X50439Y-25791D02*
X50156Y-26074D01*
X49873Y-26357D02*
X49591Y-26640D01*
X49591Y-26640D02*
X49166Y-26216D01*
X49166Y-26216D02*
X49449Y-25933D01*
X51481Y-23959D02*
X51481Y-24359D01*
X51481Y-24359D02*
X50881Y-24359D01*
X50881Y-24359D02*
X50881Y-23959D01*
X50881Y-23559D02*
X50881Y-23159D01*
X50881Y-23159D02*
X51481Y-23159D01*
X51481Y-23159D02*
X51481Y-23559D01*
X48814Y-30511D02*
X49214Y-30511D01*
X49214Y-30511D02*
X49214Y-31111D01*
X49214Y-31111D02*
X48814Y-31111D01*
X48414Y-31111D02*
X48014Y-31111D01*
X48014Y-31111D02*
X48014Y-30511D01*
X48014Y-30511D02*
X48414Y-30511D01*
X45579Y-25740D02*
X45179Y-25740D01*
X45179Y-25740D02*
X45179Y-25140D01*
X45179Y-25140D02*
X45579Y-25140D01*
X45979Y-25140D02*
X46379Y-25140D01*
X46379Y-25140D02*
X46379Y-25740D01*
X46379Y-25740D02*
X45979Y-25740D01*
X53193Y-23684D02*
X53193Y-24084D01*
X53193Y-24084D02*
X52593Y-24084D01*
X52593Y-24084D02*
X52593Y-23684D01*
X52593Y-23284D02*
X52593Y-22884D01*
X52593Y-22884D02*
X53193Y-22884D01*
X53193Y-22884D02*
X53193Y-23284D01*
X59276Y-28014D02*
X59276Y-28414D01*
X59276Y-28414D02*
X58676Y-28414D01*
X58676Y-28414D02*
X58676Y-28014D01*
X58676Y-27614D02*
X58676Y-27214D01*
X58676Y-27214D02*
X59276Y-27214D01*
X59276Y-27214D02*
X59276Y-27614D01*
X58292Y-28014D02*
X58292Y-28414D01*
X58292Y-28414D02*
X57692Y-28414D01*
X57692Y-28414D02*
X57692Y-28014D01*
X57692Y-27614D02*
X57692Y-27214D01*
X57692Y-27214D02*
X58292Y-27214D01*
X58292Y-27214D02*
X58292Y-27614D01*
X55436Y-29833D02*
X55836Y-29833D01*
X55836Y-29833D02*
X55836Y-30433D01*
X55836Y-30433D02*
X55436Y-30433D01*
X55036Y-30433D02*
X54636Y-30433D01*
X54636Y-30433D02*
X54636Y-29833D01*
X54636Y-29833D02*
X55036Y-29833D01*
X36398Y-24904D02*
X36398Y-25304D01*
X36398Y-25304D02*
X35798Y-25304D01*
X35798Y-25304D02*
X35798Y-24904D01*
X35798Y-24504D02*
X35798Y-24104D01*
X35798Y-24104D02*
X36398Y-24104D01*
X36398Y-24104D02*
X36398Y-24504D01*
X58676Y-28992D02*
X58676Y-28592D01*
X58676Y-28592D02*
X59276Y-28592D01*
X59276Y-28592D02*
X59276Y-28992D01*
X59276Y-29392D02*
X59276Y-29792D01*
X59276Y-29792D02*
X58676Y-29792D01*
X58676Y-29792D02*
X58676Y-29392D01*
X58292Y-26637D02*
X58292Y-27037D01*
X58292Y-27037D02*
X57692Y-27037D01*
X57692Y-27037D02*
X57692Y-26637D01*
X57692Y-26237D02*
X57692Y-25837D01*
X57692Y-25837D02*
X58292Y-25837D01*
X58292Y-25837D02*
X58292Y-26237D01*
X49164Y-28238D02*
X49164Y-28638D01*
X49164Y-28638D02*
X48564Y-28638D01*
X48564Y-28638D02*
X48564Y-28238D01*
X48564Y-27838D02*
X48564Y-27438D01*
X48564Y-27438D02*
X49164Y-27438D01*
X49164Y-27438D02*
X49164Y-27838D01*
X60260Y-26637D02*
X60260Y-27037D01*
X60260Y-27037D02*
X59660Y-27037D01*
X59660Y-27037D02*
X59660Y-26637D01*
X59660Y-26237D02*
X59660Y-25837D01*
X59660Y-25837D02*
X60260Y-25837D01*
X60260Y-25837D02*
X60260Y-26237D01*
X57692Y-28992D02*
X57692Y-28592D01*
X57692Y-28592D02*
X58292Y-28592D01*
X58292Y-28592D02*
X58292Y-28992D01*
X58292Y-29392D02*
X58292Y-29792D01*
X58292Y-29792D02*
X57692Y-29792D01*
X57692Y-29792D02*
X57692Y-29392D01*
X36343Y-30672D02*
X36343Y-31072D01*
X36343Y-31072D02*
X35743Y-31072D01*
X35743Y-31072D02*
X35743Y-30672D01*
X35743Y-30272D02*
X35743Y-29872D01*
X35743Y-29872D02*
X36343Y-29872D01*
X36343Y-29872D02*
X36343Y-30272D01*
X48029Y-26099D02*
X47629Y-26099D01*
X47629Y-26099D02*
X47629Y-25499D01*
X47629Y-25499D02*
X48029Y-25499D01*
X48429Y-25499D02*
X48829Y-25499D01*
X48829Y-25499D02*
X48829Y-26099D01*
X48829Y-26099D02*
X48429Y-26099D01*
X44601Y-25140D02*
X45001Y-25140D01*
X45001Y-25140D02*
X45001Y-25740D01*
X45001Y-25740D02*
X44601Y-25740D01*
X44201Y-25740D02*
X43801Y-25740D01*
X43801Y-25740D02*
X43801Y-25140D01*
X43801Y-25140D02*
X44201Y-25140D01*
X36343Y-28802D02*
X36343Y-29202D01*
X36343Y-29202D02*
X35743Y-29202D01*
X35743Y-29202D02*
X35743Y-28802D01*
X35743Y-28402D02*
X35743Y-28002D01*
X35743Y-28002D02*
X36343Y-28002D01*
X36343Y-28002D02*
X36343Y-28402D01*
X59660Y-28992D02*
X59660Y-28592D01*
X59660Y-28592D02*
X60260Y-28592D01*
X60260Y-28592D02*
X60260Y-28992D01*
X60260Y-29392D02*
X60260Y-29792D01*
X60260Y-29792D02*
X59660Y-29792D01*
X59660Y-29792D02*
X59660Y-29392D01*
X59276Y-26637D02*
X59276Y-27037D01*
X59276Y-27037D02*
X58676Y-27037D01*
X58676Y-27037D02*
X58676Y-26637D01*
X58676Y-26237D02*
X58676Y-25837D01*
X58676Y-25837D02*
X59276Y-25837D01*
X59276Y-25837D02*
X59276Y-26237D01*
X36343Y-26833D02*
X36343Y-27233D01*
X36343Y-27233D02*
X35743Y-27233D01*
X35743Y-27233D02*
X35743Y-26833D01*
X35743Y-26433D02*
X35743Y-26033D01*
X35743Y-26033D02*
X36343Y-26033D01*
X36343Y-26033D02*
X36343Y-26433D01*
X53959Y-41786D02*
X54359Y-41786D01*
X54359Y-41786D02*
X54359Y-42386D01*
X54359Y-42386D02*
X53959Y-42386D01*
X53559Y-42386D02*
X53159Y-42386D01*
X53159Y-42386D02*
X53159Y-41786D01*
X53159Y-41786D02*
X53559Y-41786D01*
X40574Y-35093D02*
X40974Y-35093D01*
X40974Y-35093D02*
X40974Y-35693D01*
X40974Y-35693D02*
X40574Y-35693D01*
X40174Y-35693D02*
X39774Y-35693D01*
X39774Y-35693D02*
X39774Y-35093D01*
X39774Y-35093D02*
X40174Y-35093D01*
X47266Y-41786D02*
X47666Y-41786D01*
X47666Y-41786D02*
X47666Y-42386D01*
X47666Y-42386D02*
X47266Y-42386D01*
X46866Y-42386D02*
X46466Y-42386D01*
X46466Y-42386D02*
X46466Y-41786D01*
X46466Y-41786D02*
X46866Y-41786D01*
X53959Y-35093D02*
X54359Y-35093D01*
X54359Y-35093D02*
X54359Y-35693D01*
X54359Y-35693D02*
X53959Y-35693D01*
X53559Y-35693D02*
X53159Y-35693D01*
X53159Y-35693D02*
X53159Y-35093D01*
X53159Y-35093D02*
X53559Y-35093D01*
X60652Y-41786D02*
X61052Y-41786D01*
X61052Y-41786D02*
X61052Y-42386D01*
X61052Y-42386D02*
X60652Y-42386D01*
X60252Y-42386D02*
X59852Y-42386D01*
X59852Y-42386D02*
X59852Y-41786D01*
X59852Y-41786D02*
X60252Y-41786D01*
X60652Y-35093D02*
X61052Y-35093D01*
X61052Y-35093D02*
X61052Y-35693D01*
X61052Y-35693D02*
X60652Y-35693D01*
X60252Y-35693D02*
X59852Y-35693D01*
X59852Y-35693D02*
X59852Y-35093D01*
X59852Y-35093D02*
X60252Y-35093D01*
X38999Y-30664D02*
X39399Y-30664D01*
X39399Y-30664D02*
X39399Y-31264D01*
X39399Y-31264D02*
X38999Y-31264D01*
X38599Y-31264D02*
X38199Y-31264D01*
X38199Y-31264D02*
X38199Y-30664D01*
X38199Y-30664D02*
X38599Y-30664D01*
X47266Y-35093D02*
X47666Y-35093D01*
X47666Y-35093D02*
X47666Y-35693D01*
X47666Y-35693D02*
X47266Y-35693D01*
X46866Y-35693D02*
X46466Y-35693D01*
X46466Y-35693D02*
X46466Y-35093D01*
X46466Y-35093D02*
X46866Y-35093D01*
X37621Y-27318D02*
X38021Y-27318D01*
X38021Y-27318D02*
X38021Y-27918D01*
X38021Y-27918D02*
X37621Y-27918D01*
X37221Y-27918D02*
X36821Y-27918D01*
X36821Y-27918D02*
X36821Y-27318D01*
X36821Y-27318D02*
X37221Y-27318D01*
X54290Y-23603D02*
X54290Y-23203D01*
X54290Y-23203D02*
X54890Y-23203D01*
X54890Y-23203D02*
X54890Y-23603D01*
X54890Y-24003D02*
X54890Y-24403D01*
X54890Y-24403D02*
X54290Y-24403D01*
X54290Y-24403D02*
X54290Y-24003D01*
X38999Y-28696D02*
X39399Y-28696D01*
X39399Y-28696D02*
X39399Y-29296D01*
X39399Y-29296D02*
X38999Y-29296D01*
X38599Y-29296D02*
X38199Y-29296D01*
X38199Y-29296D02*
X38199Y-28696D01*
X38199Y-28696D02*
X38599Y-28696D01*
X60652Y-55172D02*
X61052Y-55172D01*
X61052Y-55172D02*
X61052Y-55772D01*
X61052Y-55772D02*
X60652Y-55772D01*
X60252Y-55772D02*
X59852Y-55772D01*
X59852Y-55772D02*
X59852Y-55172D01*
X59852Y-55172D02*
X60252Y-55172D01*
X40574Y-48479D02*
X40974Y-48479D01*
X40974Y-48479D02*
X40974Y-49079D01*
X40974Y-49079D02*
X40574Y-49079D01*
X40174Y-49079D02*
X39774Y-49079D01*
X39774Y-49079D02*
X39774Y-48479D01*
X39774Y-48479D02*
X40174Y-48479D01*
X53959Y-55172D02*
X54359Y-55172D01*
X54359Y-55172D02*
X54359Y-55772D01*
X54359Y-55772D02*
X53959Y-55772D01*
X53559Y-55772D02*
X53159Y-55772D01*
X53159Y-55772D02*
X53159Y-55172D01*
X53159Y-55172D02*
X53559Y-55172D01*
X47266Y-48479D02*
X47666Y-48479D01*
X47666Y-48479D02*
X47666Y-49079D01*
X47666Y-49079D02*
X47266Y-49079D01*
X46866Y-49079D02*
X46466Y-49079D01*
X46466Y-49079D02*
X46466Y-48479D01*
X46466Y-48479D02*
X46866Y-48479D01*
X53959Y-48479D02*
X54359Y-48479D01*
X54359Y-48479D02*
X54359Y-49079D01*
X54359Y-49079D02*
X53959Y-49079D01*
X53559Y-49079D02*
X53159Y-49079D01*
X53159Y-49079D02*
X53159Y-48479D01*
X53159Y-48479D02*
X53559Y-48479D01*
X60652Y-48479D02*
X61052Y-48479D01*
X61052Y-48479D02*
X61052Y-49079D01*
X61052Y-49079D02*
X60652Y-49079D01*
X60252Y-49079D02*
X59852Y-49079D01*
X59852Y-49079D02*
X59852Y-48479D01*
X59852Y-48479D02*
X60252Y-48479D01*
X47266Y-55172D02*
X47666Y-55172D01*
X47666Y-55172D02*
X47666Y-55772D01*
X47666Y-55772D02*
X47266Y-55772D01*
X46866Y-55772D02*
X46466Y-55772D01*
X46466Y-55772D02*
X46466Y-55172D01*
X46466Y-55172D02*
X46866Y-55172D01*
X40574Y-41786D02*
X40974Y-41786D01*
X40974Y-41786D02*
X40974Y-42386D01*
X40974Y-42386D02*
X40574Y-42386D01*
X40174Y-42386D02*
X39774Y-42386D01*
X39774Y-42386D02*
X39774Y-41786D01*
X39774Y-41786D02*
X40174Y-41786D01*
X40574Y-55172D02*
X40974Y-55172D01*
X40974Y-55172D02*
X40974Y-55772D01*
X40974Y-55772D02*
X40574Y-55772D01*
X40174Y-55772D02*
X39774Y-55772D01*
X39774Y-55772D02*
X39774Y-55172D01*
X39774Y-55172D02*
X40174Y-55172D01*
X38603Y-30488D02*
X38203Y-30488D01*
X38203Y-30488D02*
X38203Y-29888D01*
X38203Y-29888D02*
X38603Y-29888D01*
X39003Y-29888D02*
X39403Y-29888D01*
X39403Y-29888D02*
X39403Y-30488D01*
X39403Y-30488D02*
X39003Y-30488D01*
X38607Y-28504D02*
X38207Y-28504D01*
X38207Y-28504D02*
X38207Y-27904D01*
X38207Y-27904D02*
X38607Y-27904D01*
X39007Y-27904D02*
X39407Y-27904D01*
X39407Y-27904D02*
X39407Y-28504D01*
X39407Y-28504D02*
X39007Y-28504D01*
X38999Y-26727D02*
X39399Y-26727D01*
X39399Y-26727D02*
X39399Y-27327D01*
X39399Y-27327D02*
X38999Y-27327D01*
X38599Y-27327D02*
X38199Y-27327D01*
X38199Y-27327D02*
X38199Y-26727D01*
X38199Y-26727D02*
X38599Y-26727D01*
X38599Y-26548D02*
X38199Y-26548D01*
X38199Y-26548D02*
X38199Y-25948D01*
X38199Y-25948D02*
X38599Y-25948D01*
X38999Y-25948D02*
X39399Y-25948D01*
X39399Y-25948D02*
X39399Y-26548D01*
X39399Y-26548D02*
X38999Y-26548D01*
X39097Y-24857D02*
X39497Y-24857D01*
X39497Y-24857D02*
X39497Y-25457D01*
X39497Y-25457D02*
X39097Y-25457D01*
X38697Y-25457D02*
X38297Y-25457D01*
X38297Y-25457D02*
X38297Y-24857D01*
X38297Y-24857D02*
X38697Y-24857D01*
X38697Y-24670D02*
X38297Y-24670D01*
X38297Y-24670D02*
X38297Y-24070D01*
X38297Y-24070D02*
X38697Y-24070D01*
X39097Y-24070D02*
X39497Y-24070D01*
X39497Y-24070D02*
X39497Y-24670D01*
X39497Y-24670D02*
X39097Y-24670D01*
X48029Y-25399D02*
X47629Y-25399D01*
X47629Y-25399D02*
X47629Y-24799D01*
X47629Y-24799D02*
X48029Y-24799D01*
X48429Y-24799D02*
X48829Y-24799D01*
X48829Y-24799D02*
X48829Y-25399D01*
X48829Y-25399D02*
X48429Y-25399D01*
X37621Y-23381D02*
X38021Y-23381D01*
X38021Y-23381D02*
X38021Y-23981D01*
X38021Y-23981D02*
X37621Y-23981D01*
X37221Y-23981D02*
X36821Y-23981D01*
X36821Y-23981D02*
X36821Y-23381D01*
X36821Y-23381D02*
X37221Y-23381D01*
X37621Y-25349D02*
X38021Y-25349D01*
X38021Y-25349D02*
X38021Y-25949D01*
X38021Y-25949D02*
X37621Y-25949D01*
X37221Y-25949D02*
X36821Y-25949D01*
X36821Y-25949D02*
X36821Y-25349D01*
X36821Y-25349D02*
X37221Y-25349D01*
X61244Y-28014D02*
X61244Y-28414D01*
X61244Y-28414D02*
X60644Y-28414D01*
X60644Y-28414D02*
X60644Y-28014D01*
X60644Y-27614D02*
X60644Y-27214D01*
X60644Y-27214D02*
X61244Y-27214D01*
X61244Y-27214D02*
X61244Y-27614D01*
X61244Y-26637D02*
X61244Y-27037D01*
X61244Y-27037D02*
X60644Y-27037D01*
X60644Y-27037D02*
X60644Y-26637D01*
X60644Y-26237D02*
X60644Y-25837D01*
X60644Y-25837D02*
X61244Y-25837D01*
X61244Y-25837D02*
X61244Y-26237D01*
X60260Y-28014D02*
X60260Y-28414D01*
X60260Y-28414D02*
X59660Y-28414D01*
X59660Y-28414D02*
X59660Y-28014D01*
X59660Y-27614D02*
X59660Y-27214D01*
X59660Y-27214D02*
X60260Y-27214D01*
X60260Y-27214D02*
X60260Y-27614D01*
X54144Y-30609D02*
X54544Y-30609D01*
X54544Y-30609D02*
X54544Y-31209D01*
X54544Y-31209D02*
X54144Y-31209D01*
X53744Y-31209D02*
X53344Y-31209D01*
X53344Y-31209D02*
X53344Y-30609D01*
X53344Y-30609D02*
X53744Y-30609D01*
X48810Y-28892D02*
X49210Y-28892D01*
X49210Y-28892D02*
X49210Y-29492D01*
X49210Y-29492D02*
X48810Y-29492D01*
X48410Y-29492D02*
X48010Y-29492D01*
X48010Y-29492D02*
X48010Y-28892D01*
X48010Y-28892D02*
X48410Y-28892D01*
X56864Y-26438D02*
X56864Y-26038D01*
X56864Y-26038D02*
X57464Y-26038D01*
X57464Y-26038D02*
X57464Y-26438D01*
X57464Y-26838D02*
X57464Y-27238D01*
X57464Y-27238D02*
X56864Y-27238D01*
X56864Y-27238D02*
X56864Y-26838D01*
X56164Y-27238D02*
X56164Y-26838D01*
X56164Y-26838D02*
X56764Y-26838D01*
X56764Y-26838D02*
X56764Y-27238D01*
X56764Y-27638D02*
X56764Y-28038D01*
X56764Y-28038D02*
X56164Y-28038D01*
X56164Y-28038D02*
X56164Y-27638D01*
X49399Y-24108D02*
X49385Y-24122D01*
X49342Y-24137D01*
X49313Y-24137D01*
X49270Y-24122D01*
X49242Y-24094D01*
X49228Y-24065D01*
X49213Y-24008D01*
X49213Y-23965D01*
X49228Y-23908D01*
X49242Y-23880D01*
X49270Y-23851D01*
X49313Y-23837D01*
X49342Y-23837D01*
X49385Y-23851D01*
X49399Y-23865D01*
X49585Y-23837D02*
X49642Y-23837D01*
X49670Y-23851D01*
X49699Y-23880D01*
X49713Y-23937D01*
X49713Y-24037D01*
X49699Y-24094D01*
X49670Y-24122D01*
X49642Y-24137D01*
X49585Y-24137D01*
X49556Y-24122D01*
X49528Y-24094D01*
X49513Y-24037D01*
X49513Y-23937D01*
X49528Y-23880D01*
X49556Y-23851D01*
X49585Y-23837D01*
X49842Y-24137D02*
X49842Y-23837D01*
X50013Y-24137D01*
X50013Y-23837D01*
X50313Y-24137D02*
X50142Y-24137D01*
X50228Y-24137D02*
X50228Y-23837D01*
X50199Y-23880D01*
X50170Y-23908D01*
X50142Y-23922D01*
X46222Y-23797D02*
X46222Y-24040D01*
X46236Y-24069D01*
X46250Y-24083D01*
X46279Y-24097D01*
X46336Y-24097D01*
X46365Y-24083D01*
X46379Y-24069D01*
X46393Y-24040D01*
X46393Y-23797D01*
X46522Y-24083D02*
X46565Y-24097D01*
X46636Y-24097D01*
X46665Y-24083D01*
X46679Y-24069D01*
X46693Y-24040D01*
X46693Y-24012D01*
X46679Y-23983D01*
X46665Y-23969D01*
X46636Y-23954D01*
X46579Y-23940D01*
X46550Y-23926D01*
X46536Y-23912D01*
X46522Y-23883D01*
X46522Y-23854D01*
X46536Y-23826D01*
X46550Y-23812D01*
X46579Y-23797D01*
X46650Y-23797D01*
X46693Y-23812D01*
X46922Y-23940D02*
X46965Y-23954D01*
X46979Y-23969D01*
X46993Y-23997D01*
X46993Y-24040D01*
X46979Y-24069D01*
X46965Y-24083D01*
X46936Y-24097D01*
X46822Y-24097D01*
X46822Y-23797D01*
X46922Y-23797D01*
X46950Y-23812D01*
X46965Y-23826D01*
X46979Y-23854D01*
X46979Y-23883D01*
X46965Y-23912D01*
X46950Y-23926D01*
X46922Y-23940D01*
X46822Y-23940D01*
X47050Y-24126D02*
X47279Y-24126D01*
X47336Y-23826D02*
X47350Y-23812D01*
X47379Y-23797D01*
X47450Y-23797D01*
X47479Y-23812D01*
X47493Y-23826D01*
X47507Y-23854D01*
X47507Y-23883D01*
X47493Y-23926D01*
X47322Y-24097D01*
X47507Y-24097D01*
X47736Y-23940D02*
X47779Y-23954D01*
X47793Y-23969D01*
X47807Y-23997D01*
X47807Y-24040D01*
X47793Y-24069D01*
X47779Y-24083D01*
X47750Y-24097D01*
X47636Y-24097D01*
X47636Y-23797D01*
X47736Y-23797D01*
X47765Y-23812D01*
X47779Y-23826D01*
X47793Y-23854D01*
X47793Y-23883D01*
X47779Y-23912D01*
X47765Y-23926D01*
X47736Y-23940D01*
X47636Y-23940D01*
G54D17*
X37863Y-54612D02*
X37863Y-54012D01*
X38006Y-54012D01*
X38092Y-54041D01*
X38149Y-54098D01*
X38178Y-54155D01*
X38206Y-54270D01*
X38206Y-54355D01*
X38178Y-54470D01*
X38149Y-54527D01*
X38092Y-54584D01*
X38006Y-54612D01*
X37863Y-54612D01*
X38778Y-54612D02*
X38435Y-54612D01*
X38606Y-54612D02*
X38606Y-54012D01*
X38549Y-54098D01*
X38492Y-54155D01*
X38435Y-54184D01*
X38978Y-54012D02*
X39378Y-54012D01*
X39121Y-54612D01*
X38246Y-56857D02*
X37960Y-56857D01*
X37960Y-56257D01*
X38446Y-56542D02*
X38646Y-56542D01*
X38731Y-56857D02*
X38446Y-56857D01*
X38446Y-56257D01*
X38731Y-56257D01*
X38989Y-56857D02*
X38989Y-56257D01*
X39131Y-56257D01*
X39217Y-56285D01*
X39274Y-56342D01*
X39303Y-56399D01*
X39331Y-56514D01*
X39331Y-56599D01*
X39303Y-56714D01*
X39274Y-56771D01*
X39217Y-56828D01*
X39131Y-56857D01*
X38989Y-56857D01*
X57942Y-54612D02*
X57942Y-54012D01*
X58085Y-54012D01*
X58171Y-54041D01*
X58228Y-54098D01*
X58256Y-54155D01*
X58285Y-54270D01*
X58285Y-54355D01*
X58256Y-54470D01*
X58228Y-54527D01*
X58171Y-54584D01*
X58085Y-54612D01*
X57942Y-54612D01*
X58856Y-54612D02*
X58514Y-54612D01*
X58685Y-54612D02*
X58685Y-54012D01*
X58628Y-54098D01*
X58571Y-54155D01*
X58514Y-54184D01*
X59371Y-54212D02*
X59371Y-54612D01*
X59228Y-53984D02*
X59085Y-54412D01*
X59456Y-54412D01*
X58324Y-56857D02*
X58039Y-56857D01*
X58039Y-56257D01*
X58524Y-56542D02*
X58724Y-56542D01*
X58810Y-56857D02*
X58524Y-56857D01*
X58524Y-56257D01*
X58810Y-56257D01*
X59067Y-56857D02*
X59067Y-56257D01*
X59210Y-56257D01*
X59296Y-56285D01*
X59353Y-56342D01*
X59382Y-56399D01*
X59410Y-56514D01*
X59410Y-56599D01*
X59382Y-56714D01*
X59353Y-56771D01*
X59296Y-56828D01*
X59210Y-56857D01*
X59067Y-56857D01*
X37863Y-47920D02*
X37863Y-47320D01*
X38006Y-47320D01*
X38092Y-47348D01*
X38149Y-47405D01*
X38178Y-47462D01*
X38206Y-47577D01*
X38206Y-47662D01*
X38178Y-47777D01*
X38149Y-47834D01*
X38092Y-47891D01*
X38006Y-47920D01*
X37863Y-47920D01*
X38778Y-47920D02*
X38435Y-47920D01*
X38606Y-47920D02*
X38606Y-47320D01*
X38549Y-47405D01*
X38492Y-47462D01*
X38435Y-47491D01*
X38978Y-47320D02*
X39349Y-47320D01*
X39149Y-47548D01*
X39235Y-47548D01*
X39292Y-47577D01*
X39321Y-47605D01*
X39349Y-47662D01*
X39349Y-47805D01*
X39321Y-47862D01*
X39292Y-47891D01*
X39235Y-47920D01*
X39063Y-47920D01*
X39006Y-47891D01*
X38978Y-47862D01*
X38246Y-50164D02*
X37960Y-50164D01*
X37960Y-49564D01*
X38446Y-49849D02*
X38646Y-49849D01*
X38731Y-50164D02*
X38446Y-50164D01*
X38446Y-49564D01*
X38731Y-49564D01*
X38989Y-50164D02*
X38989Y-49564D01*
X39131Y-49564D01*
X39217Y-49592D01*
X39274Y-49649D01*
X39303Y-49706D01*
X39331Y-49821D01*
X39331Y-49906D01*
X39303Y-50021D01*
X39274Y-50078D01*
X39217Y-50135D01*
X39131Y-50164D01*
X38989Y-50164D01*
X57942Y-47920D02*
X57942Y-47320D01*
X58085Y-47320D01*
X58171Y-47348D01*
X58228Y-47405D01*
X58256Y-47462D01*
X58285Y-47577D01*
X58285Y-47662D01*
X58256Y-47777D01*
X58228Y-47834D01*
X58171Y-47891D01*
X58085Y-47920D01*
X57942Y-47920D01*
X58856Y-47920D02*
X58514Y-47920D01*
X58685Y-47920D02*
X58685Y-47320D01*
X58628Y-47405D01*
X58571Y-47462D01*
X58514Y-47491D01*
X59228Y-47320D02*
X59285Y-47320D01*
X59342Y-47348D01*
X59371Y-47377D01*
X59399Y-47434D01*
X59428Y-47548D01*
X59428Y-47691D01*
X59399Y-47805D01*
X59371Y-47862D01*
X59342Y-47891D01*
X59285Y-47920D01*
X59228Y-47920D01*
X59171Y-47891D01*
X59142Y-47862D01*
X59114Y-47805D01*
X59085Y-47691D01*
X59085Y-47548D01*
X59114Y-47434D01*
X59142Y-47377D01*
X59171Y-47348D01*
X59228Y-47320D01*
X58324Y-50164D02*
X58039Y-50164D01*
X58039Y-49564D01*
X58524Y-49849D02*
X58724Y-49849D01*
X58810Y-50164D02*
X58524Y-50164D01*
X58524Y-49564D01*
X58810Y-49564D01*
X59067Y-50164D02*
X59067Y-49564D01*
X59210Y-49564D01*
X59296Y-49592D01*
X59353Y-49649D01*
X59382Y-49706D01*
X59410Y-49821D01*
X59410Y-49906D01*
X59382Y-50021D01*
X59353Y-50078D01*
X59296Y-50135D01*
X59210Y-50164D01*
X59067Y-50164D01*
X38149Y-41227D02*
X38149Y-40627D01*
X38292Y-40627D01*
X38378Y-40655D01*
X38435Y-40712D01*
X38463Y-40769D01*
X38492Y-40884D01*
X38492Y-40969D01*
X38463Y-41084D01*
X38435Y-41141D01*
X38378Y-41198D01*
X38292Y-41227D01*
X38149Y-41227D01*
X38778Y-41227D02*
X38892Y-41227D01*
X38949Y-41198D01*
X38978Y-41169D01*
X39035Y-41084D01*
X39063Y-40969D01*
X39063Y-40741D01*
X39035Y-40684D01*
X39006Y-40655D01*
X38949Y-40627D01*
X38835Y-40627D01*
X38778Y-40655D01*
X38749Y-40684D01*
X38721Y-40741D01*
X38721Y-40884D01*
X38749Y-40941D01*
X38778Y-40969D01*
X38835Y-40998D01*
X38949Y-40998D01*
X39006Y-40969D01*
X39035Y-40941D01*
X39063Y-40884D01*
X38246Y-43471D02*
X37960Y-43471D01*
X37960Y-42871D01*
X38446Y-43156D02*
X38646Y-43156D01*
X38731Y-43471D02*
X38446Y-43471D01*
X38446Y-42871D01*
X38731Y-42871D01*
X38989Y-43471D02*
X38989Y-42871D01*
X39131Y-42871D01*
X39217Y-42899D01*
X39274Y-42956D01*
X39303Y-43014D01*
X39331Y-43128D01*
X39331Y-43214D01*
X39303Y-43328D01*
X39274Y-43385D01*
X39217Y-43442D01*
X39131Y-43471D01*
X38989Y-43471D01*
X58228Y-41227D02*
X58228Y-40627D01*
X58371Y-40627D01*
X58456Y-40655D01*
X58514Y-40712D01*
X58542Y-40769D01*
X58571Y-40884D01*
X58571Y-40969D01*
X58542Y-41084D01*
X58514Y-41141D01*
X58456Y-41198D01*
X58371Y-41227D01*
X58228Y-41227D01*
X59085Y-40627D02*
X58971Y-40627D01*
X58914Y-40655D01*
X58885Y-40684D01*
X58828Y-40769D01*
X58799Y-40884D01*
X58799Y-41112D01*
X58828Y-41169D01*
X58856Y-41198D01*
X58914Y-41227D01*
X59028Y-41227D01*
X59085Y-41198D01*
X59114Y-41169D01*
X59142Y-41112D01*
X59142Y-40969D01*
X59114Y-40912D01*
X59085Y-40884D01*
X59028Y-40855D01*
X58914Y-40855D01*
X58856Y-40884D01*
X58828Y-40912D01*
X58799Y-40969D01*
X58324Y-43471D02*
X58039Y-43471D01*
X58039Y-42871D01*
X58524Y-43156D02*
X58724Y-43156D01*
X58810Y-43471D02*
X58524Y-43471D01*
X58524Y-42871D01*
X58810Y-42871D01*
X59067Y-43471D02*
X59067Y-42871D01*
X59210Y-42871D01*
X59296Y-42899D01*
X59353Y-42956D01*
X59382Y-43014D01*
X59410Y-43128D01*
X59410Y-43214D01*
X59382Y-43328D01*
X59353Y-43385D01*
X59296Y-43442D01*
X59210Y-43471D01*
X59067Y-43471D01*
X38149Y-34534D02*
X38149Y-33934D01*
X38292Y-33934D01*
X38378Y-33962D01*
X38435Y-34019D01*
X38463Y-34077D01*
X38492Y-34191D01*
X38492Y-34277D01*
X38463Y-34391D01*
X38435Y-34448D01*
X38378Y-34505D01*
X38292Y-34534D01*
X38149Y-34534D01*
X39035Y-33934D02*
X38749Y-33934D01*
X38721Y-34219D01*
X38749Y-34191D01*
X38806Y-34162D01*
X38949Y-34162D01*
X39006Y-34191D01*
X39035Y-34219D01*
X39063Y-34277D01*
X39063Y-34419D01*
X39035Y-34477D01*
X39006Y-34505D01*
X38949Y-34534D01*
X38806Y-34534D01*
X38749Y-34505D01*
X38721Y-34477D01*
X38246Y-36778D02*
X37960Y-36778D01*
X37960Y-36178D01*
X38446Y-36464D02*
X38646Y-36464D01*
X38731Y-36778D02*
X38446Y-36778D01*
X38446Y-36178D01*
X38731Y-36178D01*
X38989Y-36778D02*
X38989Y-36178D01*
X39131Y-36178D01*
X39217Y-36206D01*
X39274Y-36264D01*
X39303Y-36321D01*
X39331Y-36435D01*
X39331Y-36521D01*
X39303Y-36635D01*
X39274Y-36692D01*
X39217Y-36749D01*
X39131Y-36778D01*
X38989Y-36778D01*
X58228Y-34534D02*
X58228Y-33934D01*
X58371Y-33934D01*
X58456Y-33962D01*
X58514Y-34019D01*
X58542Y-34077D01*
X58571Y-34191D01*
X58571Y-34277D01*
X58542Y-34391D01*
X58514Y-34448D01*
X58456Y-34505D01*
X58371Y-34534D01*
X58228Y-34534D01*
X58799Y-33991D02*
X58828Y-33962D01*
X58885Y-33934D01*
X59028Y-33934D01*
X59085Y-33962D01*
X59114Y-33991D01*
X59142Y-34048D01*
X59142Y-34105D01*
X59114Y-34191D01*
X58771Y-34534D01*
X59142Y-34534D01*
X58324Y-36778D02*
X58039Y-36778D01*
X58039Y-36178D01*
X58524Y-36464D02*
X58724Y-36464D01*
X58810Y-36778D02*
X58524Y-36778D01*
X58524Y-36178D01*
X58810Y-36178D01*
X59067Y-36778D02*
X59067Y-36178D01*
X59210Y-36178D01*
X59296Y-36206D01*
X59353Y-36264D01*
X59382Y-36321D01*
X59410Y-36435D01*
X59410Y-36521D01*
X59382Y-36635D01*
X59353Y-36692D01*
X59296Y-36749D01*
X59210Y-36778D01*
X59067Y-36778D01*
X45433Y-27575D02*
X45433Y-26975D01*
X45575Y-26975D01*
X45661Y-27004D01*
X45718Y-27061D01*
X45747Y-27118D01*
X45775Y-27232D01*
X45775Y-27318D01*
X45747Y-27432D01*
X45718Y-27489D01*
X45661Y-27546D01*
X45575Y-27575D01*
X45433Y-27575D01*
X46347Y-27575D02*
X46004Y-27575D01*
X46175Y-27575D02*
X46175Y-26975D01*
X46118Y-27061D01*
X46061Y-27118D01*
X46004Y-27146D01*
X43344Y-27418D02*
X43058Y-27418D01*
X43058Y-26818D01*
X43544Y-27103D02*
X43744Y-27103D01*
X43830Y-27418D02*
X43544Y-27418D01*
X43544Y-26818D01*
X43830Y-26818D01*
X44087Y-27418D02*
X44087Y-26818D01*
X44230Y-26818D01*
X44316Y-26846D01*
X44373Y-26903D01*
X44401Y-26960D01*
X44430Y-27075D01*
X44430Y-27160D01*
X44401Y-27275D01*
X44373Y-27332D01*
X44316Y-27389D01*
X44230Y-27418D01*
X44087Y-27418D01*
G54D14*
X45406Y-22552D02*
X45406Y-22252D01*
X45520Y-22252D01*
X45548Y-22266D01*
X45563Y-22281D01*
X45577Y-22309D01*
X45577Y-22352D01*
X45563Y-22381D01*
X45548Y-22395D01*
X45520Y-22409D01*
X45406Y-22409D01*
X45806Y-22395D02*
X45848Y-22409D01*
X45863Y-22423D01*
X45877Y-22452D01*
X45877Y-22495D01*
X45863Y-22523D01*
X45848Y-22538D01*
X45820Y-22552D01*
X45706Y-22552D01*
X45706Y-22252D01*
X45806Y-22252D01*
X45834Y-22266D01*
X45848Y-22281D01*
X45863Y-22309D01*
X45863Y-22338D01*
X45848Y-22366D01*
X45834Y-22381D01*
X45806Y-22395D01*
X45706Y-22395D01*
X46063Y-22252D02*
X46091Y-22252D01*
X46120Y-22266D01*
X46134Y-22281D01*
X46148Y-22309D01*
X46163Y-22366D01*
X46163Y-22438D01*
X46148Y-22495D01*
X46134Y-22523D01*
X46120Y-22538D01*
X46091Y-22552D01*
X46063Y-22552D01*
X46034Y-22538D01*
X46020Y-22523D01*
X46006Y-22495D01*
X45991Y-22438D01*
X45991Y-22366D01*
X46006Y-22309D01*
X46020Y-22281D01*
X46034Y-22266D01*
X46063Y-22252D01*
G54D18*
X50704Y-30658D02*
X51204Y-30324D01*
X50704Y-30324D02*
X51204Y-30658D01*
X51204Y-29872D02*
X51204Y-30158D01*
X51204Y-30015D02*
X50704Y-30015D01*
X50775Y-30063D01*
X50823Y-30110D01*
X50847Y-30158D01*
X42467Y-30056D02*
X42444Y-30080D01*
X42372Y-30103D01*
X42325Y-30103D01*
X42253Y-30080D01*
X42206Y-30032D01*
X42182Y-29984D01*
X42158Y-29889D01*
X42158Y-29818D01*
X42182Y-29723D01*
X42206Y-29675D01*
X42253Y-29627D01*
X42325Y-29603D01*
X42372Y-29603D01*
X42444Y-29627D01*
X42467Y-29651D01*
X42967Y-30103D02*
X42801Y-29865D01*
X42682Y-30103D02*
X42682Y-29603D01*
X42872Y-29603D01*
X42920Y-29627D01*
X42944Y-29651D01*
X42967Y-29699D01*
X42967Y-29770D01*
X42944Y-29818D01*
X42920Y-29842D01*
X42872Y-29865D01*
X42682Y-29865D01*
X43277Y-29865D02*
X43277Y-30103D01*
X43110Y-29603D02*
X43277Y-29865D01*
X43444Y-29603D01*
X43586Y-30080D02*
X43658Y-30103D01*
X43777Y-30103D01*
X43825Y-30080D01*
X43848Y-30056D01*
X43872Y-30008D01*
X43872Y-29961D01*
X43848Y-29913D01*
X43825Y-29889D01*
X43777Y-29865D01*
X43682Y-29842D01*
X43634Y-29818D01*
X43610Y-29794D01*
X43586Y-29746D01*
X43586Y-29699D01*
X43610Y-29651D01*
X43634Y-29627D01*
X43682Y-29603D01*
X43801Y-29603D01*
X43872Y-29627D01*
X44015Y-29603D02*
X44301Y-29603D01*
X44158Y-30103D02*
X44158Y-29603D01*
X44444Y-29961D02*
X44682Y-29961D01*
X44396Y-30103D02*
X44563Y-29603D01*
X44729Y-30103D01*
X45134Y-30103D02*
X44896Y-30103D01*
X44896Y-29603D01*
X45182Y-30151D02*
X45563Y-30151D01*
X45944Y-30103D02*
X45658Y-30103D01*
X45801Y-30103D02*
X45801Y-29603D01*
X45753Y-29675D01*
X45706Y-29723D01*
X45658Y-29746D01*
X46372Y-29603D02*
X46277Y-29603D01*
X46229Y-29627D01*
X46206Y-29651D01*
X46158Y-29723D01*
X46134Y-29818D01*
X46134Y-30008D01*
X46158Y-30056D01*
X46182Y-30080D01*
X46229Y-30103D01*
X46325Y-30103D01*
X46372Y-30080D01*
X46396Y-30056D01*
X46420Y-30008D01*
X46420Y-29889D01*
X46396Y-29842D01*
X46372Y-29818D01*
X46325Y-29794D01*
X46229Y-29794D01*
X46182Y-29818D01*
X46158Y-29842D01*
X46134Y-29889D01*
X46634Y-30103D02*
X46634Y-29603D01*
X46801Y-29961D01*
X46967Y-29603D01*
X46967Y-30103D01*
X47206Y-30103D02*
X47206Y-29603D01*
X47206Y-29842D02*
X47491Y-29842D01*
X47491Y-30103D02*
X47491Y-29603D01*
X47682Y-29770D02*
X47944Y-29770D01*
X47682Y-30103D01*
X47944Y-30103D01*
G54D16*
X41965Y-24838D02*
X41946Y-24857D01*
X41888Y-24876D01*
X41850Y-24876D01*
X41793Y-24857D01*
X41755Y-24819D01*
X41736Y-24781D01*
X41717Y-24705D01*
X41717Y-24647D01*
X41736Y-24571D01*
X41755Y-24533D01*
X41793Y-24495D01*
X41850Y-24476D01*
X41888Y-24476D01*
X41946Y-24495D01*
X41965Y-24514D01*
X42212Y-24476D02*
X42288Y-24476D01*
X42326Y-24495D01*
X42365Y-24533D01*
X42384Y-24609D01*
X42384Y-24743D01*
X42365Y-24819D01*
X42326Y-24857D01*
X42288Y-24876D01*
X42212Y-24876D01*
X42174Y-24857D01*
X42136Y-24819D01*
X42117Y-24743D01*
X42117Y-24609D01*
X42136Y-24533D01*
X42174Y-24495D01*
X42212Y-24476D01*
X42555Y-24876D02*
X42555Y-24476D01*
X42784Y-24876D01*
X42784Y-24476D01*
X42955Y-24514D02*
X42974Y-24495D01*
X43012Y-24476D01*
X43107Y-24476D01*
X43146Y-24495D01*
X43165Y-24514D01*
X43184Y-24552D01*
X43184Y-24590D01*
X43165Y-24647D01*
X42936Y-24876D01*
X43184Y-24876D01*
G54D19*
X36605Y-30287D02*
X36576Y-30273D01*
X36548Y-30244D01*
X36505Y-30202D01*
X36476Y-30187D01*
X36448Y-30187D01*
X36462Y-30259D02*
X36433Y-30244D01*
X36405Y-30216D01*
X36391Y-30159D01*
X36391Y-30059D01*
X36405Y-30002D01*
X36433Y-29973D01*
X36462Y-29959D01*
X36519Y-29959D01*
X36548Y-29973D01*
X36576Y-30002D01*
X36591Y-30059D01*
X36591Y-30159D01*
X36576Y-30216D01*
X36548Y-30244D01*
X36519Y-30259D01*
X36462Y-30259D01*
X36876Y-30259D02*
X36705Y-30259D01*
X36791Y-30259D02*
X36791Y-29959D01*
X36762Y-30002D01*
X36733Y-30030D01*
X36705Y-30044D01*
X37402Y-31235D02*
X37205Y-31235D01*
X37346Y-31169D01*
X37205Y-31104D01*
X37402Y-31104D01*
X37205Y-30972D02*
X37205Y-30935D01*
X37214Y-30916D01*
X37233Y-30897D01*
X37271Y-30888D01*
X37336Y-30888D01*
X37374Y-30897D01*
X37393Y-30916D01*
X37402Y-30935D01*
X37402Y-30972D01*
X37393Y-30991D01*
X37374Y-31010D01*
X37336Y-31019D01*
X37271Y-31019D01*
X37233Y-31010D01*
X37214Y-30991D01*
X37205Y-30972D01*
X37393Y-30813D02*
X37402Y-30785D01*
X37402Y-30738D01*
X37393Y-30719D01*
X37383Y-30710D01*
X37365Y-30700D01*
X37346Y-30700D01*
X37327Y-30710D01*
X37318Y-30719D01*
X37308Y-30738D01*
X37299Y-30775D01*
X37290Y-30794D01*
X37280Y-30803D01*
X37261Y-30813D01*
X37243Y-30813D01*
X37224Y-30803D01*
X37214Y-30794D01*
X37205Y-30775D01*
X37205Y-30728D01*
X37214Y-30700D01*
X37299Y-30550D02*
X37299Y-30616D01*
X37402Y-30616D02*
X37205Y-30616D01*
X37205Y-30522D01*
X37299Y-30447D02*
X37299Y-30381D01*
X37402Y-30353D02*
X37402Y-30447D01*
X37205Y-30447D01*
X37205Y-30353D01*
X37205Y-30297D02*
X37205Y-30184D01*
X37402Y-30240D02*
X37205Y-30240D01*
X37421Y-30165D02*
X37421Y-30015D01*
X37402Y-29968D02*
X37205Y-29968D01*
X37402Y-29856D01*
X37205Y-29856D01*
X36703Y-28319D02*
X36675Y-28305D01*
X36646Y-28276D01*
X36603Y-28233D01*
X36575Y-28219D01*
X36546Y-28219D01*
X36560Y-28290D02*
X36532Y-28276D01*
X36503Y-28247D01*
X36489Y-28190D01*
X36489Y-28090D01*
X36503Y-28033D01*
X36532Y-28005D01*
X36560Y-27990D01*
X36617Y-27990D01*
X36646Y-28005D01*
X36675Y-28033D01*
X36689Y-28090D01*
X36689Y-28190D01*
X36675Y-28247D01*
X36646Y-28276D01*
X36617Y-28290D01*
X36560Y-28290D01*
X36803Y-28019D02*
X36817Y-28005D01*
X36846Y-27990D01*
X36917Y-27990D01*
X36946Y-28005D01*
X36960Y-28019D01*
X36975Y-28047D01*
X36975Y-28076D01*
X36960Y-28119D01*
X36789Y-28290D01*
X36975Y-28290D01*
X37402Y-29266D02*
X37205Y-29266D01*
X37346Y-29201D01*
X37205Y-29135D01*
X37402Y-29135D01*
X37205Y-29004D02*
X37205Y-28966D01*
X37214Y-28947D01*
X37233Y-28929D01*
X37271Y-28919D01*
X37336Y-28919D01*
X37374Y-28929D01*
X37393Y-28947D01*
X37402Y-28966D01*
X37402Y-29004D01*
X37393Y-29022D01*
X37374Y-29041D01*
X37336Y-29051D01*
X37271Y-29051D01*
X37233Y-29041D01*
X37214Y-29022D01*
X37205Y-29004D01*
X37393Y-28844D02*
X37402Y-28816D01*
X37402Y-28769D01*
X37393Y-28750D01*
X37383Y-28741D01*
X37365Y-28732D01*
X37346Y-28732D01*
X37327Y-28741D01*
X37318Y-28750D01*
X37308Y-28769D01*
X37299Y-28807D01*
X37290Y-28825D01*
X37280Y-28835D01*
X37261Y-28844D01*
X37243Y-28844D01*
X37224Y-28835D01*
X37214Y-28825D01*
X37205Y-28807D01*
X37205Y-28760D01*
X37214Y-28732D01*
X37299Y-28582D02*
X37299Y-28647D01*
X37402Y-28647D02*
X37205Y-28647D01*
X37205Y-28553D01*
X37299Y-28478D02*
X37299Y-28413D01*
X37402Y-28385D02*
X37402Y-28478D01*
X37205Y-28478D01*
X37205Y-28385D01*
X37205Y-28328D02*
X37205Y-28216D01*
X37402Y-28272D02*
X37205Y-28272D01*
X37421Y-28197D02*
X37421Y-28047D01*
X37402Y-28000D02*
X37205Y-28000D01*
X37402Y-27887D01*
X37205Y-27887D01*
X36762Y-24362D02*
X36734Y-24348D01*
X36705Y-24319D01*
X36662Y-24276D01*
X36634Y-24262D01*
X36605Y-24262D01*
X36619Y-24334D02*
X36591Y-24319D01*
X36562Y-24291D01*
X36548Y-24234D01*
X36548Y-24134D01*
X36562Y-24076D01*
X36591Y-24048D01*
X36619Y-24034D01*
X36677Y-24034D01*
X36705Y-24048D01*
X36734Y-24076D01*
X36748Y-24134D01*
X36748Y-24234D01*
X36734Y-24291D01*
X36705Y-24319D01*
X36677Y-24334D01*
X36619Y-24334D01*
X37005Y-24134D02*
X37005Y-24334D01*
X36934Y-24019D02*
X36862Y-24234D01*
X37048Y-24234D01*
X37422Y-25354D02*
X37225Y-25354D01*
X37365Y-25289D01*
X37225Y-25223D01*
X37422Y-25223D01*
X37225Y-25092D02*
X37225Y-25054D01*
X37234Y-25035D01*
X37253Y-25017D01*
X37290Y-25007D01*
X37356Y-25007D01*
X37394Y-25017D01*
X37412Y-25035D01*
X37422Y-25054D01*
X37422Y-25092D01*
X37412Y-25110D01*
X37394Y-25129D01*
X37356Y-25139D01*
X37290Y-25139D01*
X37253Y-25129D01*
X37234Y-25110D01*
X37225Y-25092D01*
X37412Y-24932D02*
X37422Y-24904D01*
X37422Y-24857D01*
X37412Y-24838D01*
X37403Y-24829D01*
X37384Y-24820D01*
X37365Y-24820D01*
X37347Y-24829D01*
X37337Y-24838D01*
X37328Y-24857D01*
X37319Y-24895D01*
X37309Y-24913D01*
X37300Y-24923D01*
X37281Y-24932D01*
X37262Y-24932D01*
X37244Y-24923D01*
X37234Y-24913D01*
X37225Y-24895D01*
X37225Y-24848D01*
X37234Y-24820D01*
X37319Y-24670D02*
X37319Y-24735D01*
X37422Y-24735D02*
X37225Y-24735D01*
X37225Y-24641D01*
X37319Y-24566D02*
X37319Y-24501D01*
X37422Y-24473D02*
X37422Y-24566D01*
X37225Y-24566D01*
X37225Y-24473D01*
X37225Y-24416D02*
X37225Y-24304D01*
X37422Y-24360D02*
X37225Y-24360D01*
X37441Y-24285D02*
X37441Y-24135D01*
X37422Y-24088D02*
X37225Y-24088D01*
X37422Y-23975D01*
X37225Y-23975D01*
X36703Y-26331D02*
X36675Y-26316D01*
X36646Y-26288D01*
X36603Y-26245D01*
X36575Y-26231D01*
X36546Y-26231D01*
X36560Y-26302D02*
X36532Y-26288D01*
X36503Y-26259D01*
X36489Y-26202D01*
X36489Y-26102D01*
X36503Y-26045D01*
X36532Y-26016D01*
X36560Y-26002D01*
X36617Y-26002D01*
X36646Y-26016D01*
X36675Y-26045D01*
X36689Y-26102D01*
X36689Y-26202D01*
X36675Y-26259D01*
X36646Y-26288D01*
X36617Y-26302D01*
X36560Y-26302D01*
X36789Y-26002D02*
X36975Y-26002D01*
X36875Y-26116D01*
X36917Y-26116D01*
X36946Y-26131D01*
X36960Y-26145D01*
X36975Y-26173D01*
X36975Y-26245D01*
X36960Y-26273D01*
X36946Y-26288D01*
X36917Y-26302D01*
X36832Y-26302D01*
X36803Y-26288D01*
X36789Y-26273D01*
X37402Y-27298D02*
X37205Y-27298D01*
X37346Y-27232D01*
X37205Y-27167D01*
X37402Y-27167D01*
X37205Y-27035D02*
X37205Y-26998D01*
X37214Y-26979D01*
X37233Y-26960D01*
X37271Y-26951D01*
X37336Y-26951D01*
X37374Y-26960D01*
X37393Y-26979D01*
X37402Y-26998D01*
X37402Y-27035D01*
X37393Y-27054D01*
X37374Y-27073D01*
X37336Y-27082D01*
X37271Y-27082D01*
X37233Y-27073D01*
X37214Y-27054D01*
X37205Y-27035D01*
X37393Y-26876D02*
X37402Y-26848D01*
X37402Y-26801D01*
X37393Y-26782D01*
X37383Y-26773D01*
X37365Y-26763D01*
X37346Y-26763D01*
X37327Y-26773D01*
X37318Y-26782D01*
X37308Y-26801D01*
X37299Y-26838D01*
X37290Y-26857D01*
X37280Y-26866D01*
X37261Y-26876D01*
X37243Y-26876D01*
X37224Y-26866D01*
X37214Y-26857D01*
X37205Y-26838D01*
X37205Y-26791D01*
X37214Y-26763D01*
X37299Y-26613D02*
X37299Y-26679D01*
X37402Y-26679D02*
X37205Y-26679D01*
X37205Y-26585D01*
X37299Y-26510D02*
X37299Y-26444D01*
X37402Y-26416D02*
X37402Y-26510D01*
X37205Y-26510D01*
X37205Y-26416D01*
X37205Y-26360D02*
X37205Y-26247D01*
X37402Y-26303D02*
X37205Y-26303D01*
X37421Y-26228D02*
X37421Y-26078D01*
X37402Y-26031D02*
X37205Y-26031D01*
X37402Y-25919D01*
X37205Y-25919D01*
G54D16*
X53107Y-26717D02*
X52764Y-27060D01*
X52737Y-27114D01*
X52730Y-27148D01*
X52737Y-27195D01*
X52791Y-27249D01*
X52838Y-27255D01*
X52872Y-27249D01*
X52926Y-27222D01*
X53269Y-26878D01*
X53128Y-27585D02*
X52966Y-27424D01*
X53047Y-27504D02*
X53471Y-27080D01*
X53384Y-27114D01*
X53316Y-27127D01*
X53269Y-27121D01*
X50795Y-27137D02*
X50930Y-27271D01*
X50647Y-27231D02*
X51166Y-26901D01*
X50836Y-27419D01*
X51314Y-27049D02*
X51476Y-27211D01*
X50971Y-27554D02*
X51395Y-27130D01*
X51146Y-27729D02*
X51570Y-27305D01*
X51361Y-27702D01*
X51758Y-27494D01*
X51334Y-27918D01*
X51691Y-27830D02*
X51785Y-27925D01*
X51604Y-28187D02*
X51469Y-28052D01*
X51893Y-27628D01*
X52028Y-27763D01*
X52277Y-28052D02*
X52270Y-28005D01*
X52230Y-27965D01*
X52169Y-27945D01*
X52102Y-27958D01*
X52048Y-27985D01*
X51954Y-28052D01*
X51893Y-28113D01*
X51826Y-28207D01*
X51799Y-28261D01*
X51785Y-28329D01*
X51806Y-28389D01*
X51833Y-28416D01*
X51893Y-28436D01*
X51927Y-28430D01*
X52068Y-28288D01*
X52014Y-28234D01*
X52115Y-28457D02*
X52250Y-28591D01*
X51967Y-28551D02*
X52486Y-28221D01*
X52156Y-28739D01*
X52647Y-28382D02*
X52822Y-28558D01*
X52567Y-28625D01*
X52607Y-28665D01*
X52614Y-28712D01*
X52607Y-28746D01*
X52580Y-28800D01*
X52479Y-28901D01*
X52425Y-28928D01*
X52391Y-28935D01*
X52344Y-28928D01*
X52264Y-28847D01*
X52257Y-28800D01*
X52264Y-28766D01*
X52890Y-28706D02*
X52924Y-28699D01*
X52971Y-28706D01*
X53038Y-28773D01*
X53045Y-28820D01*
X53038Y-28854D01*
X53011Y-28908D01*
X52971Y-28948D01*
X52897Y-28995D01*
X52493Y-29076D01*
X52668Y-29251D01*
X53213Y-28948D02*
X52870Y-29292D01*
X52843Y-29345D01*
X52836Y-29379D01*
X52843Y-29426D01*
X52897Y-29480D01*
X52944Y-29487D01*
X52977Y-29480D01*
X53031Y-29453D01*
X53375Y-29110D01*
X53489Y-29507D02*
X53206Y-29790D01*
X53583Y-29278D02*
X53213Y-29514D01*
X53388Y-29689D01*
G54D17*
X51249Y-54612D02*
X51249Y-54012D01*
X51392Y-54012D01*
X51478Y-54041D01*
X51535Y-54098D01*
X51564Y-54155D01*
X51592Y-54270D01*
X51592Y-54355D01*
X51564Y-54470D01*
X51535Y-54527D01*
X51478Y-54584D01*
X51392Y-54612D01*
X51249Y-54612D01*
X52164Y-54612D02*
X51821Y-54612D01*
X51992Y-54612D02*
X51992Y-54012D01*
X51935Y-54098D01*
X51878Y-54155D01*
X51821Y-54184D01*
X52706Y-54012D02*
X52421Y-54012D01*
X52392Y-54298D01*
X52421Y-54270D01*
X52478Y-54241D01*
X52621Y-54241D01*
X52678Y-54270D01*
X52706Y-54298D01*
X52735Y-54355D01*
X52735Y-54498D01*
X52706Y-54555D01*
X52678Y-54584D01*
X52621Y-54612D01*
X52478Y-54612D01*
X52421Y-54584D01*
X52392Y-54555D01*
X51632Y-56857D02*
X51346Y-56857D01*
X51346Y-56257D01*
X51832Y-56542D02*
X52032Y-56542D01*
X52117Y-56857D02*
X51832Y-56857D01*
X51832Y-56257D01*
X52117Y-56257D01*
X52374Y-56857D02*
X52374Y-56257D01*
X52517Y-56257D01*
X52603Y-56285D01*
X52660Y-56342D01*
X52689Y-56399D01*
X52717Y-56514D01*
X52717Y-56599D01*
X52689Y-56714D01*
X52660Y-56771D01*
X52603Y-56828D01*
X52517Y-56857D01*
X52374Y-56857D01*
X51249Y-47920D02*
X51249Y-47320D01*
X51392Y-47320D01*
X51478Y-47348D01*
X51535Y-47405D01*
X51564Y-47462D01*
X51592Y-47577D01*
X51592Y-47662D01*
X51564Y-47777D01*
X51535Y-47834D01*
X51478Y-47891D01*
X51392Y-47920D01*
X51249Y-47920D01*
X52164Y-47920D02*
X51821Y-47920D01*
X51992Y-47920D02*
X51992Y-47320D01*
X51935Y-47405D01*
X51878Y-47462D01*
X51821Y-47491D01*
X52735Y-47920D02*
X52392Y-47920D01*
X52564Y-47920D02*
X52564Y-47320D01*
X52506Y-47405D01*
X52449Y-47462D01*
X52392Y-47491D01*
X51632Y-50164D02*
X51346Y-50164D01*
X51346Y-49564D01*
X51832Y-49849D02*
X52032Y-49849D01*
X52117Y-50164D02*
X51832Y-50164D01*
X51832Y-49564D01*
X52117Y-49564D01*
X52374Y-50164D02*
X52374Y-49564D01*
X52517Y-49564D01*
X52603Y-49592D01*
X52660Y-49649D01*
X52689Y-49706D01*
X52717Y-49821D01*
X52717Y-49906D01*
X52689Y-50021D01*
X52660Y-50078D01*
X52603Y-50135D01*
X52517Y-50164D01*
X52374Y-50164D01*
X51535Y-41227D02*
X51535Y-40627D01*
X51678Y-40627D01*
X51764Y-40655D01*
X51821Y-40712D01*
X51849Y-40769D01*
X51878Y-40884D01*
X51878Y-40969D01*
X51849Y-41084D01*
X51821Y-41141D01*
X51764Y-41198D01*
X51678Y-41227D01*
X51535Y-41227D01*
X52078Y-40627D02*
X52478Y-40627D01*
X52221Y-41227D01*
X51632Y-43471D02*
X51346Y-43471D01*
X51346Y-42871D01*
X51832Y-43156D02*
X52032Y-43156D01*
X52117Y-43471D02*
X51832Y-43471D01*
X51832Y-42871D01*
X52117Y-42871D01*
X52374Y-43471D02*
X52374Y-42871D01*
X52517Y-42871D01*
X52603Y-42899D01*
X52660Y-42956D01*
X52689Y-43014D01*
X52717Y-43128D01*
X52717Y-43214D01*
X52689Y-43328D01*
X52660Y-43385D01*
X52603Y-43442D01*
X52517Y-43471D01*
X52374Y-43471D01*
X51535Y-34534D02*
X51535Y-33934D01*
X51678Y-33934D01*
X51764Y-33962D01*
X51821Y-34019D01*
X51849Y-34077D01*
X51878Y-34191D01*
X51878Y-34277D01*
X51849Y-34391D01*
X51821Y-34448D01*
X51764Y-34505D01*
X51678Y-34534D01*
X51535Y-34534D01*
X52078Y-33934D02*
X52449Y-33934D01*
X52249Y-34162D01*
X52335Y-34162D01*
X52392Y-34191D01*
X52421Y-34219D01*
X52449Y-34277D01*
X52449Y-34419D01*
X52421Y-34477D01*
X52392Y-34505D01*
X52335Y-34534D01*
X52164Y-34534D01*
X52106Y-34505D01*
X52078Y-34477D01*
X51632Y-36778D02*
X51346Y-36778D01*
X51346Y-36178D01*
X51832Y-36464D02*
X52032Y-36464D01*
X52117Y-36778D02*
X51832Y-36778D01*
X51832Y-36178D01*
X52117Y-36178D01*
X52374Y-36778D02*
X52374Y-36178D01*
X52517Y-36178D01*
X52603Y-36206D01*
X52660Y-36264D01*
X52689Y-36321D01*
X52717Y-36435D01*
X52717Y-36521D01*
X52689Y-36635D01*
X52660Y-36692D01*
X52603Y-36749D01*
X52517Y-36778D01*
X52374Y-36778D01*
X44842Y-34534D02*
X44842Y-33934D01*
X44985Y-33934D01*
X45071Y-33962D01*
X45128Y-34019D01*
X45156Y-34077D01*
X45185Y-34191D01*
X45185Y-34277D01*
X45156Y-34391D01*
X45128Y-34448D01*
X45071Y-34505D01*
X44985Y-34534D01*
X44842Y-34534D01*
X45699Y-34134D02*
X45699Y-34534D01*
X45556Y-33905D02*
X45414Y-34334D01*
X45785Y-34334D01*
X44939Y-36778D02*
X44653Y-36778D01*
X44653Y-36178D01*
X45139Y-36464D02*
X45339Y-36464D01*
X45424Y-36778D02*
X45139Y-36778D01*
X45139Y-36178D01*
X45424Y-36178D01*
X45681Y-36778D02*
X45681Y-36178D01*
X45824Y-36178D01*
X45910Y-36206D01*
X45967Y-36264D01*
X45996Y-36321D01*
X46024Y-36435D01*
X46024Y-36521D01*
X45996Y-36635D01*
X45967Y-36692D01*
X45910Y-36749D01*
X45824Y-36778D01*
X45681Y-36778D01*
X44842Y-41227D02*
X44842Y-40627D01*
X44985Y-40627D01*
X45071Y-40655D01*
X45128Y-40712D01*
X45156Y-40769D01*
X45185Y-40884D01*
X45185Y-40969D01*
X45156Y-41084D01*
X45128Y-41141D01*
X45071Y-41198D01*
X44985Y-41227D01*
X44842Y-41227D01*
X45528Y-40884D02*
X45471Y-40855D01*
X45442Y-40827D01*
X45414Y-40769D01*
X45414Y-40741D01*
X45442Y-40684D01*
X45471Y-40655D01*
X45528Y-40627D01*
X45642Y-40627D01*
X45699Y-40655D01*
X45728Y-40684D01*
X45756Y-40741D01*
X45756Y-40769D01*
X45728Y-40827D01*
X45699Y-40855D01*
X45642Y-40884D01*
X45528Y-40884D01*
X45471Y-40912D01*
X45442Y-40941D01*
X45414Y-40998D01*
X45414Y-41112D01*
X45442Y-41169D01*
X45471Y-41198D01*
X45528Y-41227D01*
X45642Y-41227D01*
X45699Y-41198D01*
X45728Y-41169D01*
X45756Y-41112D01*
X45756Y-40998D01*
X45728Y-40941D01*
X45699Y-40912D01*
X45642Y-40884D01*
X44939Y-43471D02*
X44653Y-43471D01*
X44653Y-42871D01*
X45139Y-43156D02*
X45339Y-43156D01*
X45424Y-43471D02*
X45139Y-43471D01*
X45139Y-42871D01*
X45424Y-42871D01*
X45681Y-43471D02*
X45681Y-42871D01*
X45824Y-42871D01*
X45910Y-42899D01*
X45967Y-42956D01*
X45996Y-43014D01*
X46024Y-43128D01*
X46024Y-43214D01*
X45996Y-43328D01*
X45967Y-43385D01*
X45910Y-43442D01*
X45824Y-43471D01*
X45681Y-43471D01*
X44556Y-47920D02*
X44556Y-47320D01*
X44699Y-47320D01*
X44785Y-47348D01*
X44842Y-47405D01*
X44871Y-47462D01*
X44899Y-47577D01*
X44899Y-47662D01*
X44871Y-47777D01*
X44842Y-47834D01*
X44785Y-47891D01*
X44699Y-47920D01*
X44556Y-47920D01*
X45471Y-47920D02*
X45128Y-47920D01*
X45299Y-47920D02*
X45299Y-47320D01*
X45242Y-47405D01*
X45185Y-47462D01*
X45128Y-47491D01*
X45699Y-47377D02*
X45728Y-47348D01*
X45785Y-47320D01*
X45928Y-47320D01*
X45985Y-47348D01*
X46014Y-47377D01*
X46042Y-47434D01*
X46042Y-47491D01*
X46014Y-47577D01*
X45671Y-47920D01*
X46042Y-47920D01*
X44939Y-50164D02*
X44653Y-50164D01*
X44653Y-49564D01*
X45139Y-49849D02*
X45339Y-49849D01*
X45424Y-50164D02*
X45139Y-50164D01*
X45139Y-49564D01*
X45424Y-49564D01*
X45681Y-50164D02*
X45681Y-49564D01*
X45824Y-49564D01*
X45910Y-49592D01*
X45967Y-49649D01*
X45996Y-49706D01*
X46024Y-49821D01*
X46024Y-49906D01*
X45996Y-50021D01*
X45967Y-50078D01*
X45910Y-50135D01*
X45824Y-50164D01*
X45681Y-50164D01*
X44556Y-54612D02*
X44556Y-54012D01*
X44699Y-54012D01*
X44785Y-54041D01*
X44842Y-54098D01*
X44871Y-54155D01*
X44899Y-54270D01*
X44899Y-54355D01*
X44871Y-54470D01*
X44842Y-54527D01*
X44785Y-54584D01*
X44699Y-54612D01*
X44556Y-54612D01*
X45471Y-54612D02*
X45128Y-54612D01*
X45299Y-54612D02*
X45299Y-54012D01*
X45242Y-54098D01*
X45185Y-54155D01*
X45128Y-54184D01*
X45985Y-54012D02*
X45871Y-54012D01*
X45814Y-54041D01*
X45785Y-54070D01*
X45728Y-54155D01*
X45699Y-54270D01*
X45699Y-54498D01*
X45728Y-54555D01*
X45756Y-54584D01*
X45814Y-54612D01*
X45928Y-54612D01*
X45985Y-54584D01*
X46014Y-54555D01*
X46042Y-54498D01*
X46042Y-54355D01*
X46014Y-54298D01*
X45985Y-54270D01*
X45928Y-54241D01*
X45814Y-54241D01*
X45756Y-54270D01*
X45728Y-54298D01*
X45699Y-54355D01*
X44939Y-56857D02*
X44653Y-56857D01*
X44653Y-56257D01*
X45139Y-56542D02*
X45339Y-56542D01*
X45424Y-56857D02*
X45139Y-56857D01*
X45139Y-56257D01*
X45424Y-56257D01*
X45681Y-56857D02*
X45681Y-56257D01*
X45824Y-56257D01*
X45910Y-56285D01*
X45967Y-56342D01*
X45996Y-56399D01*
X46024Y-56514D01*
X46024Y-56599D01*
X45996Y-56714D01*
X45967Y-56771D01*
X45910Y-56828D01*
X45824Y-56857D01*
X45681Y-56857D01*
G54D14*
X56026Y-22571D02*
X55997Y-22557D01*
X55954Y-22557D01*
X55911Y-22571D01*
X55883Y-22600D01*
X55869Y-22629D01*
X55854Y-22686D01*
X55854Y-22729D01*
X55869Y-22786D01*
X55883Y-22814D01*
X55911Y-22843D01*
X55954Y-22857D01*
X55983Y-22857D01*
X56026Y-22843D01*
X56040Y-22829D01*
X56040Y-22729D01*
X55983Y-22729D01*
X56169Y-22857D02*
X56169Y-22557D01*
X56340Y-22857D01*
X56340Y-22557D01*
X56483Y-22857D02*
X56483Y-22557D01*
X56554Y-22557D01*
X56597Y-22571D01*
X56626Y-22600D01*
X56640Y-22629D01*
X56654Y-22686D01*
X56654Y-22729D01*
X56640Y-22786D01*
X56626Y-22814D01*
X56597Y-22843D01*
X56554Y-22857D01*
X56483Y-22857D01*
X56940Y-22857D02*
X56769Y-22857D01*
X56854Y-22857D02*
X56854Y-22557D01*
X56826Y-22600D01*
X56797Y-22629D01*
X56769Y-22643D01*
X56033Y-22025D02*
X55995Y-22005D01*
X55938Y-22005D01*
X55881Y-22025D01*
X55843Y-22063D01*
X55824Y-22101D01*
X55805Y-22177D01*
X55805Y-22234D01*
X55824Y-22310D01*
X55843Y-22348D01*
X55881Y-22386D01*
X55938Y-22405D01*
X55976Y-22405D01*
X56033Y-22386D01*
X56052Y-22367D01*
X56052Y-22234D01*
X55976Y-22234D01*
X56224Y-22405D02*
X56224Y-22005D01*
X56452Y-22405D01*
X56452Y-22005D01*
X56643Y-22405D02*
X56643Y-22005D01*
X56738Y-22005D01*
X56795Y-22025D01*
X56833Y-22063D01*
X56852Y-22101D01*
X56871Y-22177D01*
X56871Y-22234D01*
X56852Y-22310D01*
X56833Y-22348D01*
X56795Y-22386D01*
X56738Y-22405D01*
X56643Y-22405D01*
X37409Y-22616D02*
X37509Y-22916D01*
X37609Y-22616D01*
X37881Y-22888D02*
X37867Y-22902D01*
X37824Y-22916D01*
X37795Y-22916D01*
X37752Y-22902D01*
X37724Y-22873D01*
X37709Y-22845D01*
X37695Y-22788D01*
X37695Y-22745D01*
X37709Y-22688D01*
X37724Y-22659D01*
X37752Y-22630D01*
X37795Y-22616D01*
X37824Y-22616D01*
X37867Y-22630D01*
X37881Y-22645D01*
X38181Y-22888D02*
X38167Y-22902D01*
X38124Y-22916D01*
X38095Y-22916D01*
X38052Y-22902D01*
X38024Y-22873D01*
X38009Y-22845D01*
X37995Y-22788D01*
X37995Y-22745D01*
X38009Y-22688D01*
X38024Y-22659D01*
X38052Y-22630D01*
X38095Y-22616D01*
X38124Y-22616D01*
X38167Y-22630D01*
X38181Y-22645D01*
X38467Y-22916D02*
X38295Y-22916D01*
X38381Y-22916D02*
X38381Y-22616D01*
X38352Y-22659D01*
X38324Y-22688D01*
X38295Y-22702D01*
X37517Y-22273D02*
X37821Y-22273D01*
X37669Y-22425D02*
X37669Y-22120D01*
X38202Y-22025D02*
X38012Y-22025D01*
X37993Y-22216D01*
X38012Y-22197D01*
X38050Y-22178D01*
X38145Y-22178D01*
X38183Y-22197D01*
X38202Y-22216D01*
X38221Y-22254D01*
X38221Y-22349D01*
X38202Y-22387D01*
X38183Y-22406D01*
X38145Y-22425D01*
X38050Y-22425D01*
X38012Y-22406D01*
X37993Y-22387D01*
X38336Y-22025D02*
X38469Y-22425D01*
X38602Y-22025D01*
G54D15*
X47752Y-27282D02*
X47740Y-27294D01*
X47705Y-27305D01*
X47681Y-27305D01*
X47645Y-27294D01*
X47621Y-27270D01*
X47609Y-27246D01*
X47597Y-27198D01*
X47597Y-27163D01*
X47609Y-27115D01*
X47621Y-27091D01*
X47645Y-27067D01*
X47681Y-27055D01*
X47705Y-27055D01*
X47740Y-27067D01*
X47752Y-27079D01*
X47990Y-27305D02*
X47847Y-27305D01*
X47919Y-27305D02*
X47919Y-27055D01*
X47895Y-27091D01*
X47871Y-27115D01*
X47847Y-27127D01*
X48228Y-27305D02*
X48086Y-27305D01*
X48157Y-27305D02*
X48157Y-27055D01*
X48133Y-27091D01*
X48109Y-27115D01*
X48086Y-27127D01*
X51630Y-24585D02*
X51618Y-24597D01*
X51583Y-24609D01*
X51559Y-24609D01*
X51523Y-24597D01*
X51499Y-24573D01*
X51487Y-24549D01*
X51475Y-24501D01*
X51475Y-24466D01*
X51487Y-24418D01*
X51499Y-24394D01*
X51523Y-24370D01*
X51559Y-24359D01*
X51583Y-24359D01*
X51618Y-24370D01*
X51630Y-24382D01*
X51868Y-24609D02*
X51725Y-24609D01*
X51797Y-24609D02*
X51797Y-24359D01*
X51773Y-24394D01*
X51749Y-24418D01*
X51725Y-24430D01*
X51952Y-24359D02*
X52106Y-24359D01*
X52023Y-24454D01*
X52059Y-24454D01*
X52083Y-24466D01*
X52094Y-24478D01*
X52106Y-24501D01*
X52106Y-24561D01*
X52094Y-24585D01*
X52083Y-24597D01*
X52059Y-24609D01*
X51987Y-24609D01*
X51963Y-24597D01*
X51952Y-24585D01*
X54408Y-23014D02*
X54419Y-23026D01*
X54431Y-23061D01*
X54431Y-23085D01*
X54419Y-23121D01*
X54396Y-23145D01*
X54372Y-23156D01*
X54324Y-23168D01*
X54289Y-23168D01*
X54241Y-23156D01*
X54217Y-23145D01*
X54193Y-23121D01*
X54181Y-23085D01*
X54181Y-23061D01*
X54193Y-23026D01*
X54205Y-23014D01*
X54431Y-22776D02*
X54431Y-22918D01*
X54431Y-22847D02*
X54181Y-22847D01*
X54217Y-22871D01*
X54241Y-22895D01*
X54253Y-22918D01*
X61616Y-29018D02*
X61497Y-29101D01*
X61616Y-29160D02*
X61366Y-29160D01*
X61366Y-29065D01*
X61378Y-29041D01*
X61390Y-29029D01*
X61414Y-29018D01*
X61450Y-29018D01*
X61474Y-29029D01*
X61485Y-29041D01*
X61497Y-29065D01*
X61497Y-29160D01*
X61390Y-28922D02*
X61378Y-28910D01*
X61366Y-28887D01*
X61366Y-28827D01*
X61378Y-28803D01*
X61390Y-28791D01*
X61414Y-28779D01*
X61438Y-28779D01*
X61474Y-28791D01*
X61616Y-28934D01*
X61616Y-28779D01*
X36434Y-29648D02*
X36351Y-29529D01*
X36291Y-29648D02*
X36291Y-29398D01*
X36387Y-29398D01*
X36410Y-29410D01*
X36422Y-29422D01*
X36434Y-29446D01*
X36434Y-29481D01*
X36422Y-29505D01*
X36410Y-29517D01*
X36387Y-29529D01*
X36291Y-29529D01*
X36518Y-29398D02*
X36672Y-29398D01*
X36589Y-29493D01*
X36625Y-29493D01*
X36648Y-29505D01*
X36660Y-29517D01*
X36672Y-29541D01*
X36672Y-29600D01*
X36660Y-29624D01*
X36648Y-29636D01*
X36625Y-29648D01*
X36553Y-29648D01*
X36529Y-29636D01*
X36518Y-29624D01*
X49139Y-26698D02*
X49139Y-26715D01*
X49122Y-26748D01*
X49105Y-26765D01*
X49072Y-26782D01*
X49038Y-26782D01*
X49013Y-26774D01*
X48971Y-26748D01*
X48945Y-26723D01*
X48920Y-26681D01*
X48912Y-26656D01*
X48912Y-26622D01*
X48928Y-26588D01*
X48945Y-26572D01*
X48979Y-26555D01*
X48996Y-26555D01*
X49189Y-26445D02*
X49307Y-26563D01*
X49080Y-26420D02*
X49164Y-26588D01*
X49274Y-26479D01*
X50528Y-24703D02*
X50516Y-24715D01*
X50480Y-24727D01*
X50456Y-24727D01*
X50421Y-24715D01*
X50397Y-24691D01*
X50385Y-24667D01*
X50373Y-24620D01*
X50373Y-24584D01*
X50385Y-24536D01*
X50397Y-24512D01*
X50421Y-24489D01*
X50456Y-24477D01*
X50480Y-24477D01*
X50516Y-24489D01*
X50528Y-24500D01*
X50766Y-24727D02*
X50623Y-24727D01*
X50694Y-24727D02*
X50694Y-24477D01*
X50671Y-24512D01*
X50647Y-24536D01*
X50623Y-24548D01*
X50861Y-24500D02*
X50873Y-24489D01*
X50897Y-24477D01*
X50956Y-24477D01*
X50980Y-24489D01*
X50992Y-24500D01*
X51004Y-24524D01*
X51004Y-24548D01*
X50992Y-24584D01*
X50849Y-24727D01*
X51004Y-24727D01*
X48572Y-31410D02*
X48560Y-31421D01*
X48524Y-31433D01*
X48501Y-31433D01*
X48465Y-31421D01*
X48441Y-31398D01*
X48429Y-31374D01*
X48417Y-31326D01*
X48417Y-31291D01*
X48429Y-31243D01*
X48441Y-31219D01*
X48465Y-31195D01*
X48501Y-31183D01*
X48524Y-31183D01*
X48560Y-31195D01*
X48572Y-31207D01*
X48691Y-31433D02*
X48739Y-31433D01*
X48762Y-31421D01*
X48774Y-31410D01*
X48798Y-31374D01*
X48810Y-31326D01*
X48810Y-31231D01*
X48798Y-31207D01*
X48786Y-31195D01*
X48762Y-31183D01*
X48715Y-31183D01*
X48691Y-31195D01*
X48679Y-31207D01*
X48667Y-31231D01*
X48667Y-31291D01*
X48679Y-31314D01*
X48691Y-31326D01*
X48715Y-31338D01*
X48762Y-31338D01*
X48786Y-31326D01*
X48798Y-31314D01*
X48810Y-31291D01*
X45737Y-25020D02*
X45654Y-24901D01*
X45595Y-25020D02*
X45595Y-24770D01*
X45690Y-24770D01*
X45714Y-24782D01*
X45725Y-24794D01*
X45737Y-24818D01*
X45737Y-24853D01*
X45725Y-24877D01*
X45714Y-24889D01*
X45690Y-24901D01*
X45595Y-24901D01*
X45975Y-25020D02*
X45833Y-25020D01*
X45904Y-25020D02*
X45904Y-24770D01*
X45880Y-24806D01*
X45856Y-24830D01*
X45833Y-24841D01*
X52473Y-23525D02*
X52473Y-23644D01*
X52223Y-23644D01*
X52473Y-23311D02*
X52473Y-23454D01*
X52473Y-23383D02*
X52223Y-23383D01*
X52258Y-23406D01*
X52282Y-23430D01*
X52294Y-23454D01*
X59486Y-27462D02*
X59498Y-27474D01*
X59510Y-27510D01*
X59510Y-27534D01*
X59498Y-27570D01*
X59474Y-27593D01*
X59451Y-27605D01*
X59403Y-27617D01*
X59367Y-27617D01*
X59320Y-27605D01*
X59296Y-27593D01*
X59272Y-27570D01*
X59260Y-27534D01*
X59260Y-27510D01*
X59272Y-27474D01*
X59284Y-27462D01*
X59260Y-27379D02*
X59260Y-27212D01*
X59510Y-27320D01*
X58591Y-27513D02*
X58603Y-27524D01*
X58614Y-27560D01*
X58614Y-27584D01*
X58603Y-27620D01*
X58579Y-27644D01*
X58555Y-27655D01*
X58507Y-27667D01*
X58472Y-27667D01*
X58424Y-27655D01*
X58400Y-27644D01*
X58376Y-27620D01*
X58364Y-27584D01*
X58364Y-27560D01*
X58376Y-27524D01*
X58388Y-27513D01*
X58614Y-27274D02*
X58614Y-27417D01*
X58614Y-27346D02*
X58364Y-27346D01*
X58400Y-27370D01*
X58424Y-27394D01*
X58436Y-27417D01*
X58364Y-27120D02*
X58364Y-27096D01*
X58376Y-27072D01*
X58388Y-27060D01*
X58412Y-27048D01*
X58460Y-27036D01*
X58519Y-27036D01*
X58567Y-27048D01*
X58591Y-27060D01*
X58603Y-27072D01*
X58614Y-27096D01*
X58614Y-27120D01*
X58603Y-27144D01*
X58591Y-27155D01*
X58567Y-27167D01*
X58519Y-27179D01*
X58460Y-27179D01*
X58412Y-27167D01*
X58388Y-27155D01*
X58376Y-27144D01*
X58364Y-27120D01*
X55194Y-30756D02*
X55075Y-30756D01*
X55075Y-30506D01*
X55265Y-30530D02*
X55277Y-30518D01*
X55301Y-30506D01*
X55361Y-30506D01*
X55385Y-30518D01*
X55396Y-30530D01*
X55408Y-30554D01*
X55408Y-30578D01*
X55396Y-30613D01*
X55254Y-30756D01*
X55408Y-30756D01*
X35654Y-24865D02*
X35666Y-24877D01*
X35677Y-24913D01*
X35677Y-24936D01*
X35666Y-24972D01*
X35642Y-24996D01*
X35618Y-25008D01*
X35570Y-25020D01*
X35535Y-25020D01*
X35487Y-25008D01*
X35463Y-24996D01*
X35439Y-24972D01*
X35427Y-24936D01*
X35427Y-24913D01*
X35439Y-24877D01*
X35451Y-24865D01*
X35677Y-24627D02*
X35677Y-24770D01*
X35677Y-24698D02*
X35427Y-24698D01*
X35463Y-24722D01*
X35487Y-24746D01*
X35499Y-24770D01*
X35535Y-24484D02*
X35523Y-24508D01*
X35511Y-24520D01*
X35487Y-24532D01*
X35475Y-24532D01*
X35451Y-24520D01*
X35439Y-24508D01*
X35427Y-24484D01*
X35427Y-24436D01*
X35439Y-24413D01*
X35451Y-24401D01*
X35475Y-24389D01*
X35487Y-24389D01*
X35511Y-24401D01*
X35523Y-24413D01*
X35535Y-24436D01*
X35535Y-24484D01*
X35547Y-24508D01*
X35558Y-24520D01*
X35582Y-24532D01*
X35630Y-24532D01*
X35654Y-24520D01*
X35666Y-24508D01*
X35677Y-24484D01*
X35677Y-24436D01*
X35666Y-24413D01*
X35654Y-24401D01*
X35630Y-24389D01*
X35582Y-24389D01*
X35558Y-24401D01*
X35547Y-24413D01*
X35535Y-24436D01*
X59550Y-29058D02*
X59430Y-29141D01*
X59550Y-29201D02*
X59300Y-29201D01*
X59300Y-29105D01*
X59311Y-29082D01*
X59323Y-29070D01*
X59347Y-29058D01*
X59383Y-29058D01*
X59407Y-29070D01*
X59419Y-29082D01*
X59430Y-29105D01*
X59430Y-29201D01*
X59550Y-28820D02*
X59550Y-28963D01*
X59550Y-28891D02*
X59300Y-28891D01*
X59335Y-28915D01*
X59359Y-28939D01*
X59371Y-28963D01*
X59323Y-28725D02*
X59311Y-28713D01*
X59300Y-28689D01*
X59300Y-28629D01*
X59311Y-28605D01*
X59323Y-28594D01*
X59347Y-28582D01*
X59371Y-28582D01*
X59407Y-28594D01*
X59550Y-28736D01*
X59550Y-28582D01*
X58506Y-26263D02*
X58387Y-26346D01*
X58506Y-26405D02*
X58256Y-26405D01*
X58256Y-26310D01*
X58268Y-26286D01*
X58280Y-26274D01*
X58304Y-26263D01*
X58340Y-26263D01*
X58363Y-26274D01*
X58375Y-26286D01*
X58387Y-26310D01*
X58387Y-26405D01*
X58506Y-26024D02*
X58506Y-26167D01*
X58506Y-26096D02*
X58256Y-26096D01*
X58292Y-26120D01*
X58316Y-26144D01*
X58328Y-26167D01*
X58256Y-25810D02*
X58256Y-25858D01*
X58268Y-25882D01*
X58280Y-25894D01*
X58316Y-25917D01*
X58363Y-25929D01*
X58459Y-25929D01*
X58482Y-25917D01*
X58494Y-25905D01*
X58506Y-25882D01*
X58506Y-25834D01*
X58494Y-25810D01*
X58482Y-25798D01*
X58459Y-25786D01*
X58399Y-25786D01*
X58375Y-25798D01*
X58363Y-25810D01*
X58351Y-25834D01*
X58351Y-25882D01*
X58363Y-25905D01*
X58375Y-25917D01*
X58399Y-25929D01*
X48677Y-27262D02*
X48665Y-27274D01*
X48630Y-27286D01*
X48606Y-27286D01*
X48570Y-27274D01*
X48546Y-27250D01*
X48535Y-27226D01*
X48523Y-27179D01*
X48523Y-27143D01*
X48535Y-27095D01*
X48546Y-27071D01*
X48570Y-27048D01*
X48606Y-27036D01*
X48630Y-27036D01*
X48665Y-27048D01*
X48677Y-27060D01*
X48915Y-27286D02*
X48773Y-27286D01*
X48844Y-27286D02*
X48844Y-27036D01*
X48820Y-27071D01*
X48796Y-27095D01*
X48773Y-27107D01*
X49130Y-27119D02*
X49130Y-27286D01*
X49070Y-27024D02*
X49011Y-27202D01*
X49165Y-27202D01*
X60534Y-26381D02*
X60415Y-26464D01*
X60534Y-26524D02*
X60284Y-26524D01*
X60284Y-26428D01*
X60296Y-26404D01*
X60308Y-26393D01*
X60331Y-26381D01*
X60367Y-26381D01*
X60391Y-26393D01*
X60403Y-26404D01*
X60415Y-26428D01*
X60415Y-26524D01*
X60534Y-26143D02*
X60534Y-26285D01*
X60534Y-26214D02*
X60284Y-26214D01*
X60319Y-26238D01*
X60343Y-26262D01*
X60355Y-26285D01*
X60534Y-25904D02*
X60534Y-26047D01*
X60534Y-25976D02*
X60284Y-25976D01*
X60319Y-26000D01*
X60343Y-26024D01*
X60355Y-26047D01*
X58546Y-29196D02*
X58427Y-29279D01*
X58546Y-29339D02*
X58296Y-29339D01*
X58296Y-29243D01*
X58307Y-29219D01*
X58319Y-29208D01*
X58343Y-29196D01*
X58379Y-29196D01*
X58403Y-29208D01*
X58415Y-29219D01*
X58427Y-29243D01*
X58427Y-29339D01*
X58546Y-28958D02*
X58546Y-29100D01*
X58546Y-29029D02*
X58296Y-29029D01*
X58331Y-29053D01*
X58355Y-29077D01*
X58367Y-29100D01*
X58296Y-28731D02*
X58296Y-28850D01*
X58415Y-28862D01*
X58403Y-28850D01*
X58391Y-28827D01*
X58391Y-28767D01*
X58403Y-28743D01*
X58415Y-28731D01*
X58438Y-28719D01*
X58498Y-28719D01*
X58522Y-28731D01*
X58534Y-28743D01*
X58546Y-28767D01*
X58546Y-28827D01*
X58534Y-28850D01*
X58522Y-28862D01*
X35599Y-30633D02*
X35610Y-30645D01*
X35622Y-30680D01*
X35622Y-30704D01*
X35610Y-30740D01*
X35587Y-30764D01*
X35563Y-30776D01*
X35515Y-30787D01*
X35479Y-30787D01*
X35432Y-30776D01*
X35408Y-30764D01*
X35384Y-30740D01*
X35372Y-30704D01*
X35372Y-30680D01*
X35384Y-30645D01*
X35396Y-30633D01*
X35622Y-30395D02*
X35622Y-30537D01*
X35622Y-30466D02*
X35372Y-30466D01*
X35408Y-30490D01*
X35432Y-30514D01*
X35444Y-30537D01*
X35372Y-30168D02*
X35372Y-30287D01*
X35491Y-30299D01*
X35479Y-30287D01*
X35468Y-30264D01*
X35468Y-30204D01*
X35479Y-30180D01*
X35491Y-30168D01*
X35515Y-30156D01*
X35575Y-30156D01*
X35599Y-30168D01*
X35610Y-30180D01*
X35622Y-30204D01*
X35622Y-30264D01*
X35610Y-30287D01*
X35599Y-30299D01*
X47202Y-25908D02*
X47119Y-25789D01*
X47059Y-25908D02*
X47059Y-25658D01*
X47154Y-25658D01*
X47178Y-25670D01*
X47190Y-25682D01*
X47202Y-25705D01*
X47202Y-25741D01*
X47190Y-25765D01*
X47178Y-25777D01*
X47154Y-25789D01*
X47059Y-25789D01*
X47321Y-25908D02*
X47369Y-25908D01*
X47392Y-25896D01*
X47404Y-25884D01*
X47428Y-25848D01*
X47440Y-25801D01*
X47440Y-25705D01*
X47428Y-25682D01*
X47416Y-25670D01*
X47392Y-25658D01*
X47345Y-25658D01*
X47321Y-25670D01*
X47309Y-25682D01*
X47297Y-25705D01*
X47297Y-25765D01*
X47309Y-25789D01*
X47321Y-25801D01*
X47345Y-25813D01*
X47392Y-25813D01*
X47416Y-25801D01*
X47428Y-25789D01*
X47440Y-25765D01*
X44240Y-26063D02*
X44157Y-25944D01*
X44098Y-26063D02*
X44098Y-25813D01*
X44193Y-25813D01*
X44217Y-25825D01*
X44228Y-25837D01*
X44240Y-25861D01*
X44240Y-25897D01*
X44228Y-25920D01*
X44217Y-25932D01*
X44193Y-25944D01*
X44098Y-25944D01*
X44478Y-26063D02*
X44336Y-26063D01*
X44407Y-26063D02*
X44407Y-25813D01*
X44383Y-25849D01*
X44359Y-25873D01*
X44336Y-25885D01*
X44562Y-25813D02*
X44717Y-25813D01*
X44633Y-25909D01*
X44669Y-25909D01*
X44693Y-25920D01*
X44705Y-25932D01*
X44717Y-25956D01*
X44717Y-26016D01*
X44705Y-26039D01*
X44693Y-26051D01*
X44669Y-26063D01*
X44598Y-26063D01*
X44574Y-26051D01*
X44562Y-26039D01*
X35599Y-28763D02*
X35610Y-28774D01*
X35622Y-28810D01*
X35622Y-28834D01*
X35610Y-28870D01*
X35587Y-28894D01*
X35563Y-28905D01*
X35515Y-28917D01*
X35479Y-28917D01*
X35432Y-28905D01*
X35408Y-28894D01*
X35384Y-28870D01*
X35372Y-28834D01*
X35372Y-28810D01*
X35384Y-28774D01*
X35396Y-28763D01*
X35622Y-28524D02*
X35622Y-28667D01*
X35622Y-28596D02*
X35372Y-28596D01*
X35408Y-28620D01*
X35432Y-28644D01*
X35444Y-28667D01*
X35372Y-28310D02*
X35372Y-28358D01*
X35384Y-28382D01*
X35396Y-28394D01*
X35432Y-28417D01*
X35479Y-28429D01*
X35575Y-28429D01*
X35599Y-28417D01*
X35610Y-28405D01*
X35622Y-28382D01*
X35622Y-28334D01*
X35610Y-28310D01*
X35599Y-28298D01*
X35575Y-28286D01*
X35515Y-28286D01*
X35491Y-28298D01*
X35479Y-28310D01*
X35468Y-28334D01*
X35468Y-28382D01*
X35479Y-28405D01*
X35491Y-28417D01*
X35515Y-28429D01*
X60494Y-29117D02*
X60375Y-29200D01*
X60494Y-29260D02*
X60244Y-29260D01*
X60244Y-29165D01*
X60256Y-29141D01*
X60268Y-29129D01*
X60292Y-29117D01*
X60328Y-29117D01*
X60352Y-29129D01*
X60363Y-29141D01*
X60375Y-29165D01*
X60375Y-29260D01*
X60494Y-28879D02*
X60494Y-29022D01*
X60494Y-28950D02*
X60244Y-28950D01*
X60280Y-28974D01*
X60304Y-28998D01*
X60316Y-29022D01*
X60244Y-28724D02*
X60244Y-28700D01*
X60256Y-28676D01*
X60268Y-28665D01*
X60292Y-28653D01*
X60340Y-28641D01*
X60399Y-28641D01*
X60447Y-28653D01*
X60471Y-28665D01*
X60482Y-28676D01*
X60494Y-28700D01*
X60494Y-28724D01*
X60482Y-28748D01*
X60471Y-28760D01*
X60447Y-28772D01*
X60399Y-28784D01*
X60340Y-28784D01*
X60292Y-28772D01*
X60268Y-28760D01*
X60256Y-28748D01*
X60244Y-28724D01*
X59550Y-26341D02*
X59430Y-26425D01*
X59550Y-26484D02*
X59300Y-26484D01*
X59300Y-26389D01*
X59311Y-26365D01*
X59323Y-26353D01*
X59347Y-26341D01*
X59383Y-26341D01*
X59407Y-26353D01*
X59419Y-26365D01*
X59430Y-26389D01*
X59430Y-26484D01*
X59550Y-26103D02*
X59550Y-26246D01*
X59550Y-26175D02*
X59300Y-26175D01*
X59335Y-26198D01*
X59359Y-26222D01*
X59371Y-26246D01*
X59383Y-25889D02*
X59550Y-25889D01*
X59288Y-25948D02*
X59466Y-26008D01*
X59466Y-25853D01*
X35599Y-26794D02*
X35610Y-26806D01*
X35622Y-26842D01*
X35622Y-26866D01*
X35610Y-26901D01*
X35587Y-26925D01*
X35563Y-26937D01*
X35515Y-26949D01*
X35479Y-26949D01*
X35432Y-26937D01*
X35408Y-26925D01*
X35384Y-26901D01*
X35372Y-26866D01*
X35372Y-26842D01*
X35384Y-26806D01*
X35396Y-26794D01*
X35622Y-26556D02*
X35622Y-26699D01*
X35622Y-26627D02*
X35372Y-26627D01*
X35408Y-26651D01*
X35432Y-26675D01*
X35444Y-26699D01*
X35372Y-26473D02*
X35372Y-26306D01*
X35622Y-26413D01*
X53599Y-42709D02*
X53515Y-42590D01*
X53456Y-42709D02*
X53456Y-42459D01*
X53551Y-42459D01*
X53575Y-42471D01*
X53587Y-42483D01*
X53599Y-42507D01*
X53599Y-42542D01*
X53587Y-42566D01*
X53575Y-42578D01*
X53551Y-42590D01*
X53456Y-42590D01*
X53694Y-42483D02*
X53706Y-42471D01*
X53730Y-42459D01*
X53789Y-42459D01*
X53813Y-42471D01*
X53825Y-42483D01*
X53837Y-42507D01*
X53837Y-42530D01*
X53825Y-42566D01*
X53682Y-42709D01*
X53837Y-42709D01*
X53920Y-42459D02*
X54075Y-42459D01*
X53991Y-42554D01*
X54027Y-42554D01*
X54051Y-42566D01*
X54063Y-42578D01*
X54075Y-42602D01*
X54075Y-42661D01*
X54063Y-42685D01*
X54051Y-42697D01*
X54027Y-42709D01*
X53956Y-42709D01*
X53932Y-42697D01*
X53920Y-42685D01*
X40213Y-36016D02*
X40129Y-35897D01*
X40070Y-36016D02*
X40070Y-35766D01*
X40165Y-35766D01*
X40189Y-35778D01*
X40201Y-35790D01*
X40213Y-35814D01*
X40213Y-35849D01*
X40201Y-35873D01*
X40189Y-35885D01*
X40165Y-35897D01*
X40070Y-35897D01*
X40308Y-35790D02*
X40320Y-35778D01*
X40344Y-35766D01*
X40403Y-35766D01*
X40427Y-35778D01*
X40439Y-35790D01*
X40451Y-35814D01*
X40451Y-35837D01*
X40439Y-35873D01*
X40296Y-36016D01*
X40451Y-36016D01*
X40606Y-35766D02*
X40629Y-35766D01*
X40653Y-35778D01*
X40665Y-35790D01*
X40677Y-35814D01*
X40689Y-35861D01*
X40689Y-35921D01*
X40677Y-35968D01*
X40665Y-35992D01*
X40653Y-36004D01*
X40629Y-36016D01*
X40606Y-36016D01*
X40582Y-36004D01*
X40570Y-35992D01*
X40558Y-35968D01*
X40546Y-35921D01*
X40546Y-35861D01*
X40558Y-35814D01*
X40570Y-35790D01*
X40582Y-35778D01*
X40606Y-35766D01*
X46906Y-42709D02*
X46822Y-42590D01*
X46763Y-42709D02*
X46763Y-42459D01*
X46858Y-42459D01*
X46882Y-42471D01*
X46894Y-42483D01*
X46906Y-42507D01*
X46906Y-42542D01*
X46894Y-42566D01*
X46882Y-42578D01*
X46858Y-42590D01*
X46763Y-42590D01*
X47001Y-42483D02*
X47013Y-42471D01*
X47037Y-42459D01*
X47096Y-42459D01*
X47120Y-42471D01*
X47132Y-42483D01*
X47144Y-42507D01*
X47144Y-42530D01*
X47132Y-42566D01*
X46989Y-42709D01*
X47144Y-42709D01*
X47358Y-42542D02*
X47358Y-42709D01*
X47299Y-42447D02*
X47239Y-42626D01*
X47394Y-42626D01*
X53599Y-36016D02*
X53515Y-35897D01*
X53456Y-36016D02*
X53456Y-35766D01*
X53551Y-35766D01*
X53575Y-35778D01*
X53587Y-35790D01*
X53599Y-35814D01*
X53599Y-35849D01*
X53587Y-35873D01*
X53575Y-35885D01*
X53551Y-35897D01*
X53456Y-35897D01*
X53837Y-36016D02*
X53694Y-36016D01*
X53765Y-36016D02*
X53765Y-35766D01*
X53741Y-35802D01*
X53718Y-35826D01*
X53694Y-35837D01*
X53980Y-35873D02*
X53956Y-35861D01*
X53944Y-35849D01*
X53932Y-35826D01*
X53932Y-35814D01*
X53944Y-35790D01*
X53956Y-35778D01*
X53980Y-35766D01*
X54027Y-35766D01*
X54051Y-35778D01*
X54063Y-35790D01*
X54075Y-35814D01*
X54075Y-35826D01*
X54063Y-35849D01*
X54051Y-35861D01*
X54027Y-35873D01*
X53980Y-35873D01*
X53956Y-35885D01*
X53944Y-35897D01*
X53932Y-35921D01*
X53932Y-35968D01*
X53944Y-35992D01*
X53956Y-36004D01*
X53980Y-36016D01*
X54027Y-36016D01*
X54051Y-36004D01*
X54063Y-35992D01*
X54075Y-35968D01*
X54075Y-35921D01*
X54063Y-35897D01*
X54051Y-35885D01*
X54027Y-35873D01*
X60292Y-42709D02*
X60208Y-42590D01*
X60149Y-42709D02*
X60149Y-42459D01*
X60244Y-42459D01*
X60268Y-42471D01*
X60280Y-42483D01*
X60292Y-42507D01*
X60292Y-42542D01*
X60280Y-42566D01*
X60268Y-42578D01*
X60244Y-42590D01*
X60149Y-42590D01*
X60387Y-42483D02*
X60399Y-42471D01*
X60422Y-42459D01*
X60482Y-42459D01*
X60506Y-42471D01*
X60518Y-42483D01*
X60530Y-42507D01*
X60530Y-42530D01*
X60518Y-42566D01*
X60375Y-42709D01*
X60530Y-42709D01*
X60625Y-42483D02*
X60637Y-42471D01*
X60661Y-42459D01*
X60720Y-42459D01*
X60744Y-42471D01*
X60756Y-42483D01*
X60768Y-42507D01*
X60768Y-42530D01*
X60756Y-42566D01*
X60613Y-42709D01*
X60768Y-42709D01*
X60292Y-36016D02*
X60208Y-35897D01*
X60149Y-36016D02*
X60149Y-35766D01*
X60244Y-35766D01*
X60268Y-35778D01*
X60280Y-35790D01*
X60292Y-35814D01*
X60292Y-35849D01*
X60280Y-35873D01*
X60268Y-35885D01*
X60244Y-35897D01*
X60149Y-35897D01*
X60530Y-36016D02*
X60387Y-36016D01*
X60458Y-36016D02*
X60458Y-35766D01*
X60434Y-35802D01*
X60411Y-35826D01*
X60387Y-35837D01*
X60613Y-35766D02*
X60780Y-35766D01*
X60672Y-36016D01*
X39721Y-31026D02*
X39637Y-30907D01*
X39578Y-31026D02*
X39578Y-30776D01*
X39673Y-30776D01*
X39697Y-30788D01*
X39709Y-30800D01*
X39721Y-30824D01*
X39721Y-30859D01*
X39709Y-30883D01*
X39697Y-30895D01*
X39673Y-30907D01*
X39578Y-30907D01*
X39816Y-30800D02*
X39828Y-30788D01*
X39852Y-30776D01*
X39911Y-30776D01*
X39935Y-30788D01*
X39947Y-30800D01*
X39959Y-30824D01*
X39959Y-30847D01*
X39947Y-30883D01*
X39804Y-31026D01*
X39959Y-31026D01*
X40197Y-31026D02*
X40054Y-31026D01*
X40125Y-31026D02*
X40125Y-30776D01*
X40102Y-30812D01*
X40078Y-30835D01*
X40054Y-30847D01*
X46906Y-36016D02*
X46822Y-35897D01*
X46763Y-36016D02*
X46763Y-35766D01*
X46858Y-35766D01*
X46882Y-35778D01*
X46894Y-35790D01*
X46906Y-35814D01*
X46906Y-35849D01*
X46894Y-35873D01*
X46882Y-35885D01*
X46858Y-35897D01*
X46763Y-35897D01*
X47144Y-36016D02*
X47001Y-36016D01*
X47072Y-36016D02*
X47072Y-35766D01*
X47049Y-35802D01*
X47025Y-35826D01*
X47001Y-35837D01*
X47263Y-36016D02*
X47310Y-36016D01*
X47334Y-36004D01*
X47346Y-35992D01*
X47370Y-35957D01*
X47382Y-35909D01*
X47382Y-35814D01*
X47370Y-35790D01*
X47358Y-35778D01*
X47334Y-35766D01*
X47287Y-35766D01*
X47263Y-35778D01*
X47251Y-35790D01*
X47239Y-35814D01*
X47239Y-35873D01*
X47251Y-35897D01*
X47263Y-35909D01*
X47287Y-35921D01*
X47334Y-35921D01*
X47358Y-35909D01*
X47370Y-35897D01*
X47382Y-35873D01*
X36434Y-27679D02*
X36351Y-27560D01*
X36291Y-27679D02*
X36291Y-27429D01*
X36387Y-27429D01*
X36410Y-27441D01*
X36422Y-27453D01*
X36434Y-27477D01*
X36434Y-27513D01*
X36422Y-27537D01*
X36410Y-27548D01*
X36387Y-27560D01*
X36291Y-27560D01*
X36648Y-27513D02*
X36648Y-27679D01*
X36589Y-27418D02*
X36529Y-27596D01*
X36684Y-27596D01*
X55189Y-23844D02*
X55201Y-23856D01*
X55213Y-23892D01*
X55213Y-23916D01*
X55201Y-23951D01*
X55177Y-23975D01*
X55153Y-23987D01*
X55106Y-23999D01*
X55070Y-23999D01*
X55022Y-23987D01*
X54999Y-23975D01*
X54975Y-23951D01*
X54963Y-23916D01*
X54963Y-23892D01*
X54975Y-23856D01*
X54987Y-23844D01*
X54987Y-23749D02*
X54975Y-23737D01*
X54963Y-23713D01*
X54963Y-23654D01*
X54975Y-23630D01*
X54987Y-23618D01*
X55011Y-23606D01*
X55034Y-23606D01*
X55070Y-23618D01*
X55213Y-23761D01*
X55213Y-23606D01*
X40173Y-28703D02*
X40090Y-28584D01*
X40031Y-28703D02*
X40031Y-28453D01*
X40126Y-28453D01*
X40150Y-28465D01*
X40162Y-28477D01*
X40173Y-28501D01*
X40173Y-28536D01*
X40162Y-28560D01*
X40150Y-28572D01*
X40126Y-28584D01*
X40031Y-28584D01*
X40269Y-28477D02*
X40281Y-28465D01*
X40304Y-28453D01*
X40364Y-28453D01*
X40388Y-28465D01*
X40400Y-28477D01*
X40412Y-28501D01*
X40412Y-28524D01*
X40400Y-28560D01*
X40257Y-28703D01*
X40412Y-28703D01*
X40495Y-28453D02*
X40662Y-28453D01*
X40554Y-28703D01*
X60292Y-56095D02*
X60208Y-55976D01*
X60149Y-56095D02*
X60149Y-55845D01*
X60244Y-55845D01*
X60268Y-55857D01*
X60280Y-55869D01*
X60292Y-55892D01*
X60292Y-55928D01*
X60280Y-55952D01*
X60268Y-55964D01*
X60244Y-55976D01*
X60149Y-55976D01*
X60375Y-55845D02*
X60530Y-55845D01*
X60446Y-55940D01*
X60482Y-55940D01*
X60506Y-55952D01*
X60518Y-55964D01*
X60530Y-55988D01*
X60530Y-56047D01*
X60518Y-56071D01*
X60506Y-56083D01*
X60482Y-56095D01*
X60411Y-56095D01*
X60387Y-56083D01*
X60375Y-56071D01*
X60744Y-55928D02*
X60744Y-56095D01*
X60684Y-55833D02*
X60625Y-56011D01*
X60780Y-56011D01*
X40213Y-49402D02*
X40129Y-49283D01*
X40070Y-49402D02*
X40070Y-49152D01*
X40165Y-49152D01*
X40189Y-49164D01*
X40201Y-49176D01*
X40213Y-49199D01*
X40213Y-49235D01*
X40201Y-49259D01*
X40189Y-49271D01*
X40165Y-49283D01*
X40070Y-49283D01*
X40296Y-49152D02*
X40451Y-49152D01*
X40368Y-49247D01*
X40403Y-49247D01*
X40427Y-49259D01*
X40439Y-49271D01*
X40451Y-49295D01*
X40451Y-49354D01*
X40439Y-49378D01*
X40427Y-49390D01*
X40403Y-49402D01*
X40332Y-49402D01*
X40308Y-49390D01*
X40296Y-49378D01*
X40689Y-49402D02*
X40546Y-49402D01*
X40618Y-49402D02*
X40618Y-49152D01*
X40594Y-49188D01*
X40570Y-49211D01*
X40546Y-49223D01*
X53599Y-56095D02*
X53515Y-55976D01*
X53456Y-56095D02*
X53456Y-55845D01*
X53551Y-55845D01*
X53575Y-55857D01*
X53587Y-55869D01*
X53599Y-55892D01*
X53599Y-55928D01*
X53587Y-55952D01*
X53575Y-55964D01*
X53551Y-55976D01*
X53456Y-55976D01*
X53682Y-55845D02*
X53837Y-55845D01*
X53753Y-55940D01*
X53789Y-55940D01*
X53813Y-55952D01*
X53825Y-55964D01*
X53837Y-55988D01*
X53837Y-56047D01*
X53825Y-56071D01*
X53813Y-56083D01*
X53789Y-56095D01*
X53718Y-56095D01*
X53694Y-56083D01*
X53682Y-56071D01*
X54063Y-55845D02*
X53944Y-55845D01*
X53932Y-55964D01*
X53944Y-55952D01*
X53968Y-55940D01*
X54027Y-55940D01*
X54051Y-55952D01*
X54063Y-55964D01*
X54075Y-55988D01*
X54075Y-56047D01*
X54063Y-56071D01*
X54051Y-56083D01*
X54027Y-56095D01*
X53968Y-56095D01*
X53944Y-56083D01*
X53932Y-56071D01*
X46906Y-49402D02*
X46822Y-49283D01*
X46763Y-49402D02*
X46763Y-49152D01*
X46858Y-49152D01*
X46882Y-49164D01*
X46894Y-49176D01*
X46906Y-49199D01*
X46906Y-49235D01*
X46894Y-49259D01*
X46882Y-49271D01*
X46858Y-49283D01*
X46763Y-49283D01*
X46989Y-49152D02*
X47144Y-49152D01*
X47060Y-49247D01*
X47096Y-49247D01*
X47120Y-49259D01*
X47132Y-49271D01*
X47144Y-49295D01*
X47144Y-49354D01*
X47132Y-49378D01*
X47120Y-49390D01*
X47096Y-49402D01*
X47025Y-49402D01*
X47001Y-49390D01*
X46989Y-49378D01*
X47299Y-49152D02*
X47322Y-49152D01*
X47346Y-49164D01*
X47358Y-49176D01*
X47370Y-49199D01*
X47382Y-49247D01*
X47382Y-49307D01*
X47370Y-49354D01*
X47358Y-49378D01*
X47346Y-49390D01*
X47322Y-49402D01*
X47299Y-49402D01*
X47275Y-49390D01*
X47263Y-49378D01*
X47251Y-49354D01*
X47239Y-49307D01*
X47239Y-49247D01*
X47251Y-49199D01*
X47263Y-49176D01*
X47275Y-49164D01*
X47299Y-49152D01*
X53599Y-49402D02*
X53515Y-49283D01*
X53456Y-49402D02*
X53456Y-49152D01*
X53551Y-49152D01*
X53575Y-49164D01*
X53587Y-49176D01*
X53599Y-49199D01*
X53599Y-49235D01*
X53587Y-49259D01*
X53575Y-49271D01*
X53551Y-49283D01*
X53456Y-49283D01*
X53694Y-49176D02*
X53706Y-49164D01*
X53730Y-49152D01*
X53789Y-49152D01*
X53813Y-49164D01*
X53825Y-49176D01*
X53837Y-49199D01*
X53837Y-49223D01*
X53825Y-49259D01*
X53682Y-49402D01*
X53837Y-49402D01*
X53956Y-49402D02*
X54003Y-49402D01*
X54027Y-49390D01*
X54039Y-49378D01*
X54063Y-49342D01*
X54075Y-49295D01*
X54075Y-49199D01*
X54063Y-49176D01*
X54051Y-49164D01*
X54027Y-49152D01*
X53980Y-49152D01*
X53956Y-49164D01*
X53944Y-49176D01*
X53932Y-49199D01*
X53932Y-49259D01*
X53944Y-49283D01*
X53956Y-49295D01*
X53980Y-49307D01*
X54027Y-49307D01*
X54051Y-49295D01*
X54063Y-49283D01*
X54075Y-49259D01*
X60292Y-49402D02*
X60208Y-49283D01*
X60149Y-49402D02*
X60149Y-49152D01*
X60244Y-49152D01*
X60268Y-49164D01*
X60280Y-49176D01*
X60292Y-49199D01*
X60292Y-49235D01*
X60280Y-49259D01*
X60268Y-49271D01*
X60244Y-49283D01*
X60149Y-49283D01*
X60387Y-49176D02*
X60399Y-49164D01*
X60422Y-49152D01*
X60482Y-49152D01*
X60506Y-49164D01*
X60518Y-49176D01*
X60530Y-49199D01*
X60530Y-49223D01*
X60518Y-49259D01*
X60375Y-49402D01*
X60530Y-49402D01*
X60672Y-49259D02*
X60649Y-49247D01*
X60637Y-49235D01*
X60625Y-49211D01*
X60625Y-49199D01*
X60637Y-49176D01*
X60649Y-49164D01*
X60672Y-49152D01*
X60720Y-49152D01*
X60744Y-49164D01*
X60756Y-49176D01*
X60768Y-49199D01*
X60768Y-49211D01*
X60756Y-49235D01*
X60744Y-49247D01*
X60720Y-49259D01*
X60672Y-49259D01*
X60649Y-49271D01*
X60637Y-49283D01*
X60625Y-49307D01*
X60625Y-49354D01*
X60637Y-49378D01*
X60649Y-49390D01*
X60672Y-49402D01*
X60720Y-49402D01*
X60744Y-49390D01*
X60756Y-49378D01*
X60768Y-49354D01*
X60768Y-49307D01*
X60756Y-49283D01*
X60744Y-49271D01*
X60720Y-49259D01*
X46906Y-56095D02*
X46822Y-55976D01*
X46763Y-56095D02*
X46763Y-55845D01*
X46858Y-55845D01*
X46882Y-55857D01*
X46894Y-55869D01*
X46906Y-55892D01*
X46906Y-55928D01*
X46894Y-55952D01*
X46882Y-55964D01*
X46858Y-55976D01*
X46763Y-55976D01*
X46989Y-55845D02*
X47144Y-55845D01*
X47060Y-55940D01*
X47096Y-55940D01*
X47120Y-55952D01*
X47132Y-55964D01*
X47144Y-55988D01*
X47144Y-56047D01*
X47132Y-56071D01*
X47120Y-56083D01*
X47096Y-56095D01*
X47025Y-56095D01*
X47001Y-56083D01*
X46989Y-56071D01*
X47358Y-55845D02*
X47310Y-55845D01*
X47287Y-55857D01*
X47275Y-55869D01*
X47251Y-55904D01*
X47239Y-55952D01*
X47239Y-56047D01*
X47251Y-56071D01*
X47263Y-56083D01*
X47287Y-56095D01*
X47334Y-56095D01*
X47358Y-56083D01*
X47370Y-56071D01*
X47382Y-56047D01*
X47382Y-55988D01*
X47370Y-55964D01*
X47358Y-55952D01*
X47334Y-55940D01*
X47287Y-55940D01*
X47263Y-55952D01*
X47251Y-55964D01*
X47239Y-55988D01*
X40213Y-42709D02*
X40129Y-42590D01*
X40070Y-42709D02*
X40070Y-42459D01*
X40165Y-42459D01*
X40189Y-42471D01*
X40201Y-42483D01*
X40213Y-42507D01*
X40213Y-42542D01*
X40201Y-42566D01*
X40189Y-42578D01*
X40165Y-42590D01*
X40070Y-42590D01*
X40308Y-42483D02*
X40320Y-42471D01*
X40344Y-42459D01*
X40403Y-42459D01*
X40427Y-42471D01*
X40439Y-42483D01*
X40451Y-42507D01*
X40451Y-42530D01*
X40439Y-42566D01*
X40296Y-42709D01*
X40451Y-42709D01*
X40677Y-42459D02*
X40558Y-42459D01*
X40546Y-42578D01*
X40558Y-42566D01*
X40582Y-42554D01*
X40641Y-42554D01*
X40665Y-42566D01*
X40677Y-42578D01*
X40689Y-42602D01*
X40689Y-42661D01*
X40677Y-42685D01*
X40665Y-42697D01*
X40641Y-42709D01*
X40582Y-42709D01*
X40558Y-42697D01*
X40546Y-42685D01*
X40213Y-56095D02*
X40129Y-55976D01*
X40070Y-56095D02*
X40070Y-55845D01*
X40165Y-55845D01*
X40189Y-55857D01*
X40201Y-55869D01*
X40213Y-55892D01*
X40213Y-55928D01*
X40201Y-55952D01*
X40189Y-55964D01*
X40165Y-55976D01*
X40070Y-55976D01*
X40296Y-55845D02*
X40451Y-55845D01*
X40368Y-55940D01*
X40403Y-55940D01*
X40427Y-55952D01*
X40439Y-55964D01*
X40451Y-55988D01*
X40451Y-56047D01*
X40439Y-56071D01*
X40427Y-56083D01*
X40403Y-56095D01*
X40332Y-56095D01*
X40308Y-56083D01*
X40296Y-56071D01*
X40534Y-55845D02*
X40701Y-55845D01*
X40594Y-56095D01*
X40075Y-29353D02*
X39992Y-29234D01*
X39932Y-29353D02*
X39932Y-29103D01*
X40027Y-29103D01*
X40051Y-29115D01*
X40063Y-29126D01*
X40075Y-29150D01*
X40075Y-29186D01*
X40063Y-29210D01*
X40051Y-29222D01*
X40027Y-29234D01*
X39932Y-29234D01*
X40170Y-29126D02*
X40182Y-29115D01*
X40206Y-29103D01*
X40265Y-29103D01*
X40289Y-29115D01*
X40301Y-29126D01*
X40313Y-29150D01*
X40313Y-29174D01*
X40301Y-29210D01*
X40158Y-29353D01*
X40313Y-29353D01*
X40527Y-29103D02*
X40480Y-29103D01*
X40456Y-29115D01*
X40444Y-29126D01*
X40420Y-29162D01*
X40408Y-29210D01*
X40408Y-29305D01*
X40420Y-29329D01*
X40432Y-29341D01*
X40456Y-29353D01*
X40504Y-29353D01*
X40527Y-29341D01*
X40539Y-29329D01*
X40551Y-29305D01*
X40551Y-29246D01*
X40539Y-29222D01*
X40527Y-29210D01*
X40504Y-29198D01*
X40456Y-29198D01*
X40432Y-29210D01*
X40420Y-29222D01*
X40408Y-29246D01*
X39780Y-28132D02*
X39696Y-28013D01*
X39637Y-28132D02*
X39637Y-27882D01*
X39732Y-27882D01*
X39756Y-27894D01*
X39768Y-27906D01*
X39780Y-27930D01*
X39780Y-27966D01*
X39768Y-27989D01*
X39756Y-28001D01*
X39732Y-28013D01*
X39637Y-28013D01*
X39863Y-27882D02*
X40018Y-27882D01*
X39934Y-27977D01*
X39970Y-27977D01*
X39994Y-27989D01*
X40006Y-28001D01*
X40018Y-28025D01*
X40018Y-28085D01*
X40006Y-28108D01*
X39994Y-28120D01*
X39970Y-28132D01*
X39899Y-28132D01*
X39875Y-28120D01*
X39863Y-28108D01*
X40113Y-27906D02*
X40125Y-27894D01*
X40149Y-27882D01*
X40208Y-27882D01*
X40232Y-27894D01*
X40244Y-27906D01*
X40256Y-27930D01*
X40256Y-27954D01*
X40244Y-27989D01*
X40101Y-28132D01*
X40256Y-28132D01*
X39977Y-27581D02*
X39893Y-27462D01*
X39834Y-27581D02*
X39834Y-27331D01*
X39929Y-27331D01*
X39953Y-27343D01*
X39965Y-27355D01*
X39977Y-27379D01*
X39977Y-27414D01*
X39965Y-27438D01*
X39953Y-27450D01*
X39929Y-27462D01*
X39834Y-27462D01*
X40060Y-27331D02*
X40215Y-27331D01*
X40131Y-27426D01*
X40167Y-27426D01*
X40191Y-27438D01*
X40203Y-27450D01*
X40215Y-27474D01*
X40215Y-27533D01*
X40203Y-27557D01*
X40191Y-27569D01*
X40167Y-27581D01*
X40096Y-27581D01*
X40072Y-27569D01*
X40060Y-27557D01*
X40298Y-27331D02*
X40453Y-27331D01*
X40369Y-27426D01*
X40405Y-27426D01*
X40429Y-27438D01*
X40441Y-27450D01*
X40453Y-27474D01*
X40453Y-27533D01*
X40441Y-27557D01*
X40429Y-27569D01*
X40405Y-27581D01*
X40334Y-27581D01*
X40310Y-27569D01*
X40298Y-27557D01*
X40095Y-26754D02*
X40011Y-26635D01*
X39952Y-26754D02*
X39952Y-26504D01*
X40047Y-26504D01*
X40071Y-26516D01*
X40083Y-26528D01*
X40095Y-26552D01*
X40095Y-26588D01*
X40083Y-26611D01*
X40071Y-26623D01*
X40047Y-26635D01*
X39952Y-26635D01*
X40178Y-26504D02*
X40333Y-26504D01*
X40249Y-26599D01*
X40285Y-26599D01*
X40309Y-26611D01*
X40321Y-26623D01*
X40333Y-26647D01*
X40333Y-26707D01*
X40321Y-26730D01*
X40309Y-26742D01*
X40285Y-26754D01*
X40214Y-26754D01*
X40190Y-26742D01*
X40178Y-26730D01*
X40476Y-26611D02*
X40452Y-26599D01*
X40440Y-26588D01*
X40428Y-26564D01*
X40428Y-26552D01*
X40440Y-26528D01*
X40452Y-26516D01*
X40476Y-26504D01*
X40523Y-26504D01*
X40547Y-26516D01*
X40559Y-26528D01*
X40571Y-26552D01*
X40571Y-26564D01*
X40559Y-26588D01*
X40547Y-26599D01*
X40523Y-26611D01*
X40476Y-26611D01*
X40452Y-26623D01*
X40440Y-26635D01*
X40428Y-26659D01*
X40428Y-26707D01*
X40440Y-26730D01*
X40452Y-26742D01*
X40476Y-26754D01*
X40523Y-26754D01*
X40547Y-26742D01*
X40559Y-26730D01*
X40571Y-26707D01*
X40571Y-26659D01*
X40559Y-26635D01*
X40547Y-26623D01*
X40523Y-26611D01*
X39780Y-25731D02*
X39696Y-25612D01*
X39637Y-25731D02*
X39637Y-25481D01*
X39732Y-25481D01*
X39756Y-25493D01*
X39768Y-25504D01*
X39780Y-25528D01*
X39780Y-25564D01*
X39768Y-25588D01*
X39756Y-25600D01*
X39732Y-25612D01*
X39637Y-25612D01*
X39863Y-25481D02*
X40018Y-25481D01*
X39934Y-25576D01*
X39970Y-25576D01*
X39994Y-25588D01*
X40006Y-25600D01*
X40018Y-25623D01*
X40018Y-25683D01*
X40006Y-25707D01*
X39994Y-25719D01*
X39970Y-25731D01*
X39899Y-25731D01*
X39875Y-25719D01*
X39863Y-25707D01*
X40137Y-25731D02*
X40184Y-25731D01*
X40208Y-25719D01*
X40220Y-25707D01*
X40244Y-25671D01*
X40256Y-25623D01*
X40256Y-25528D01*
X40244Y-25504D01*
X40232Y-25493D01*
X40208Y-25481D01*
X40161Y-25481D01*
X40137Y-25493D01*
X40125Y-25504D01*
X40113Y-25528D01*
X40113Y-25588D01*
X40125Y-25612D01*
X40137Y-25623D01*
X40161Y-25635D01*
X40208Y-25635D01*
X40232Y-25623D01*
X40244Y-25612D01*
X40256Y-25588D01*
X39740Y-24372D02*
X39657Y-24253D01*
X39598Y-24372D02*
X39598Y-24122D01*
X39693Y-24122D01*
X39717Y-24134D01*
X39728Y-24146D01*
X39740Y-24170D01*
X39740Y-24206D01*
X39728Y-24229D01*
X39717Y-24241D01*
X39693Y-24253D01*
X39598Y-24253D01*
X39955Y-24206D02*
X39955Y-24372D01*
X39895Y-24110D02*
X39836Y-24289D01*
X39990Y-24289D01*
X40133Y-24122D02*
X40157Y-24122D01*
X40181Y-24134D01*
X40193Y-24146D01*
X40205Y-24170D01*
X40217Y-24218D01*
X40217Y-24277D01*
X40205Y-24325D01*
X40193Y-24349D01*
X40181Y-24360D01*
X40157Y-24372D01*
X40133Y-24372D01*
X40109Y-24360D01*
X40098Y-24349D01*
X40086Y-24325D01*
X40074Y-24277D01*
X40074Y-24218D01*
X40086Y-24170D01*
X40098Y-24146D01*
X40109Y-24134D01*
X40133Y-24122D01*
X47222Y-25160D02*
X47138Y-25041D01*
X47079Y-25160D02*
X47079Y-24910D01*
X47174Y-24910D01*
X47198Y-24922D01*
X47210Y-24934D01*
X47222Y-24957D01*
X47222Y-24993D01*
X47210Y-25017D01*
X47198Y-25029D01*
X47174Y-25041D01*
X47079Y-25041D01*
X47305Y-24910D02*
X47472Y-24910D01*
X47364Y-25160D01*
X36454Y-23723D02*
X36371Y-23604D01*
X36311Y-23723D02*
X36311Y-23473D01*
X36406Y-23473D01*
X36430Y-23485D01*
X36442Y-23497D01*
X36454Y-23520D01*
X36454Y-23556D01*
X36442Y-23580D01*
X36430Y-23592D01*
X36406Y-23604D01*
X36311Y-23604D01*
X36597Y-23580D02*
X36573Y-23568D01*
X36561Y-23556D01*
X36549Y-23532D01*
X36549Y-23520D01*
X36561Y-23497D01*
X36573Y-23485D01*
X36597Y-23473D01*
X36644Y-23473D01*
X36668Y-23485D01*
X36680Y-23497D01*
X36692Y-23520D01*
X36692Y-23532D01*
X36680Y-23556D01*
X36668Y-23568D01*
X36644Y-23580D01*
X36597Y-23580D01*
X36573Y-23592D01*
X36561Y-23604D01*
X36549Y-23627D01*
X36549Y-23675D01*
X36561Y-23699D01*
X36573Y-23711D01*
X36597Y-23723D01*
X36644Y-23723D01*
X36668Y-23711D01*
X36680Y-23699D01*
X36692Y-23675D01*
X36692Y-23627D01*
X36680Y-23604D01*
X36668Y-23592D01*
X36644Y-23580D01*
X36434Y-25770D02*
X36351Y-25651D01*
X36291Y-25770D02*
X36291Y-25520D01*
X36387Y-25520D01*
X36410Y-25532D01*
X36422Y-25544D01*
X36434Y-25568D01*
X36434Y-25603D01*
X36422Y-25627D01*
X36410Y-25639D01*
X36387Y-25651D01*
X36291Y-25651D01*
X36648Y-25520D02*
X36601Y-25520D01*
X36577Y-25532D01*
X36565Y-25544D01*
X36541Y-25580D01*
X36529Y-25627D01*
X36529Y-25722D01*
X36541Y-25746D01*
X36553Y-25758D01*
X36577Y-25770D01*
X36625Y-25770D01*
X36648Y-25758D01*
X36660Y-25746D01*
X36672Y-25722D01*
X36672Y-25663D01*
X36660Y-25639D01*
X36648Y-25627D01*
X36625Y-25615D01*
X36577Y-25615D01*
X36553Y-25627D01*
X36541Y-25639D01*
X36529Y-25663D01*
X61593Y-27462D02*
X61605Y-27474D01*
X61616Y-27510D01*
X61616Y-27534D01*
X61605Y-27570D01*
X61581Y-27593D01*
X61557Y-27605D01*
X61509Y-27617D01*
X61474Y-27617D01*
X61426Y-27605D01*
X61402Y-27593D01*
X61378Y-27570D01*
X61366Y-27534D01*
X61366Y-27510D01*
X61378Y-27474D01*
X61390Y-27462D01*
X61366Y-27379D02*
X61366Y-27224D01*
X61462Y-27308D01*
X61462Y-27272D01*
X61474Y-27248D01*
X61485Y-27236D01*
X61509Y-27224D01*
X61569Y-27224D01*
X61593Y-27236D01*
X61605Y-27248D01*
X61616Y-27272D01*
X61616Y-27343D01*
X61605Y-27367D01*
X61593Y-27379D01*
X61557Y-26124D02*
X61438Y-26207D01*
X61557Y-26267D02*
X61307Y-26267D01*
X61307Y-26171D01*
X61319Y-26148D01*
X61331Y-26136D01*
X61355Y-26124D01*
X61391Y-26124D01*
X61415Y-26136D01*
X61426Y-26148D01*
X61438Y-26171D01*
X61438Y-26267D01*
X61307Y-25898D02*
X61307Y-26017D01*
X61426Y-26029D01*
X61415Y-26017D01*
X61403Y-25993D01*
X61403Y-25933D01*
X61415Y-25910D01*
X61426Y-25898D01*
X61450Y-25886D01*
X61510Y-25886D01*
X61534Y-25898D01*
X61545Y-25910D01*
X61557Y-25933D01*
X61557Y-25993D01*
X61545Y-26017D01*
X61534Y-26029D01*
X60471Y-27482D02*
X60482Y-27494D01*
X60494Y-27530D01*
X60494Y-27554D01*
X60482Y-27589D01*
X60459Y-27613D01*
X60435Y-27625D01*
X60387Y-27637D01*
X60352Y-27637D01*
X60304Y-27625D01*
X60280Y-27613D01*
X60256Y-27589D01*
X60244Y-27554D01*
X60244Y-27530D01*
X60256Y-27494D01*
X60268Y-27482D01*
X60244Y-27256D02*
X60244Y-27375D01*
X60363Y-27387D01*
X60352Y-27375D01*
X60340Y-27351D01*
X60340Y-27292D01*
X60352Y-27268D01*
X60363Y-27256D01*
X60387Y-27244D01*
X60447Y-27244D01*
X60471Y-27256D01*
X60482Y-27268D01*
X60494Y-27292D01*
X60494Y-27351D01*
X60482Y-27375D01*
X60471Y-27387D01*
X53903Y-31508D02*
X53891Y-31520D01*
X53855Y-31532D01*
X53831Y-31532D01*
X53796Y-31520D01*
X53772Y-31496D01*
X53760Y-31472D01*
X53748Y-31425D01*
X53748Y-31389D01*
X53760Y-31341D01*
X53772Y-31318D01*
X53796Y-31294D01*
X53831Y-31282D01*
X53855Y-31282D01*
X53891Y-31294D01*
X53903Y-31306D01*
X54117Y-31282D02*
X54069Y-31282D01*
X54046Y-31294D01*
X54034Y-31306D01*
X54010Y-31341D01*
X53998Y-31389D01*
X53998Y-31484D01*
X54010Y-31508D01*
X54022Y-31520D01*
X54046Y-31532D01*
X54093Y-31532D01*
X54117Y-31520D01*
X54129Y-31508D01*
X54141Y-31484D01*
X54141Y-31425D01*
X54129Y-31401D01*
X54117Y-31389D01*
X54093Y-31377D01*
X54046Y-31377D01*
X54022Y-31389D01*
X54010Y-31401D01*
X53998Y-31425D01*
X48568Y-29791D02*
X48556Y-29803D01*
X48520Y-29815D01*
X48497Y-29815D01*
X48461Y-29803D01*
X48437Y-29780D01*
X48425Y-29756D01*
X48413Y-29708D01*
X48413Y-29672D01*
X48425Y-29625D01*
X48437Y-29601D01*
X48461Y-29577D01*
X48497Y-29565D01*
X48520Y-29565D01*
X48556Y-29577D01*
X48568Y-29589D01*
X48711Y-29672D02*
X48687Y-29660D01*
X48675Y-29649D01*
X48663Y-29625D01*
X48663Y-29613D01*
X48675Y-29589D01*
X48687Y-29577D01*
X48711Y-29565D01*
X48759Y-29565D01*
X48782Y-29577D01*
X48794Y-29589D01*
X48806Y-29613D01*
X48806Y-29625D01*
X48794Y-29649D01*
X48782Y-29660D01*
X48759Y-29672D01*
X48711Y-29672D01*
X48687Y-29684D01*
X48675Y-29696D01*
X48663Y-29720D01*
X48663Y-29768D01*
X48675Y-29791D01*
X48687Y-29803D01*
X48711Y-29815D01*
X48759Y-29815D01*
X48782Y-29803D01*
X48794Y-29791D01*
X48806Y-29768D01*
X48806Y-29720D01*
X48794Y-29696D01*
X48782Y-29684D01*
X48759Y-29672D01*
X56701Y-26115D02*
X56713Y-26127D01*
X56725Y-26163D01*
X56725Y-26186D01*
X56713Y-26222D01*
X56689Y-26246D01*
X56665Y-26258D01*
X56618Y-26270D01*
X56582Y-26270D01*
X56534Y-26258D01*
X56510Y-26246D01*
X56487Y-26222D01*
X56475Y-26186D01*
X56475Y-26163D01*
X56487Y-26127D01*
X56499Y-26115D01*
X56725Y-25877D02*
X56725Y-26020D01*
X56725Y-25948D02*
X56475Y-25948D01*
X56510Y-25972D01*
X56534Y-25996D01*
X56546Y-26020D01*
X56725Y-25758D02*
X56725Y-25710D01*
X56713Y-25686D01*
X56701Y-25674D01*
X56665Y-25651D01*
X56618Y-25639D01*
X56522Y-25639D01*
X56499Y-25651D01*
X56487Y-25663D01*
X56475Y-25686D01*
X56475Y-25734D01*
X56487Y-25758D01*
X56499Y-25770D01*
X56522Y-25782D01*
X56582Y-25782D01*
X56606Y-25770D01*
X56618Y-25758D01*
X56629Y-25734D01*
X56629Y-25686D01*
X56618Y-25663D01*
X56606Y-25651D01*
X56582Y-25639D01*
X56345Y-28433D02*
X56333Y-28445D01*
X56297Y-28457D01*
X56273Y-28457D01*
X56238Y-28445D01*
X56214Y-28421D01*
X56202Y-28397D01*
X56190Y-28350D01*
X56190Y-28314D01*
X56202Y-28267D01*
X56214Y-28243D01*
X56238Y-28219D01*
X56273Y-28207D01*
X56297Y-28207D01*
X56333Y-28219D01*
X56345Y-28231D01*
X56440Y-28231D02*
X56452Y-28219D01*
X56476Y-28207D01*
X56535Y-28207D01*
X56559Y-28219D01*
X56571Y-28231D01*
X56583Y-28255D01*
X56583Y-28278D01*
X56571Y-28314D01*
X56428Y-28457D01*
X56583Y-28457D01*
X56738Y-28207D02*
X56761Y-28207D01*
X56785Y-28219D01*
X56797Y-28231D01*
X56809Y-28255D01*
X56821Y-28302D01*
X56821Y-28362D01*
X56809Y-28409D01*
X56797Y-28433D01*
X56785Y-28445D01*
X56761Y-28457D01*
X56738Y-28457D01*
X56714Y-28445D01*
X56702Y-28433D01*
X56690Y-28409D01*
X56678Y-28362D01*
X56678Y-28302D01*
X56690Y-28255D01*
X56702Y-28231D01*
X56714Y-28219D01*
X56738Y-28207D01*
%LPC*%
G54D20*
X34468Y-23385D03*
X62814Y-59606D03*
X34468Y-59606D03*
X62814Y-23385D03*
G54D21*
X49113Y-22400D03*
G54D22*
X48169Y-22400D03*
G54D23*
X47145Y-22400D03*
G54D24*
X49861Y-23404D03*
G54D25*
X49152Y-23454D03*
X48896Y-23454D03*
X48641Y-23454D03*
X48386Y-23454D03*
X48130Y-23454D03*
G54D24*
X47421Y-23404D03*
G54D23*
X50137Y-22400D03*
G54D26*
X37874Y-55472D03*
X39330Y-55472D03*
X57952Y-55472D03*
X59409Y-55472D03*
X37874Y-48779D03*
X39330Y-48779D03*
X57952Y-48779D03*
X59409Y-48779D03*
X37874Y-42086D03*
X39330Y-42086D03*
X57952Y-42086D03*
X59409Y-42086D03*
X37874Y-35393D03*
X39330Y-35393D03*
X57952Y-35393D03*
X59409Y-35393D03*
X44694Y-26417D03*
X46151Y-26417D03*
G54D27*
X44685Y-22933D03*
G54D28*
X50003Y-30814D03*
X50003Y-29240D03*
G54D27*
X41677Y-23944D03*
G54D29*
X41677Y-22944D03*
X42677Y-23944D03*
X42677Y-22944D03*
X43677Y-23944D03*
X43677Y-22944D03*
G54D30*
X36822Y-30570D03*
X37822Y-30195D03*
X37822Y-30945D03*
X36822Y-28602D03*
X37822Y-28227D03*
X37822Y-28977D03*
X36822Y-24665D03*
X37822Y-24290D03*
X37822Y-25040D03*
X36822Y-26633D03*
X37822Y-26258D03*
X37822Y-27008D03*
G54D10*
G36*
X54212Y-25954D02*
X54778Y-25388D01*
X55032Y-25643D01*
X54466Y-26208D01*
X54212Y-25954D01*
X54212Y-25954D01*
G37*
G36*
X53989Y-25731D02*
X54555Y-25165D01*
X54809Y-25420D01*
X54244Y-25986D01*
X53989Y-25731D01*
X53989Y-25731D01*
G37*
G36*
X53766Y-25508D02*
X54332Y-24943D01*
X54587Y-25197D01*
X54021Y-25763D01*
X53766Y-25508D01*
X53766Y-25508D01*
G37*
G36*
X53544Y-25286D02*
X54109Y-24720D01*
X54364Y-24974D01*
X53798Y-25540D01*
X53544Y-25286D01*
X53544Y-25286D01*
G37*
G36*
X53321Y-25063D02*
X53887Y-24497D01*
X54141Y-24752D01*
X53575Y-25317D01*
X53321Y-25063D01*
X53321Y-25063D01*
G37*
G36*
X53098Y-24840D02*
X53664Y-24274D01*
X53918Y-24529D01*
X53353Y-25095D01*
X53098Y-24840D01*
X53098Y-24840D01*
G37*
G36*
X54435Y-26177D02*
X55000Y-25611D01*
X55255Y-25865D01*
X54689Y-26431D01*
X54435Y-26177D01*
X54435Y-26177D01*
G37*
G36*
X54657Y-26399D02*
X55223Y-25834D01*
X55478Y-26088D01*
X54912Y-26654D01*
X54657Y-26399D01*
X54657Y-26399D01*
G37*
G36*
X54880Y-26622D02*
X55446Y-26056D01*
X55700Y-26311D01*
X55135Y-26877D01*
X54880Y-26622D01*
X54880Y-26622D01*
G37*
G36*
X55103Y-26845D02*
X55669Y-26279D01*
X55923Y-26534D01*
X55357Y-27099D01*
X55103Y-26845D01*
X55103Y-26845D01*
G37*
G36*
X55326Y-27068D02*
X55891Y-26502D01*
X56146Y-26756D01*
X55580Y-27322D01*
X55326Y-27068D01*
X55326Y-27068D01*
G37*
G36*
X51030Y-29136D02*
X51596Y-28570D01*
X51850Y-28825D01*
X51284Y-29390D01*
X51030Y-29136D01*
X51030Y-29136D01*
G37*
G36*
X50807Y-28913D02*
X51373Y-28347D01*
X51627Y-28602D01*
X51062Y-29168D01*
X50807Y-28913D01*
X50807Y-28913D01*
G37*
G36*
X50584Y-28690D02*
X51150Y-28125D01*
X51405Y-28379D01*
X50839Y-28945D01*
X50584Y-28690D01*
X50584Y-28690D01*
G37*
G36*
X50362Y-28468D02*
X50927Y-27902D01*
X51182Y-28156D01*
X50616Y-28722D01*
X50362Y-28468D01*
X50362Y-28468D01*
G37*
G36*
X50139Y-28245D02*
X50705Y-27679D01*
X50959Y-27934D01*
X50393Y-28499D01*
X50139Y-28245D01*
X50139Y-28245D01*
G37*
G36*
X49916Y-28022D02*
X50482Y-27456D01*
X50736Y-27711D01*
X50171Y-28277D01*
X49916Y-28022D01*
X49916Y-28022D01*
G37*
G36*
X51253Y-29359D02*
X51818Y-28793D01*
X52073Y-29047D01*
X51507Y-29613D01*
X51253Y-29359D01*
X51253Y-29359D01*
G37*
G36*
X51475Y-29581D02*
X52041Y-29016D01*
X52296Y-29270D01*
X51730Y-29836D01*
X51475Y-29581D01*
X51475Y-29581D01*
G37*
G36*
X51698Y-29804D02*
X52264Y-29238D01*
X52518Y-29493D01*
X51953Y-30059D01*
X51698Y-29804D01*
X51698Y-29804D01*
G37*
G36*
X51921Y-30027D02*
X52487Y-29461D01*
X52741Y-29716D01*
X52175Y-30281D01*
X51921Y-30027D01*
X51921Y-30027D01*
G37*
G36*
X52144Y-30250D02*
X52709Y-29684D01*
X52964Y-29938D01*
X52398Y-30504D01*
X52144Y-30250D01*
X52144Y-30250D01*
G37*
G36*
X51030Y-25643D02*
X51284Y-25388D01*
X51850Y-25954D01*
X51596Y-26208D01*
X51030Y-25643D01*
X51030Y-25643D01*
G37*
G36*
X54212Y-28825D02*
X54466Y-28570D01*
X55032Y-29136D01*
X54778Y-29390D01*
X54212Y-28825D01*
X54212Y-28825D01*
G37*
G36*
X50807Y-25865D02*
X51062Y-25611D01*
X51627Y-26177D01*
X51373Y-26431D01*
X50807Y-25865D01*
X50807Y-25865D01*
G37*
G36*
X53989Y-29047D02*
X54244Y-28793D01*
X54809Y-29359D01*
X54555Y-29613D01*
X53989Y-29047D01*
X53989Y-29047D01*
G37*
G36*
X53766Y-29270D02*
X54021Y-29016D01*
X54587Y-29581D01*
X54332Y-29836D01*
X53766Y-29270D01*
X53766Y-29270D01*
G37*
G36*
X50584Y-26088D02*
X50839Y-25834D01*
X51405Y-26399D01*
X51150Y-26654D01*
X50584Y-26088D01*
X50584Y-26088D01*
G37*
G36*
X50362Y-26311D02*
X50616Y-26056D01*
X51182Y-26622D01*
X50927Y-26877D01*
X50362Y-26311D01*
X50362Y-26311D01*
G37*
G36*
X53544Y-29493D02*
X53798Y-29238D01*
X54364Y-29804D01*
X54109Y-30059D01*
X53544Y-29493D01*
X53544Y-29493D01*
G37*
G36*
X53321Y-29716D02*
X53575Y-29461D01*
X54141Y-30027D01*
X53887Y-30281D01*
X53321Y-29716D01*
X53321Y-29716D01*
G37*
G36*
X50139Y-26534D02*
X50393Y-26279D01*
X50959Y-26845D01*
X50705Y-27099D01*
X50139Y-26534D01*
X50139Y-26534D01*
G37*
G36*
X49916Y-26756D02*
X50171Y-26502D01*
X50736Y-27068D01*
X50482Y-27322D01*
X49916Y-26756D01*
X49916Y-26756D01*
G37*
G36*
X53098Y-29938D02*
X53353Y-29684D01*
X53918Y-30250D01*
X53664Y-30504D01*
X53098Y-29938D01*
X53098Y-29938D01*
G37*
G36*
X54435Y-28602D02*
X54689Y-28347D01*
X55255Y-28913D01*
X55000Y-29168D01*
X54435Y-28602D01*
X54435Y-28602D01*
G37*
G36*
X51253Y-25420D02*
X51507Y-25165D01*
X52073Y-25731D01*
X51818Y-25986D01*
X51253Y-25420D01*
X51253Y-25420D01*
G37*
G36*
X51475Y-25197D02*
X51730Y-24943D01*
X52296Y-25508D01*
X52041Y-25763D01*
X51475Y-25197D01*
X51475Y-25197D01*
G37*
G36*
X54657Y-28379D02*
X54912Y-28125D01*
X55478Y-28690D01*
X55223Y-28945D01*
X54657Y-28379D01*
X54657Y-28379D01*
G37*
G36*
X54880Y-28156D02*
X55135Y-27902D01*
X55700Y-28468D01*
X55446Y-28722D01*
X54880Y-28156D01*
X54880Y-28156D01*
G37*
G36*
X51698Y-24974D02*
X51953Y-24720D01*
X52518Y-25286D01*
X52264Y-25540D01*
X51698Y-24974D01*
X51698Y-24974D01*
G37*
G36*
X51921Y-24752D02*
X52175Y-24497D01*
X52741Y-25063D01*
X52487Y-25317D01*
X51921Y-24752D01*
X51921Y-24752D01*
G37*
G36*
X55103Y-27934D02*
X55357Y-27679D01*
X55923Y-28245D01*
X55669Y-28499D01*
X55103Y-27934D01*
X55103Y-27934D01*
G37*
G36*
X55326Y-27711D02*
X55580Y-27456D01*
X56146Y-28022D01*
X55891Y-28277D01*
X55326Y-27711D01*
X55326Y-27711D01*
G37*
G36*
X52144Y-24529D02*
X52398Y-24274D01*
X52964Y-24840D01*
X52709Y-25095D01*
X52144Y-24529D01*
X52144Y-24529D01*
G37*
G54D26*
X51259Y-55472D03*
X52716Y-55472D03*
X51259Y-48779D03*
X52716Y-48779D03*
X51259Y-42086D03*
X52716Y-42086D03*
X51259Y-35393D03*
X52716Y-35393D03*
X44566Y-35393D03*
X46023Y-35393D03*
X44566Y-42086D03*
X46023Y-42086D03*
X44566Y-48779D03*
X46023Y-48779D03*
X44566Y-55472D03*
X46023Y-55472D03*
G54D31*
X57594Y-22748D03*
X58594Y-22748D03*
X40043Y-22759D03*
X39043Y-22759D03*
G54D32*
X48064Y-28413D03*
X48064Y-27663D03*
X51909Y-24134D03*
X51909Y-23384D03*
X53807Y-23042D03*
X53807Y-23792D03*
X60944Y-28817D03*
X60944Y-29567D03*
G54D33*
X37796Y-29586D03*
X37046Y-29586D03*
G54D10*
G36*
X49997Y-25279D02*
X50527Y-25809D01*
X50139Y-26198D01*
X49608Y-25668D01*
X49997Y-25279D01*
X49997Y-25279D01*
G37*
G36*
X49467Y-25809D02*
X49997Y-26339D01*
X49608Y-26728D01*
X49078Y-26198D01*
X49467Y-25809D01*
X49467Y-25809D01*
G37*
G54D32*
X51181Y-24134D03*
X51181Y-23384D03*
G54D33*
X48989Y-30811D03*
X48239Y-30811D03*
X45404Y-25440D03*
X46154Y-25440D03*
G54D32*
X52893Y-23859D03*
X52893Y-23109D03*
X58976Y-28189D03*
X58976Y-27439D03*
X57992Y-28189D03*
X57992Y-27439D03*
G54D33*
X55611Y-30133D03*
X54861Y-30133D03*
G54D32*
X36098Y-25079D03*
X36098Y-24329D03*
X58976Y-28817D03*
X58976Y-29567D03*
X57992Y-26812D03*
X57992Y-26062D03*
X48864Y-28413D03*
X48864Y-27663D03*
X59960Y-26812D03*
X59960Y-26062D03*
X57992Y-28817D03*
X57992Y-29567D03*
X36043Y-30847D03*
X36043Y-30097D03*
G54D33*
X47854Y-25799D03*
X48604Y-25799D03*
X44776Y-25440D03*
X44026Y-25440D03*
G54D32*
X36043Y-28977D03*
X36043Y-28227D03*
X59960Y-28817D03*
X59960Y-29567D03*
X58976Y-26812D03*
X58976Y-26062D03*
X36043Y-27008D03*
X36043Y-26258D03*
G54D33*
X54134Y-42086D03*
X53384Y-42086D03*
X40749Y-35393D03*
X39999Y-35393D03*
X47441Y-42086D03*
X46691Y-42086D03*
X54134Y-35393D03*
X53384Y-35393D03*
X60827Y-42086D03*
X60077Y-42086D03*
X60827Y-35393D03*
X60077Y-35393D03*
X39174Y-30964D03*
X38424Y-30964D03*
X47441Y-35393D03*
X46691Y-35393D03*
X37796Y-27618D03*
X37046Y-27618D03*
G54D32*
X54590Y-23428D03*
X54590Y-24178D03*
G54D33*
X39174Y-28996D03*
X38424Y-28996D03*
X60827Y-55472D03*
X60077Y-55472D03*
X40749Y-48779D03*
X39999Y-48779D03*
X54134Y-55472D03*
X53384Y-55472D03*
X47441Y-48779D03*
X46691Y-48779D03*
X54134Y-48779D03*
X53384Y-48779D03*
X60827Y-48779D03*
X60077Y-48779D03*
X47441Y-55472D03*
X46691Y-55472D03*
X40749Y-42086D03*
X39999Y-42086D03*
X40749Y-55472D03*
X39999Y-55472D03*
X38428Y-30188D03*
X39178Y-30188D03*
X38432Y-28204D03*
X39182Y-28204D03*
X39174Y-27027D03*
X38424Y-27027D03*
X38424Y-26248D03*
X39174Y-26248D03*
X39272Y-25157D03*
X38522Y-25157D03*
X38522Y-24370D03*
X39272Y-24370D03*
X47854Y-25099D03*
X48604Y-25099D03*
X37796Y-23681D03*
X37046Y-23681D03*
X37796Y-25649D03*
X37046Y-25649D03*
G54D32*
X60944Y-28189D03*
X60944Y-27439D03*
X60944Y-26812D03*
X60944Y-26062D03*
X59960Y-28189D03*
X59960Y-27439D03*
G54D33*
X54319Y-30909D03*
X53569Y-30909D03*
X48985Y-29192D03*
X48235Y-29192D03*
G54D32*
X57164Y-26263D03*
X57164Y-27013D03*
X56464Y-27063D03*
X56464Y-27813D03*
M02*
