G04 (created by PCBNEW (2013-mar-30)-stable) date Wed 12 Jun 2013 18:28:03 BST*
%MOIN*%
G04 Gerber Fmt 3.4, Leading zero omitted, Abs format*
%FSLAX34Y34*%
G01*
G70*
G90*
G04 APERTURE LIST*
%ADD10C,0*%
%ADD11C,0.00393701*%
%ADD12C,0.00590551*%
%ADD13R,0.0747X0.0747*%
%ADD14R,0.0748X0.0747*%
%ADD15R,0.0707X0.0747*%
%ADD16R,0.0825X0.0629*%
%ADD17R,0.0157X0.053*%
%ADD18R,0.0590551X0.0629921*%
%ADD19R,0.0944X0.0787*%
%ADD20R,0.0394X0.0276*%
%ADD21R,0.055X0.035*%
%ADD22R,0.035X0.055*%
G04 APERTURE END LIST*
G54D10*
G54D11*
X34468Y-21811D02*
G75*
G03X32893Y-23385I0J-1574D01*
G74*
G01*
X64389Y-23385D02*
G75*
G03X62814Y-21811I-1574J0D01*
G74*
G01*
X32893Y-59606D02*
G75*
G03X34468Y-61181I1574J0D01*
G74*
G01*
X62795Y-61181D02*
G75*
G03X64389Y-59625I19J1574D01*
G74*
G01*
X34468Y-21811D02*
X62815Y-21811D01*
X62815Y-61181D02*
X34468Y-61181D01*
X32894Y-59607D02*
X32894Y-23386D01*
X64390Y-23386D02*
X64390Y-59607D01*
G54D12*
X39015Y-55019D02*
X38188Y-55019D01*
X38188Y-55019D02*
X38188Y-55925D01*
X38188Y-55925D02*
X39015Y-55925D01*
X39015Y-55925D02*
X39015Y-55019D01*
X59094Y-55019D02*
X58267Y-55019D01*
X58267Y-55019D02*
X58267Y-55925D01*
X58267Y-55925D02*
X59094Y-55925D01*
X59094Y-55925D02*
X59094Y-55019D01*
X39015Y-48326D02*
X38188Y-48326D01*
X38188Y-48326D02*
X38188Y-49232D01*
X38188Y-49232D02*
X39015Y-49232D01*
X39015Y-49232D02*
X39015Y-48326D01*
X59094Y-48326D02*
X58267Y-48326D01*
X58267Y-48326D02*
X58267Y-49232D01*
X58267Y-49232D02*
X59094Y-49232D01*
X59094Y-49232D02*
X59094Y-48326D01*
X39015Y-41633D02*
X38188Y-41633D01*
X38188Y-41633D02*
X38188Y-42539D01*
X38188Y-42539D02*
X39015Y-42539D01*
X39015Y-42539D02*
X39015Y-41633D01*
X59094Y-41633D02*
X58267Y-41633D01*
X58267Y-41633D02*
X58267Y-42539D01*
X58267Y-42539D02*
X59094Y-42539D01*
X59094Y-42539D02*
X59094Y-41633D01*
X39015Y-34940D02*
X38188Y-34940D01*
X38188Y-34940D02*
X38188Y-35846D01*
X38188Y-35846D02*
X39015Y-35846D01*
X39015Y-35846D02*
X39015Y-34940D01*
X59094Y-34940D02*
X58267Y-34940D01*
X58267Y-34940D02*
X58267Y-35846D01*
X58267Y-35846D02*
X59094Y-35846D01*
X59094Y-35846D02*
X59094Y-34940D01*
X45836Y-25964D02*
X45009Y-25964D01*
X45009Y-25964D02*
X45009Y-26870D01*
X45009Y-26870D02*
X45836Y-26870D01*
X45836Y-26870D02*
X45836Y-25964D01*
X52401Y-55019D02*
X51574Y-55019D01*
X51574Y-55019D02*
X51574Y-55925D01*
X51574Y-55925D02*
X52401Y-55925D01*
X52401Y-55925D02*
X52401Y-55019D01*
X52401Y-48326D02*
X51574Y-48326D01*
X51574Y-48326D02*
X51574Y-49232D01*
X51574Y-49232D02*
X52401Y-49232D01*
X52401Y-49232D02*
X52401Y-48326D01*
X52401Y-41633D02*
X51574Y-41633D01*
X51574Y-41633D02*
X51574Y-42539D01*
X51574Y-42539D02*
X52401Y-42539D01*
X52401Y-42539D02*
X52401Y-41633D01*
X52401Y-34940D02*
X51574Y-34940D01*
X51574Y-34940D02*
X51574Y-35846D01*
X51574Y-35846D02*
X52401Y-35846D01*
X52401Y-35846D02*
X52401Y-34940D01*
X45708Y-34940D02*
X44881Y-34940D01*
X44881Y-34940D02*
X44881Y-35846D01*
X44881Y-35846D02*
X45708Y-35846D01*
X45708Y-35846D02*
X45708Y-34940D01*
X45708Y-41633D02*
X44881Y-41633D01*
X44881Y-41633D02*
X44881Y-42539D01*
X44881Y-42539D02*
X45708Y-42539D01*
X45708Y-42539D02*
X45708Y-41633D01*
X45708Y-48326D02*
X44881Y-48326D01*
X44881Y-48326D02*
X44881Y-49232D01*
X44881Y-49232D02*
X45708Y-49232D01*
X45708Y-49232D02*
X45708Y-48326D01*
X45708Y-55019D02*
X44881Y-55019D01*
X44881Y-55019D02*
X44881Y-55925D01*
X44881Y-55925D02*
X45708Y-55925D01*
X45708Y-55925D02*
X45708Y-55019D01*
G54D13*
X49113Y-22400D03*
G54D14*
X48169Y-22400D03*
G54D15*
X47145Y-22400D03*
G54D16*
X49861Y-23404D03*
G54D17*
X49152Y-23454D03*
X48896Y-23454D03*
X48641Y-23454D03*
X48386Y-23454D03*
X48130Y-23454D03*
G54D16*
X47421Y-23404D03*
G54D15*
X50137Y-22400D03*
G54D18*
X37874Y-55472D03*
X39330Y-55472D03*
X57952Y-55472D03*
X59409Y-55472D03*
X37874Y-48779D03*
X39330Y-48779D03*
X57952Y-48779D03*
X59409Y-48779D03*
X37874Y-42086D03*
X39330Y-42086D03*
X57952Y-42086D03*
X59409Y-42086D03*
X37874Y-35393D03*
X39330Y-35393D03*
X57952Y-35393D03*
X59409Y-35393D03*
X44694Y-26417D03*
X46151Y-26417D03*
G54D19*
X50003Y-30814D03*
X50003Y-29240D03*
G54D20*
X36822Y-30570D03*
X37822Y-30195D03*
X37822Y-30945D03*
X36822Y-28602D03*
X37822Y-28227D03*
X37822Y-28977D03*
X36822Y-24665D03*
X37822Y-24290D03*
X37822Y-25040D03*
X36822Y-26633D03*
X37822Y-26258D03*
X37822Y-27008D03*
G54D10*
G36*
X54353Y-25954D02*
X54778Y-25530D01*
X54891Y-25643D01*
X54466Y-26067D01*
X54353Y-25954D01*
X54353Y-25954D01*
G37*
G36*
X54131Y-25731D02*
X54555Y-25307D01*
X54668Y-25420D01*
X54244Y-25844D01*
X54131Y-25731D01*
X54131Y-25731D01*
G37*
G36*
X53908Y-25508D02*
X54332Y-25084D01*
X54445Y-25197D01*
X54021Y-25621D01*
X53908Y-25508D01*
X53908Y-25508D01*
G37*
G36*
X53685Y-25286D02*
X54109Y-24861D01*
X54222Y-24974D01*
X53798Y-25399D01*
X53685Y-25286D01*
X53685Y-25286D01*
G37*
G36*
X53462Y-25063D02*
X53887Y-24639D01*
X54000Y-24752D01*
X53575Y-25176D01*
X53462Y-25063D01*
X53462Y-25063D01*
G37*
G36*
X53240Y-24840D02*
X53664Y-24416D01*
X53777Y-24529D01*
X53353Y-24953D01*
X53240Y-24840D01*
X53240Y-24840D01*
G37*
G36*
X54576Y-26177D02*
X55000Y-25752D01*
X55113Y-25865D01*
X54689Y-26290D01*
X54576Y-26177D01*
X54576Y-26177D01*
G37*
G36*
X54799Y-26399D02*
X55223Y-25975D01*
X55336Y-26088D01*
X54912Y-26512D01*
X54799Y-26399D01*
X54799Y-26399D01*
G37*
G36*
X55022Y-26622D02*
X55446Y-26198D01*
X55559Y-26311D01*
X55135Y-26735D01*
X55022Y-26622D01*
X55022Y-26622D01*
G37*
G36*
X55244Y-26845D02*
X55669Y-26421D01*
X55782Y-26534D01*
X55357Y-26958D01*
X55244Y-26845D01*
X55244Y-26845D01*
G37*
G36*
X55467Y-27068D02*
X55891Y-26643D01*
X56004Y-26756D01*
X55580Y-27181D01*
X55467Y-27068D01*
X55467Y-27068D01*
G37*
G36*
X51171Y-29136D02*
X51596Y-28712D01*
X51709Y-28825D01*
X51284Y-29249D01*
X51171Y-29136D01*
X51171Y-29136D01*
G37*
G36*
X50949Y-28913D02*
X51373Y-28489D01*
X51486Y-28602D01*
X51062Y-29026D01*
X50949Y-28913D01*
X50949Y-28913D01*
G37*
G36*
X50726Y-28690D02*
X51150Y-28266D01*
X51263Y-28379D01*
X50839Y-28803D01*
X50726Y-28690D01*
X50726Y-28690D01*
G37*
G36*
X50503Y-28468D02*
X50927Y-28043D01*
X51040Y-28156D01*
X50616Y-28581D01*
X50503Y-28468D01*
X50503Y-28468D01*
G37*
G36*
X50280Y-28245D02*
X50705Y-27821D01*
X50818Y-27934D01*
X50393Y-28358D01*
X50280Y-28245D01*
X50280Y-28245D01*
G37*
G36*
X50058Y-28022D02*
X50482Y-27598D01*
X50595Y-27711D01*
X50171Y-28135D01*
X50058Y-28022D01*
X50058Y-28022D01*
G37*
G36*
X51394Y-29359D02*
X51818Y-28934D01*
X51931Y-29047D01*
X51507Y-29472D01*
X51394Y-29359D01*
X51394Y-29359D01*
G37*
G36*
X51617Y-29581D02*
X52041Y-29157D01*
X52154Y-29270D01*
X51730Y-29694D01*
X51617Y-29581D01*
X51617Y-29581D01*
G37*
G36*
X51840Y-29804D02*
X52264Y-29380D01*
X52377Y-29493D01*
X51953Y-29917D01*
X51840Y-29804D01*
X51840Y-29804D01*
G37*
G36*
X52062Y-30027D02*
X52487Y-29603D01*
X52600Y-29716D01*
X52175Y-30140D01*
X52062Y-30027D01*
X52062Y-30027D01*
G37*
G36*
X52285Y-30250D02*
X52709Y-29825D01*
X52822Y-29938D01*
X52398Y-30363D01*
X52285Y-30250D01*
X52285Y-30250D01*
G37*
G36*
X51171Y-25643D02*
X51284Y-25530D01*
X51709Y-25954D01*
X51596Y-26067D01*
X51171Y-25643D01*
X51171Y-25643D01*
G37*
G36*
X54353Y-28825D02*
X54466Y-28712D01*
X54891Y-29136D01*
X54778Y-29249D01*
X54353Y-28825D01*
X54353Y-28825D01*
G37*
G36*
X50949Y-25865D02*
X51062Y-25752D01*
X51486Y-26177D01*
X51373Y-26290D01*
X50949Y-25865D01*
X50949Y-25865D01*
G37*
G36*
X54131Y-29047D02*
X54244Y-28934D01*
X54668Y-29359D01*
X54555Y-29472D01*
X54131Y-29047D01*
X54131Y-29047D01*
G37*
G36*
X53908Y-29270D02*
X54021Y-29157D01*
X54445Y-29581D01*
X54332Y-29694D01*
X53908Y-29270D01*
X53908Y-29270D01*
G37*
G36*
X50726Y-26088D02*
X50839Y-25975D01*
X51263Y-26399D01*
X51150Y-26512D01*
X50726Y-26088D01*
X50726Y-26088D01*
G37*
G36*
X50503Y-26311D02*
X50616Y-26198D01*
X51040Y-26622D01*
X50927Y-26735D01*
X50503Y-26311D01*
X50503Y-26311D01*
G37*
G36*
X53685Y-29493D02*
X53798Y-29380D01*
X54222Y-29804D01*
X54109Y-29917D01*
X53685Y-29493D01*
X53685Y-29493D01*
G37*
G36*
X53462Y-29716D02*
X53575Y-29603D01*
X54000Y-30027D01*
X53887Y-30140D01*
X53462Y-29716D01*
X53462Y-29716D01*
G37*
G36*
X50280Y-26534D02*
X50393Y-26421D01*
X50818Y-26845D01*
X50705Y-26958D01*
X50280Y-26534D01*
X50280Y-26534D01*
G37*
G36*
X50058Y-26756D02*
X50171Y-26643D01*
X50595Y-27068D01*
X50482Y-27181D01*
X50058Y-26756D01*
X50058Y-26756D01*
G37*
G36*
X53240Y-29938D02*
X53353Y-29825D01*
X53777Y-30250D01*
X53664Y-30363D01*
X53240Y-29938D01*
X53240Y-29938D01*
G37*
G36*
X54576Y-28602D02*
X54689Y-28489D01*
X55113Y-28913D01*
X55000Y-29026D01*
X54576Y-28602D01*
X54576Y-28602D01*
G37*
G36*
X51394Y-25420D02*
X51507Y-25307D01*
X51931Y-25731D01*
X51818Y-25844D01*
X51394Y-25420D01*
X51394Y-25420D01*
G37*
G36*
X51617Y-25197D02*
X51730Y-25084D01*
X52154Y-25508D01*
X52041Y-25621D01*
X51617Y-25197D01*
X51617Y-25197D01*
G37*
G36*
X54799Y-28379D02*
X54912Y-28266D01*
X55336Y-28690D01*
X55223Y-28803D01*
X54799Y-28379D01*
X54799Y-28379D01*
G37*
G36*
X55022Y-28156D02*
X55135Y-28043D01*
X55559Y-28468D01*
X55446Y-28581D01*
X55022Y-28156D01*
X55022Y-28156D01*
G37*
G36*
X51840Y-24974D02*
X51953Y-24861D01*
X52377Y-25286D01*
X52264Y-25399D01*
X51840Y-24974D01*
X51840Y-24974D01*
G37*
G36*
X52062Y-24752D02*
X52175Y-24639D01*
X52600Y-25063D01*
X52487Y-25176D01*
X52062Y-24752D01*
X52062Y-24752D01*
G37*
G36*
X55244Y-27934D02*
X55357Y-27821D01*
X55782Y-28245D01*
X55669Y-28358D01*
X55244Y-27934D01*
X55244Y-27934D01*
G37*
G36*
X55467Y-27711D02*
X55580Y-27598D01*
X56004Y-28022D01*
X55891Y-28135D01*
X55467Y-27711D01*
X55467Y-27711D01*
G37*
G36*
X52285Y-24529D02*
X52398Y-24416D01*
X52822Y-24840D01*
X52709Y-24953D01*
X52285Y-24529D01*
X52285Y-24529D01*
G37*
G54D18*
X51259Y-55472D03*
X52716Y-55472D03*
X51259Y-48779D03*
X52716Y-48779D03*
X51259Y-42086D03*
X52716Y-42086D03*
X51259Y-35393D03*
X52716Y-35393D03*
X44566Y-35393D03*
X46023Y-35393D03*
X44566Y-42086D03*
X46023Y-42086D03*
X44566Y-48779D03*
X46023Y-48779D03*
X44566Y-55472D03*
X46023Y-55472D03*
G54D21*
X48064Y-28413D03*
X48064Y-27663D03*
X51909Y-24134D03*
X51909Y-23384D03*
X53807Y-23042D03*
X53807Y-23792D03*
X60944Y-28817D03*
X60944Y-29567D03*
G54D22*
X37796Y-29586D03*
X37046Y-29586D03*
G54D10*
G36*
X49997Y-25420D02*
X50386Y-25809D01*
X50139Y-26056D01*
X49750Y-25668D01*
X49997Y-25420D01*
X49997Y-25420D01*
G37*
G36*
X49467Y-25950D02*
X49856Y-26339D01*
X49608Y-26587D01*
X49219Y-26198D01*
X49467Y-25950D01*
X49467Y-25950D01*
G37*
G54D21*
X51181Y-24134D03*
X51181Y-23384D03*
G54D22*
X48989Y-30811D03*
X48239Y-30811D03*
X45404Y-25440D03*
X46154Y-25440D03*
G54D21*
X52893Y-23859D03*
X52893Y-23109D03*
X58976Y-28189D03*
X58976Y-27439D03*
X57992Y-28189D03*
X57992Y-27439D03*
G54D22*
X55611Y-30133D03*
X54861Y-30133D03*
G54D21*
X36098Y-25079D03*
X36098Y-24329D03*
X58976Y-28817D03*
X58976Y-29567D03*
X57992Y-26812D03*
X57992Y-26062D03*
X48864Y-28413D03*
X48864Y-27663D03*
X59960Y-26812D03*
X59960Y-26062D03*
X57992Y-28817D03*
X57992Y-29567D03*
X36043Y-30847D03*
X36043Y-30097D03*
G54D22*
X47854Y-25799D03*
X48604Y-25799D03*
X44776Y-25440D03*
X44026Y-25440D03*
G54D21*
X36043Y-28977D03*
X36043Y-28227D03*
X59960Y-28817D03*
X59960Y-29567D03*
X58976Y-26812D03*
X58976Y-26062D03*
X36043Y-27008D03*
X36043Y-26258D03*
G54D22*
X54134Y-42086D03*
X53384Y-42086D03*
X40749Y-35393D03*
X39999Y-35393D03*
X47441Y-42086D03*
X46691Y-42086D03*
X54134Y-35393D03*
X53384Y-35393D03*
X60827Y-42086D03*
X60077Y-42086D03*
X60827Y-35393D03*
X60077Y-35393D03*
X39174Y-30964D03*
X38424Y-30964D03*
X47441Y-35393D03*
X46691Y-35393D03*
X37796Y-27618D03*
X37046Y-27618D03*
G54D21*
X54590Y-23428D03*
X54590Y-24178D03*
G54D22*
X39174Y-28996D03*
X38424Y-28996D03*
X60827Y-55472D03*
X60077Y-55472D03*
X40749Y-48779D03*
X39999Y-48779D03*
X54134Y-55472D03*
X53384Y-55472D03*
X47441Y-48779D03*
X46691Y-48779D03*
X54134Y-48779D03*
X53384Y-48779D03*
X60827Y-48779D03*
X60077Y-48779D03*
X47441Y-55472D03*
X46691Y-55472D03*
X40749Y-42086D03*
X39999Y-42086D03*
X40749Y-55472D03*
X39999Y-55472D03*
X38428Y-30188D03*
X39178Y-30188D03*
X38432Y-28204D03*
X39182Y-28204D03*
X39174Y-27027D03*
X38424Y-27027D03*
X38424Y-26248D03*
X39174Y-26248D03*
X39272Y-25157D03*
X38522Y-25157D03*
X38522Y-24370D03*
X39272Y-24370D03*
X47854Y-25099D03*
X48604Y-25099D03*
X37796Y-23681D03*
X37046Y-23681D03*
X37796Y-25649D03*
X37046Y-25649D03*
G54D21*
X60944Y-28189D03*
X60944Y-27439D03*
X60944Y-26812D03*
X60944Y-26062D03*
X59960Y-28189D03*
X59960Y-27439D03*
G54D22*
X54319Y-30909D03*
X53569Y-30909D03*
X48985Y-29192D03*
X48235Y-29192D03*
G54D21*
X57164Y-26263D03*
X57164Y-27013D03*
X56464Y-27063D03*
X56464Y-27813D03*
M02*
